<?xml version="1.0" encoding="utf-8" standalone="no"?>
<!DOCTYPE svg PUBLIC "-//W3C//DTD SVG 1.1//EN"
  "http://www.w3.org/Graphics/SVG/1.1/DTD/svg11.dtd">
<svg xmlns:xlink="http://www.w3.org/1999/xlink" width="993.7125pt" height="288pt" viewBox="0 0 993.7125 288" xmlns="http://www.w3.org/2000/svg" version="1.1">
 <metadata>
  <rdf:RDF xmlns:dc="http://purl.org/dc/elements/1.1/" xmlns:cc="http://creativecommons.org/ns#" xmlns:rdf="http://www.w3.org/1999/02/22-rdf-syntax-ns#">
   <cc:Work>
    <dc:type rdf:resource="http://purl.org/dc/dcmitype/StillImage"/>
    <dc:date>2026-06-19T18:07:30.864691</dc:date>
    <dc:format>image/svg+xml</dc:format>
    <dc:creator>
     <cc:Agent>
      <dc:title>Matplotlib v3.10.9, https://matplotlib.org/</dc:title>
     </cc:Agent>
    </dc:creator>
   </cc:Work>
  </rdf:RDF>
 </metadata>
 <defs>
  <style type="text/css">*{stroke-linejoin: round; stroke-linecap: butt}</style>
 </defs>
 <g id="figure_1">
  <g id="patch_1">
   <path d="M 0 288 
L 993.7125 288 
L 993.7125 0 
L 0 0 
z
" style="fill: #ffffff"/>
  </g>
  <g id="axes_1">
   <g id="patch_2">
    <path d="M 58.84899 246.39351 
L 291.074281 246.39351 
L 291.074281 44.033894 
L 58.84899 44.033894 
z
" style="fill: #ffffff"/>
   </g>
   <g id="matplotlib.axis_1">
    <g id="xtick_1">
     <g id="line2d_1">
      <path d="M 83.964264 246.39351 
L 83.964264 44.033894 
" clip-path="url(#p4dabeaf83d)" style="fill: none; stroke: #cccccc; stroke-width: 0.8; stroke-linecap: round"/>
     </g>
     <g id="text_1">
      <!-- 1 -->
      <g style="fill: #262626" transform="translate(80.254858 264.59351) scale(0.132 -0.132)">
       <defs>
        <path id="Roboto-Regular-31" d="M 2278 4575 
L 2278 0 
L 1700 0 
L 1700 3853 
L 534 3428 
L 534 3950 
L 2188 4575 
L 2278 4575 
z
" transform="scale(0.015625)"/>
       </defs>
       <use xlink:href="#Roboto-Regular-31"/>
      </g>
     </g>
    </g>
    <g id="xtick_2">
     <g id="line2d_2">
      <path d="M 120.363213 246.39351 
L 120.363213 44.033894 
" clip-path="url(#p4dabeaf83d)" style="fill: none; stroke: #cccccc; stroke-width: 0.8; stroke-linecap: round"/>
     </g>
     <g id="text_2">
      <!-- 2 -->
      <g style="fill: #262626" transform="translate(116.653807 264.59351) scale(0.132 -0.132)">
       <defs>
        <path id="Roboto-Regular-32" d="M 3359 475 
L 3359 0 
L 381 0 
L 381 416 
L 1925 2134 
Q 2306 2566 2439 2819 
Q 2572 3072 2572 3328 
Q 2572 3663 2364 3900 
Q 2156 4138 1778 4138 
Q 1322 4138 1097 3878 
Q 872 3619 872 3213 
L 294 3213 
Q 294 3788 672 4200 
Q 1050 4613 1778 4613 
Q 2422 4613 2786 4278 
Q 3150 3944 3150 3397 
Q 3150 2997 2903 2592 
Q 2656 2188 2297 1797 
L 1078 475 
L 3359 475 
z
" transform="scale(0.015625)"/>
       </defs>
       <use xlink:href="#Roboto-Regular-32"/>
      </g>
     </g>
    </g>
    <g id="xtick_3">
     <g id="line2d_3">
      <path d="M 156.762161 246.39351 
L 156.762161 44.033894 
" clip-path="url(#p4dabeaf83d)" style="fill: none; stroke: #cccccc; stroke-width: 0.8; stroke-linecap: round"/>
     </g>
     <g id="text_3">
      <!-- 3 -->
      <g style="fill: #262626" transform="translate(153.052755 264.59351) scale(0.132 -0.132)">
       <defs>
        <path id="Roboto-Regular-33" d="M 1222 2084 
L 1222 2559 
L 1647 2559 
Q 2094 2563 2312 2784 
Q 2531 3006 2531 3338 
Q 2531 4138 1738 4138 
Q 1369 4138 1141 3927 
Q 913 3716 913 3359 
L 334 3359 
Q 334 3881 720 4247 
Q 1106 4613 1738 4613 
Q 2353 4613 2733 4286 
Q 3113 3959 3113 3325 
Q 3113 3072 2942 2784 
Q 2772 2497 2397 2338 
Q 2850 2191 3015 1884 
Q 3181 1578 3181 1269 
Q 3181 631 2768 284 
Q 2356 -63 1741 -63 
Q 1147 -63 722 267 
Q 297 597 297 1203 
L 875 1203 
Q 875 844 1108 628 
Q 1341 413 1741 413 
Q 2138 413 2369 622 
Q 2600 831 2600 1256 
Q 2600 1681 2337 1882 
Q 2075 2084 1634 2084 
L 1222 2084 
z
" transform="scale(0.015625)"/>
       </defs>
       <use xlink:href="#Roboto-Regular-33"/>
      </g>
     </g>
    </g>
    <g id="xtick_4">
     <g id="line2d_4">
      <path d="M 193.16111 246.39351 
L 193.16111 44.033894 
" clip-path="url(#p4dabeaf83d)" style="fill: none; stroke: #cccccc; stroke-width: 0.8; stroke-linecap: round"/>
     </g>
     <g id="text_4">
      <!-- 4 -->
      <g style="fill: #262626" transform="translate(189.451703 264.59351) scale(0.132 -0.132)">
       <defs>
        <path id="Roboto-Regular-34" d="M 166 1397 
L 2203 4550 
L 2819 4550 
L 2819 1531 
L 3453 1531 
L 3453 1056 
L 2819 1056 
L 2819 0 
L 2241 0 
L 2241 1056 
L 166 1056 
L 166 1397 
z
M 822 1531 
L 2241 1531 
L 2241 3766 
L 2169 3638 
L 822 1531 
z
" transform="scale(0.015625)"/>
       </defs>
       <use xlink:href="#Roboto-Regular-34"/>
      </g>
     </g>
    </g>
    <g id="xtick_5">
     <g id="line2d_5">
      <path d="M 229.560058 246.39351 
L 229.560058 44.033894 
" clip-path="url(#p4dabeaf83d)" style="fill: none; stroke: #cccccc; stroke-width: 0.8; stroke-linecap: round"/>
     </g>
     <g id="text_5">
      <!-- 5 -->
      <g style="fill: #262626" transform="translate(225.850652 264.59351) scale(0.132 -0.132)">
       <defs>
        <path id="Roboto-Regular-35" d="M 1109 2166 
L 647 2284 
L 875 4550 
L 3209 4550 
L 3209 4016 
L 1366 4016 
L 1228 2778 
Q 1572 2975 1988 2975 
Q 2616 2975 2980 2561 
Q 3344 2147 3344 1450 
Q 3344 797 2987 367 
Q 2631 -63 1903 -63 
Q 1350 -63 947 248 
Q 544 559 481 1197 
L 1031 1197 
Q 1141 413 1903 413 
Q 2313 413 2538 691 
Q 2763 969 2763 1444 
Q 2763 1872 2527 2164 
Q 2291 2456 1853 2456 
Q 1563 2456 1413 2378 
Q 1263 2300 1109 2166 
z
" transform="scale(0.015625)"/>
       </defs>
       <use xlink:href="#Roboto-Regular-35"/>
      </g>
     </g>
    </g>
    <g id="xtick_6">
     <g id="line2d_6">
      <path d="M 265.959006 246.39351 
L 265.959006 44.033894 
" clip-path="url(#p4dabeaf83d)" style="fill: none; stroke: #cccccc; stroke-width: 0.8; stroke-linecap: round"/>
     </g>
     <g id="text_6">
      <!-- 6+ -->
      <g style="fill: #262626" transform="translate(258.505131 264.59351) scale(0.132 -0.132)">
       <defs>
        <path id="Roboto-Regular-36" d="M 3291 1484 
Q 3291 838 2930 387 
Q 2569 -63 1878 -63 
Q 1388 -63 1063 198 
Q 738 459 577 861 
Q 416 1263 416 1684 
L 416 1956 
Q 416 2597 595 3194 
Q 775 3791 1247 4173 
Q 1719 4556 2597 4556 
L 2647 4556 
L 2647 4066 
Q 2041 4066 1705 3853 
Q 1369 3641 1205 3302 
Q 1041 2963 1006 2575 
Q 1369 2984 1984 2984 
Q 2438 2984 2727 2765 
Q 3016 2547 3153 2201 
Q 3291 1856 3291 1484 
z
M 997 1666 
Q 997 1059 1267 737 
Q 1538 416 1878 416 
Q 2278 416 2498 708 
Q 2719 1000 2719 1456 
Q 2719 1863 2516 2184 
Q 2313 2506 1891 2506 
Q 1588 2506 1341 2325 
Q 1094 2144 997 1884 
L 997 1666 
z
" transform="scale(0.015625)"/>
        <path id="Roboto-Regular-2b" d="M 3363 1897 
L 2094 1897 
L 2094 456 
L 1516 456 
L 1516 1897 
L 244 1897 
L 244 2441 
L 1516 2441 
L 1516 3769 
L 2094 3769 
L 2094 2441 
L 3363 2441 
L 3363 1897 
z
" transform="scale(0.015625)"/>
       </defs>
       <use xlink:href="#Roboto-Regular-36"/>
       <use xlink:href="#Roboto-Regular-2b" transform="translate(56.201172 0)"/>
      </g>
     </g>
    </g>
    <g id="text_7">
     <!-- Number of labels -->
     <g style="fill: #262626" transform="translate(120.06276 282.07476) scale(0.144 -0.144)">
      <defs>
       <path id="Roboto-Regular-4e" d="M 4028 4550 
L 4028 0 
L 3422 0 
L 1131 3509 
L 1131 0 
L 528 0 
L 528 4550 
L 1131 4550 
L 3431 1031 
L 3431 4550 
L 4028 4550 
z
" transform="scale(0.015625)"/>
       <path id="Roboto-Regular-75" d="M 2538 0 
L 2525 334 
Q 2194 -63 1538 -63 
Q 1041 -63 734 231 
Q 428 525 428 1200 
L 428 3381 
L 1006 3381 
L 1006 1194 
Q 1006 738 1198 583 
Q 1391 428 1628 428 
Q 2281 428 2509 919 
L 2509 3381 
L 3091 3381 
L 3091 0 
L 2538 0 
z
" transform="scale(0.015625)"/>
       <path id="Roboto-Regular-6d" d="M 1794 2956 
Q 1225 2956 1016 2478 
L 1016 0 
L 434 0 
L 434 3381 
L 984 3381 
L 1000 3013 
Q 1366 3444 2000 3444 
Q 2325 3444 2579 3314 
Q 2834 3184 2969 2900 
Q 3138 3144 3408 3294 
Q 3678 3444 4044 3444 
Q 4588 3444 4883 3153 
Q 5178 2863 5178 2222 
L 5178 0 
L 4597 0 
L 4597 2228 
Q 4597 2653 4401 2804 
Q 4206 2956 3875 2956 
Q 3525 2956 3325 2748 
Q 3125 2541 3094 2244 
L 3094 0 
L 2516 0 
L 2516 2225 
Q 2516 2622 2319 2789 
Q 2122 2956 1794 2956 
z
" transform="scale(0.015625)"/>
       <path id="Roboto-Regular-62" d="M 3303 1653 
Q 3303 913 2959 425 
Q 2616 -63 1988 -63 
Q 1347 -63 1000 391 
L 969 0 
L 438 0 
L 438 4800 
L 1019 4800 
L 1019 3016 
Q 1363 3444 1981 3444 
Q 2619 3444 2961 2969 
Q 3303 2494 3303 1719 
L 3303 1653 
z
M 1838 2956 
Q 1522 2956 1325 2804 
Q 1128 2653 1019 2431 
L 1019 959 
Q 1131 734 1331 581 
Q 1531 428 1844 428 
Q 2313 428 2517 789 
Q 2722 1150 2722 1653 
L 2722 1719 
Q 2722 2222 2526 2589 
Q 2331 2956 1838 2956 
z
" transform="scale(0.015625)"/>
       <path id="Roboto-Regular-65" d="M 3116 591 
Q 2950 341 2647 139 
Q 2344 -63 1844 -63 
Q 1138 -63 714 396 
Q 291 856 291 1572 
L 291 1703 
Q 291 2256 502 2645 
Q 713 3034 1050 3239 
Q 1388 3444 1769 3444 
Q 2494 3444 2826 2970 
Q 3159 2497 3159 1788 
L 3159 1528 
L 872 1528 
Q 884 1063 1148 736 
Q 1413 409 1875 409 
Q 2181 409 2393 534 
Q 2606 659 2766 869 
L 3116 591 
z
M 1769 2969 
Q 1425 2969 1187 2719 
Q 950 2469 891 2000 
L 2581 2000 
L 2581 2044 
Q 2559 2381 2386 2675 
Q 2213 2969 1769 2969 
z
" transform="scale(0.015625)"/>
       <path id="Roboto-Regular-72" d="M 1791 2888 
Q 1225 2888 1019 2400 
L 1019 0 
L 441 0 
L 441 3381 
L 1003 3381 
L 1016 2994 
Q 1294 3444 1819 3444 
Q 1981 3444 2075 3400 
L 2072 2863 
Q 1944 2888 1791 2888 
z
" transform="scale(0.015625)"/>
       <path id="Roboto-Regular-20" transform="scale(0.015625)"/>
       <path id="Roboto-Regular-6f" d="M 288 1725 
Q 288 2459 700 2951 
Q 1113 3444 1822 3444 
Q 2531 3444 2943 2961 
Q 3356 2478 3366 1756 
L 3366 1653 
Q 3366 919 2952 428 
Q 2538 -63 1828 -63 
Q 1116 -63 702 428 
Q 288 919 288 1653 
L 288 1725 
z
M 866 1653 
Q 866 1150 1105 781 
Q 1344 413 1828 413 
Q 2300 413 2540 777 
Q 2781 1141 2784 1644 
L 2784 1725 
Q 2784 2222 2543 2595 
Q 2303 2969 1822 2969 
Q 1344 2969 1105 2595 
Q 866 2222 866 1725 
L 866 1653 
z
" transform="scale(0.015625)"/>
       <path id="Roboto-Regular-66" d="M 2022 2938 
L 1303 2938 
L 1303 0 
L 725 0 
L 725 2938 
L 191 2938 
L 191 3381 
L 725 3381 
L 725 3759 
Q 731 4297 1026 4581 
Q 1322 4866 1834 4866 
Q 2025 4866 2234 4816 
L 2203 4344 
Q 2072 4372 1891 4372 
Q 1313 4372 1303 3756 
L 1303 3381 
L 2022 3381 
L 2022 2938 
z
" transform="scale(0.015625)"/>
       <path id="Roboto-Regular-6c" d="M 1069 4800 
L 1069 0 
L 488 0 
L 488 4800 
L 1069 4800 
z
" transform="scale(0.015625)"/>
       <path id="Roboto-Regular-61" d="M 2528 0 
Q 2472 122 2447 356 
Q 2284 184 2040 60 
Q 1797 -63 1484 -63 
Q 966 -63 653 228 
Q 341 519 341 941 
Q 341 1484 753 1767 
Q 1166 2050 1863 2050 
L 2434 2050 
L 2434 2319 
Q 2434 2619 2254 2798 
Q 2075 2978 1722 2978 
Q 1394 2978 1192 2817 
Q 991 2656 991 2444 
L 413 2444 
Q 413 2806 778 3125 
Q 1144 3444 1756 3444 
Q 2306 3444 2659 3162 
Q 3013 2881 3013 2313 
L 3013 794 
Q 3013 325 3131 50 
L 3131 0 
L 2528 0 
z
M 1569 444 
Q 1881 444 2111 600 
Q 2341 756 2434 947 
L 2434 1644 
L 1897 1644 
Q 922 1625 922 1019 
Q 922 778 1084 611 
Q 1247 444 1569 444 
z
" transform="scale(0.015625)"/>
       <path id="Roboto-Regular-73" d="M 2409 897 
Q 2409 1081 2273 1229 
Q 2138 1378 1647 1478 
Q 1081 1594 747 1814 
Q 413 2034 413 2456 
Q 413 2856 755 3150 
Q 1097 3444 1666 3444 
Q 2272 3444 2612 3134 
Q 2953 2825 2953 2388 
L 2375 2388 
Q 2375 2597 2190 2783 
Q 2006 2969 1666 2969 
Q 1306 2969 1150 2812 
Q 994 2656 994 2472 
Q 994 2288 1139 2173 
Q 1284 2059 1756 1953 
Q 2378 1813 2683 1584 
Q 2988 1356 2988 941 
Q 2988 494 2630 215 
Q 2272 -63 1681 -63 
Q 1009 -63 653 281 
Q 297 625 297 1044 
L 878 1044 
Q 897 684 1155 548 
Q 1413 413 1681 413 
Q 2034 413 2221 550 
Q 2409 688 2409 897 
z
" transform="scale(0.015625)"/>
      </defs>
      <use xlink:href="#Roboto-Regular-4e"/>
      <use xlink:href="#Roboto-Regular-75" transform="translate(71.337891 0)"/>
      <use xlink:href="#Roboto-Regular-6d" transform="translate(126.464844 0)"/>
      <use xlink:href="#Roboto-Regular-62" transform="translate(214.160156 0)"/>
      <use xlink:href="#Roboto-Regular-65" transform="translate(270.3125 0)"/>
      <use xlink:href="#Roboto-Regular-72" transform="translate(323.339844 0)"/>
      <use xlink:href="#Roboto-Regular-20" transform="translate(357.226562 0)"/>
      <use xlink:href="#Roboto-Regular-6f" transform="translate(382.03125 0)"/>
      <use xlink:href="#Roboto-Regular-66" transform="translate(439.0625 0)"/>
      <use xlink:href="#Roboto-Regular-20" transform="translate(473.828125 0)"/>
      <use xlink:href="#Roboto-Regular-6c" transform="translate(498.632812 0)"/>
      <use xlink:href="#Roboto-Regular-61" transform="translate(522.949219 0)"/>
      <use xlink:href="#Roboto-Regular-62" transform="translate(577.34375 0)"/>
      <use xlink:href="#Roboto-Regular-65" transform="translate(633.496094 0)"/>
      <use xlink:href="#Roboto-Regular-6c" transform="translate(686.523438 0)"/>
      <use xlink:href="#Roboto-Regular-73" transform="translate(710.839844 0)"/>
     </g>
    </g>
   </g>
   <g id="matplotlib.axis_2">
    <g id="ytick_1">
     <g id="line2d_7">
      <path d="M 58.84899 246.39351 
L 291.074281 246.39351 
" clip-path="url(#p4dabeaf83d)" style="fill: none; stroke: #cccccc; stroke-width: 0.8; stroke-linecap: round"/>
     </g>
     <g id="text_8">
      <!-- 0 -->
      <g style="fill: #262626" transform="translate(43.130178 251.34351) scale(0.132 -0.132)">
       <defs>
        <path id="Roboto-Regular-30" d="M 3234 1944 
Q 3234 825 2848 381 
Q 2463 -63 1800 -63 
Q 1156 -63 764 368 
Q 372 800 359 1872 
L 359 2638 
Q 359 3753 750 4183 
Q 1141 4613 1794 4613 
Q 2447 4613 2834 4195 
Q 3222 3778 3234 2709 
L 3234 1944 
z
M 2653 2734 
Q 2653 3503 2434 3822 
Q 2216 4141 1794 4141 
Q 1388 4141 1167 3831 
Q 947 3522 941 2778 
L 941 1850 
Q 941 1088 1164 750 
Q 1388 413 1800 413 
Q 2222 413 2436 745 
Q 2650 1078 2653 1825 
L 2653 2734 
z
" transform="scale(0.015625)"/>
       </defs>
       <use xlink:href="#Roboto-Regular-30"/>
      </g>
     </g>
    </g>
    <g id="ytick_2">
     <g id="line2d_8">
      <path d="M 58.84899 206.892907 
L 291.074281 206.892907 
" clip-path="url(#p4dabeaf83d)" style="fill: none; stroke: #cccccc; stroke-width: 0.8; stroke-linecap: round"/>
     </g>
     <g id="text_9">
      <!-- 1000 -->
      <g style="fill: #262626" transform="translate(20.87374 211.842907) scale(0.132 -0.132)">
       <use xlink:href="#Roboto-Regular-31"/>
       <use xlink:href="#Roboto-Regular-30" transform="translate(56.201172 0)"/>
       <use xlink:href="#Roboto-Regular-30" transform="translate(112.402344 0)"/>
       <use xlink:href="#Roboto-Regular-30" transform="translate(168.603516 0)"/>
      </g>
     </g>
    </g>
    <g id="ytick_3">
     <g id="line2d_9">
      <path d="M 58.84899 167.392303 
L 291.074281 167.392303 
" clip-path="url(#p4dabeaf83d)" style="fill: none; stroke: #cccccc; stroke-width: 0.8; stroke-linecap: round"/>
     </g>
     <g id="text_10">
      <!-- 2000 -->
      <g style="fill: #262626" transform="translate(20.87374 172.342303) scale(0.132 -0.132)">
       <use xlink:href="#Roboto-Regular-32"/>
       <use xlink:href="#Roboto-Regular-30" transform="translate(56.201172 0)"/>
       <use xlink:href="#Roboto-Regular-30" transform="translate(112.402344 0)"/>
       <use xlink:href="#Roboto-Regular-30" transform="translate(168.603516 0)"/>
      </g>
     </g>
    </g>
    <g id="ytick_4">
     <g id="line2d_10">
      <path d="M 58.84899 127.8917 
L 291.074281 127.8917 
" clip-path="url(#p4dabeaf83d)" style="fill: none; stroke: #cccccc; stroke-width: 0.8; stroke-linecap: round"/>
     </g>
     <g id="text_11">
      <!-- 3000 -->
      <g style="fill: #262626" transform="translate(20.87374 132.8417) scale(0.132 -0.132)">
       <use xlink:href="#Roboto-Regular-33"/>
       <use xlink:href="#Roboto-Regular-30" transform="translate(56.201172 0)"/>
       <use xlink:href="#Roboto-Regular-30" transform="translate(112.402344 0)"/>
       <use xlink:href="#Roboto-Regular-30" transform="translate(168.603516 0)"/>
      </g>
     </g>
    </g>
    <g id="ytick_5">
     <g id="line2d_11">
      <path d="M 58.84899 88.391097 
L 291.074281 88.391097 
" clip-path="url(#p4dabeaf83d)" style="fill: none; stroke: #cccccc; stroke-width: 0.8; stroke-linecap: round"/>
     </g>
     <g id="text_12">
      <!-- 4000 -->
      <g style="fill: #262626" transform="translate(20.87374 93.341097) scale(0.132 -0.132)">
       <use xlink:href="#Roboto-Regular-34"/>
       <use xlink:href="#Roboto-Regular-30" transform="translate(56.201172 0)"/>
       <use xlink:href="#Roboto-Regular-30" transform="translate(112.402344 0)"/>
       <use xlink:href="#Roboto-Regular-30" transform="translate(168.603516 0)"/>
      </g>
     </g>
    </g>
    <g id="ytick_6">
     <g id="line2d_12">
      <path d="M 58.84899 48.890494 
L 291.074281 48.890494 
" clip-path="url(#p4dabeaf83d)" style="fill: none; stroke: #cccccc; stroke-width: 0.8; stroke-linecap: round"/>
     </g>
     <g id="text_13">
      <!-- 5000 -->
      <g style="fill: #262626" transform="translate(20.87374 53.840494) scale(0.132 -0.132)">
       <use xlink:href="#Roboto-Regular-35"/>
       <use xlink:href="#Roboto-Regular-30" transform="translate(56.201172 0)"/>
       <use xlink:href="#Roboto-Regular-30" transform="translate(112.402344 0)"/>
       <use xlink:href="#Roboto-Regular-30" transform="translate(168.603516 0)"/>
      </g>
     </g>
    </g>
    <g id="text_14">
     <!-- Number of samples -->
     <g style="fill: #262626" transform="translate(13.94874 208.392577) rotate(-90) scale(0.144 -0.144)">
      <defs>
       <path id="Roboto-Regular-70" d="M 1984 -63 
Q 1375 -63 1019 328 
L 1019 -1300 
L 438 -1300 
L 438 3381 
L 969 3381 
L 997 3009 
Q 1353 3444 1975 3444 
Q 2616 3444 2956 2969 
Q 3297 2494 3297 1719 
L 3297 1653 
Q 3297 913 2955 425 
Q 2613 -63 1984 -63 
z
M 1806 2956 
Q 1281 2956 1019 2491 
L 1019 872 
Q 1284 413 1813 413 
Q 2281 413 2498 781 
Q 2716 1150 2716 1653 
L 2716 1719 
Q 2716 2222 2498 2589 
Q 2281 2956 1806 2956 
z
" transform="scale(0.015625)"/>
      </defs>
      <use xlink:href="#Roboto-Regular-4e"/>
      <use xlink:href="#Roboto-Regular-75" transform="translate(71.337891 0)"/>
      <use xlink:href="#Roboto-Regular-6d" transform="translate(126.464844 0)"/>
      <use xlink:href="#Roboto-Regular-62" transform="translate(214.160156 0)"/>
      <use xlink:href="#Roboto-Regular-65" transform="translate(270.3125 0)"/>
      <use xlink:href="#Roboto-Regular-72" transform="translate(323.339844 0)"/>
      <use xlink:href="#Roboto-Regular-20" transform="translate(357.226562 0)"/>
      <use xlink:href="#Roboto-Regular-6f" transform="translate(382.03125 0)"/>
      <use xlink:href="#Roboto-Regular-66" transform="translate(439.0625 0)"/>
      <use xlink:href="#Roboto-Regular-20" transform="translate(473.828125 0)"/>
      <use xlink:href="#Roboto-Regular-73" transform="translate(498.632812 0)"/>
      <use xlink:href="#Roboto-Regular-61" transform="translate(550.244141 0)"/>
      <use xlink:href="#Roboto-Regular-6d" transform="translate(604.638672 0)"/>
      <use xlink:href="#Roboto-Regular-70" transform="translate(692.333984 0)"/>
      <use xlink:href="#Roboto-Regular-6c" transform="translate(748.486328 0)"/>
      <use xlink:href="#Roboto-Regular-65" transform="translate(772.802734 0)"/>
      <use xlink:href="#Roboto-Regular-73" transform="translate(825.830078 0)"/>
     </g>
    </g>
   </g>
   <g id="patch_3">
    <path d="M 69.404685 246.39351 
L 98.523844 246.39351 
L 98.523844 85.665555 
L 69.404685 85.665555 
z
" clip-path="url(#p4dabeaf83d)" style="fill: #4c72b0; stroke: #ffffff; stroke-width: 0.8; stroke-linejoin: miter"/>
   </g>
   <g id="patch_4">
    <path d="M 105.803633 246.39351 
L 134.922792 246.39351 
L 134.922792 53.670067 
L 105.803633 53.670067 
z
" clip-path="url(#p4dabeaf83d)" style="fill: #4c72b0; stroke: #ffffff; stroke-width: 0.8; stroke-linejoin: miter"/>
   </g>
   <g id="patch_5">
    <path d="M 142.202582 246.39351 
L 171.321741 246.39351 
L 171.321741 119.162067 
L 142.202582 119.162067 
z
" clip-path="url(#p4dabeaf83d)" style="fill: #4c72b0; stroke: #ffffff; stroke-width: 0.8; stroke-linejoin: miter"/>
   </g>
   <g id="patch_6">
    <path d="M 178.60153 246.39351 
L 207.720689 246.39351 
L 207.720689 184.21956 
L 178.60153 184.21956 
z
" clip-path="url(#p4dabeaf83d)" style="fill: #4c72b0; stroke: #ffffff; stroke-width: 0.8; stroke-linejoin: miter"/>
   </g>
   <g id="patch_7">
    <path d="M 215.000479 246.39351 
L 244.119637 246.39351 
L 244.119637 216.25455 
L 215.000479 216.25455 
z
" clip-path="url(#p4dabeaf83d)" style="fill: #4c72b0; stroke: #ffffff; stroke-width: 0.8; stroke-linejoin: miter"/>
   </g>
   <g id="patch_8">
    <path d="M 251.399427 246.39351 
L 280.518586 246.39351 
L 280.518586 224.15467 
L 251.399427 224.15467 
z
" clip-path="url(#p4dabeaf83d)" style="fill: #4c72b0; stroke: #ffffff; stroke-width: 0.8; stroke-linejoin: miter"/>
   </g>
   <g id="patch_9">
    <path d="M 58.84899 246.39351 
L 58.84899 44.033894 
" style="fill: none; stroke: #cccccc; stroke-linejoin: miter; stroke-linecap: square"/>
   </g>
   <g id="patch_10">
    <path d="M 291.074281 246.39351 
L 291.074281 44.033894 
" style="fill: none; stroke: #cccccc; stroke-linejoin: miter; stroke-linecap: square"/>
   </g>
   <g id="patch_11">
    <path d="M 58.84899 246.39351 
L 291.074281 246.39351 
" style="fill: none; stroke: #cccccc; stroke-linejoin: miter; stroke-linecap: square"/>
   </g>
   <g id="patch_12">
    <path d="M 58.84899 44.033894 
L 291.074281 44.033894 
" style="fill: none; stroke: #cccccc; stroke-linejoin: miter; stroke-linecap: square"/>
   </g>
  </g>
  <g id="axes_2">
   <g id="matplotlib.axis_3"/>
   <g id="matplotlib.axis_4"/>
   <g id="patch_13">
    <path d="M 494.131252 145.213702 
C 494.131252 132.740904 491.248315 120.435255 485.708197 109.260383 
C 480.168078 98.08551 472.119266 88.340925 462.192044 80.789703 
C 452.264822 73.238481 440.725261 68.083011 428.476999 65.727008 
C 416.228736 63.371004 403.600052 63.877612 391.579869 67.20716 
C 379.559686 70.536709 368.470172 76.599958 359.17972 84.92211 
C 349.889269 93.244261 342.646885 103.602263 338.019704 115.185003 
C 333.392522 126.767744 331.50456 139.26478 332.503662 151.697499 
C 333.502763 164.130217 337.362148 176.165393 343.779598 186.86058 
L 413.187406 145.213702 
z
" style="fill: #4c72b0; opacity: 0.4; stroke: #ffffff; stroke-width: 0.8; stroke-linejoin: miter"/>
   </g>
   <g id="patch_14">
    <path d="M 343.7796 186.860582 
C 352.14242 200.797879 364.512451 211.898328 379.270514 218.708943 
C 394.028577 225.519559 410.501387 227.729615 426.532721 225.049838 
C 442.564057 222.37006 457.42254 214.922705 469.163265 203.682583 
C 480.903991 192.442461 488.991324 177.922377 492.366668 162.022944 
L 413.187406 145.213702 
z
" style="fill: #dd8452; opacity: 0.4; stroke: #ffffff; stroke-width: 0.8; stroke-linejoin: miter"/>
   </g>
   <g id="patch_15">
    <path d="M 492.366668 162.022944 
C 492.952851 159.261757 493.394199 156.471779 493.688901 153.664481 
C 493.983604 150.857184 494.131252 148.036411 494.131252 145.213688 
L 413.187406 145.213702 
z
" style="fill: #55a868; opacity: 0.4; stroke: #ffffff; stroke-width: 0.8; stroke-linejoin: miter"/>
   </g>
   <g id="text_15">
    <!-- AV -->
    <g style="fill: #262626" transform="translate(372.403478 63.015885) scale(0.132 -0.132)">
     <defs>
      <path id="Roboto-Regular-41" d="M 91 0 
L 1825 4550 
L 2353 4550 
L 4094 0 
L 3475 0 
L 3041 1191 
L 1138 1191 
L 706 0 
L 91 0 
z
M 1319 1684 
L 2863 1684 
L 2091 3806 
L 1319 1684 
z
" transform="scale(0.015625)"/>
      <path id="Roboto-Regular-56" d="M 3991 4550 
L 2306 0 
L 1772 0 
L 91 4550 
L 744 4550 
L 2034 800 
L 3338 4550 
L 3991 4550 
z
" transform="scale(0.015625)"/>
     </defs>
     <use xlink:href="#Roboto-Regular-41"/>
     <use xlink:href="#Roboto-Regular-56" transform="translate(65.234375 0)"/>
    </g>
   </g>
   <g id="text_16">
    <!-- 58.6% -->
    <g style="fill: #262626" transform="translate(380.910002 102.347279) scale(0.144 -0.144)">
     <defs>
      <path id="Roboto-Regular-38" d="M 3244 1231 
Q 3244 606 2826 271 
Q 2409 -63 1796 -63 
Q 1184 -63 767 271 
Q 350 606 350 1231 
Q 350 1613 554 1905 
Q 759 2197 1109 2347 
Q 806 2494 629 2762 
Q 453 3031 453 3366 
Q 453 3963 833 4288 
Q 1213 4613 1794 4613 
Q 2378 4613 2758 4288 
Q 3138 3963 3138 3366 
Q 3138 3028 2956 2761 
Q 2775 2494 2472 2347 
Q 2825 2197 3034 1903 
Q 3244 1609 3244 1231 
z
M 2559 3356 
Q 2559 3697 2346 3917 
Q 2134 4138 1793 4138 
Q 1453 4138 1243 3927 
Q 1034 3716 1034 3356 
Q 1034 3003 1243 2790 
Q 1453 2578 1797 2578 
Q 2138 2578 2348 2790 
Q 2559 3003 2559 3356 
z
M 2663 1244 
Q 2663 1625 2420 1865 
Q 2178 2106 1791 2106 
Q 1394 2106 1161 1865 
Q 928 1625 928 1244 
Q 928 850 1161 631 
Q 1394 413 1797 413 
Q 2200 413 2431 631 
Q 2663 850 2663 1244 
z
" transform="scale(0.015625)"/>
      <path id="Roboto-Regular-2e" d="M 450 306 
Q 450 453 542 554 
Q 634 656 809 656 
Q 984 656 1076 554 
Q 1169 453 1169 306 
Q 1169 163 1076 62 
Q 984 -38 809 -38 
Q 634 -38 542 62 
Q 450 163 450 306 
z
" transform="scale(0.015625)"/>
      <path id="Roboto-Regular-25" d="M 328 3675 
Q 328 4063 578 4339 
Q 828 4616 1259 4616 
Q 1697 4616 1945 4339 
Q 2194 4063 2194 3675 
L 2194 3434 
Q 2194 3053 1947 2776 
Q 1700 2500 1265 2500 
Q 831 2500 579 2776 
Q 328 3053 328 3434 
L 328 3675 
z
M 763 3434 
Q 763 3219 886 3047 
Q 1009 2875 1266 2875 
Q 1516 2875 1637 3045 
Q 1759 3216 1759 3434 
L 1759 3675 
Q 1759 3894 1636 4067 
Q 1513 4241 1259 4241 
Q 1009 4241 886 4067 
Q 763 3894 763 3675 
L 763 3434 
z
M 3619 3903 
L 1397 347 
L 1072 553 
L 3294 4109 
L 3619 3903 
z
M 2544 1116 
Q 2544 1500 2794 1776 
Q 3044 2053 3475 2053 
Q 3913 2053 4161 1776 
Q 4409 1500 4409 1116 
L 4409 872 
Q 4409 488 4162 211 
Q 3916 -66 3481 -66 
Q 3044 -66 2794 211 
Q 2544 488 2544 872 
L 2544 1116 
z
M 2978 872 
Q 2978 653 3101 481 
Q 3225 309 3481 309 
Q 3734 309 3856 479 
Q 3978 650 3978 872 
L 3978 1116 
Q 3978 1338 3854 1508 
Q 3731 1678 3475 1678 
Q 3225 1678 3101 1508 
Q 2978 1338 2978 1116 
L 2978 872 
z
" transform="scale(0.015625)"/>
     </defs>
     <use xlink:href="#Roboto-Regular-35"/>
     <use xlink:href="#Roboto-Regular-38" transform="translate(56.201172 0)"/>
     <use xlink:href="#Roboto-Regular-2e" transform="translate(112.402344 0)"/>
     <use xlink:href="#Roboto-Regular-36" transform="translate(138.769531 0)"/>
     <use xlink:href="#Roboto-Regular-25" transform="translate(194.970703 0)"/>
    </g>
   </g>
   <g id="text_17">
    <!-- A -->
    <g style="fill: #262626" transform="translate(427.867294 236.642821) scale(0.132 -0.132)">
     <use xlink:href="#Roboto-Regular-41"/>
    </g>
   </g>
   <g id="text_18">
    <!-- 38.1% -->
    <g style="fill: #262626" transform="translate(401.881743 197.052881) scale(0.144 -0.144)">
     <use xlink:href="#Roboto-Regular-33"/>
     <use xlink:href="#Roboto-Regular-38" transform="translate(56.201172 0)"/>
     <use xlink:href="#Roboto-Regular-2e" transform="translate(112.402344 0)"/>
     <use xlink:href="#Roboto-Regular-31" transform="translate(138.769531 0)"/>
     <use xlink:href="#Roboto-Regular-25" transform="translate(194.970703 0)"/>
    </g>
   </g>
   <g id="text_19">
    <!-- V -->
    <g style="fill: #262626" transform="translate(501.73905 158.118934) scale(0.132 -0.132)">
     <use xlink:href="#Roboto-Regular-56"/>
    </g>
   </g>
   <g id="text_20">
    <!-- 3.3% -->
    <g style="fill: #262626" transform="translate(446.222053 154.221669) scale(0.144 -0.144)">
     <use xlink:href="#Roboto-Regular-33"/>
     <use xlink:href="#Roboto-Regular-2e" transform="translate(56.201172 0)"/>
     <use xlink:href="#Roboto-Regular-33" transform="translate(82.568359 0)"/>
     <use xlink:href="#Roboto-Regular-25" transform="translate(138.769531 0)"/>
    </g>
   </g>
  </g>
  <g id="axes_3">
   <g id="patch_16">
    <path d="M 636.373844 124.812742 
L 752.486489 124.812742 
L 752.486489 44.033894 
L 636.373844 44.033894 
z
" style="fill: #ffffff"/>
   </g>
   <g id="matplotlib.axis_5">
    <g id="xtick_7">
     <g id="line2d_13">
      <path d="M 636.373844 124.812742 
L 636.373844 44.033894 
" clip-path="url(#p1fb029fa8b)" style="fill: none; stroke: #cccccc; stroke-width: 0.8; stroke-linecap: round"/>
     </g>
    </g>
    <g id="xtick_8">
     <g id="line2d_14">
      <path d="M 706.204276 124.812742 
L 706.204276 44.033894 
" clip-path="url(#p1fb029fa8b)" style="fill: none; stroke: #cccccc; stroke-width: 0.8; stroke-linecap: round"/>
     </g>
    </g>
   </g>
   <g id="matplotlib.axis_6">
    <g id="ytick_7">
     <g id="line2d_15">
      <path d="M 636.373844 115.021367 
L 752.486489 115.021367 
" clip-path="url(#p1fb029fa8b)" style="fill: none; stroke: #cccccc; stroke-width: 0.8; stroke-linecap: round"/>
     </g>
     <g id="text_21">
      <!-- people crowd -->
      <g style="fill: #262626" transform="translate(548.962531 119.971367) scale(0.132 -0.132)">
       <defs>
        <path id="Roboto-Regular-63" d="M 1794 413 
Q 2103 413 2336 597 
Q 2569 781 2591 1069 
L 3141 1069 
Q 3119 616 2725 276 
Q 2331 -63 1794 -63 
Q 1031 -63 661 440 
Q 291 944 291 1625 
L 291 1756 
Q 291 2438 661 2941 
Q 1031 3444 1794 3444 
Q 2388 3444 2753 3092 
Q 3119 2741 3141 2219 
L 2591 2219 
Q 2569 2531 2355 2750 
Q 2141 2969 1794 2969 
Q 1438 2969 1236 2787 
Q 1034 2606 951 2328 
Q 869 2050 869 1756 
L 869 1625 
Q 869 1328 950 1050 
Q 1031 772 1232 592 
Q 1434 413 1794 413 
z
" transform="scale(0.015625)"/>
        <path id="Roboto-Regular-77" d="M 4659 3381 
L 3678 0 
L 3209 0 
L 2388 2559 
L 1588 0 
L 1116 0 
L 134 3381 
L 713 3381 
L 1378 856 
L 2166 3381 
L 2631 3381 
L 3431 803 
L 4084 3381 
L 4659 3381 
z
" transform="scale(0.015625)"/>
        <path id="Roboto-Regular-64" d="M 2622 0 
L 2594 363 
Q 2247 -63 1628 -63 
Q 1034 -63 668 418 
Q 303 900 297 1628 
L 297 1719 
Q 297 2494 664 2969 
Q 1031 3444 1634 3444 
Q 2231 3444 2572 3044 
L 2572 4800 
L 3153 4800 
L 3153 0 
L 2622 0 
z
M 878 1653 
Q 878 1150 1090 789 
Q 1303 428 1772 428 
Q 2309 428 2572 919 
L 2572 2475 
Q 2313 2956 1778 2956 
Q 1306 2956 1092 2589 
Q 878 2222 878 1719 
L 878 1653 
z
" transform="scale(0.015625)"/>
       </defs>
       <use xlink:href="#Roboto-Regular-70"/>
       <use xlink:href="#Roboto-Regular-65" transform="translate(56.152344 0)"/>
       <use xlink:href="#Roboto-Regular-6f" transform="translate(109.179688 0)"/>
       <use xlink:href="#Roboto-Regular-70" transform="translate(166.210938 0)"/>
       <use xlink:href="#Roboto-Regular-6c" transform="translate(222.363281 0)"/>
       <use xlink:href="#Roboto-Regular-65" transform="translate(246.679688 0)"/>
       <use xlink:href="#Roboto-Regular-20" transform="translate(299.707031 0)"/>
       <use xlink:href="#Roboto-Regular-63" transform="translate(324.511719 0)"/>
       <use xlink:href="#Roboto-Regular-72" transform="translate(376.855469 0)"/>
       <use xlink:href="#Roboto-Regular-6f" transform="translate(410.742188 0)"/>
       <use xlink:href="#Roboto-Regular-77" transform="translate(467.773438 0)"/>
       <use xlink:href="#Roboto-Regular-64" transform="translate(542.919922 0)"/>
      </g>
     </g>
    </g>
    <g id="ytick_8">
     <g id="line2d_16">
      <path d="M 636.373844 99.722342 
L 752.486489 99.722342 
" clip-path="url(#p1fb029fa8b)" style="fill: none; stroke: #cccccc; stroke-width: 0.8; stroke-linecap: round"/>
     </g>
     <g id="text_22">
      <!-- bird chirping -->
      <g style="fill: #262626" transform="translate(555.073719 104.672342) scale(0.132 -0.132)">
       <defs>
        <path id="Roboto-Regular-69" d="M 444 4278 
Q 444 4419 530 4516 
Q 616 4613 784 4613 
Q 950 4613 1039 4516 
Q 1128 4419 1128 4278 
Q 1128 4144 1039 4048 
Q 950 3953 784 3953 
Q 616 3953 530 4048 
Q 444 4144 444 4278 
z
M 1069 3381 
L 1069 0 
L 488 0 
L 488 3381 
L 1069 3381 
z
" transform="scale(0.015625)"/>
        <path id="Roboto-Regular-68" d="M 1844 2956 
Q 1566 2956 1353 2806 
Q 1141 2656 1019 2416 
L 1019 0 
L 441 0 
L 441 4800 
L 1019 4800 
L 1019 2978 
Q 1403 3444 2016 3444 
Q 2513 3444 2805 3166 
Q 3097 2888 3100 2231 
L 3100 0 
L 2519 0 
L 2519 2222 
Q 2519 2619 2345 2787 
Q 2172 2956 1844 2956 
z
" transform="scale(0.015625)"/>
        <path id="Roboto-Regular-6e" d="M 1844 2956 
Q 1566 2956 1353 2806 
Q 1141 2656 1019 2416 
L 1019 0 
L 441 0 
L 441 3381 
L 988 3381 
L 1006 2959 
Q 1391 3444 2016 3444 
Q 2513 3444 2805 3166 
Q 3097 2888 3100 2231 
L 3100 0 
L 2519 0 
L 2519 2222 
Q 2519 2619 2345 2787 
Q 2172 2956 1844 2956 
z
" transform="scale(0.015625)"/>
        <path id="Roboto-Regular-67" d="M 1725 -1334 
Q 1463 -1334 1081 -1206 
Q 700 -1078 472 -747 
L 775 -403 
Q 1150 -859 1681 -859 
Q 2091 -859 2334 -629 
Q 2578 -400 2578 44 
L 2578 341 
Q 2234 -63 1631 -63 
Q 1022 -63 662 425 
Q 303 913 303 1653 
L 303 1719 
Q 303 2494 661 2969 
Q 1019 3444 1638 3444 
Q 2259 3444 2603 3006 
L 2631 3381 
L 3156 3381 
L 3156 72 
Q 3156 -600 2756 -967 
Q 2356 -1334 1725 -1334 
z
M 881 1653 
Q 881 1150 1092 789 
Q 1303 428 1772 428 
Q 2322 428 2578 928 
L 2578 2469 
Q 2469 2678 2275 2817 
Q 2081 2956 1778 2956 
Q 1306 2956 1093 2589 
Q 881 2222 881 1719 
L 881 1653 
z
" transform="scale(0.015625)"/>
       </defs>
       <use xlink:href="#Roboto-Regular-62"/>
       <use xlink:href="#Roboto-Regular-69" transform="translate(56.152344 0)"/>
       <use xlink:href="#Roboto-Regular-72" transform="translate(80.46875 0)"/>
       <use xlink:href="#Roboto-Regular-64" transform="translate(114.355469 0)"/>
       <use xlink:href="#Roboto-Regular-20" transform="translate(170.751953 0)"/>
       <use xlink:href="#Roboto-Regular-63" transform="translate(195.556641 0)"/>
       <use xlink:href="#Roboto-Regular-68" transform="translate(247.900391 0)"/>
       <use xlink:href="#Roboto-Regular-69" transform="translate(302.978516 0)"/>
       <use xlink:href="#Roboto-Regular-72" transform="translate(327.294922 0)"/>
       <use xlink:href="#Roboto-Regular-70" transform="translate(361.181641 0)"/>
       <use xlink:href="#Roboto-Regular-69" transform="translate(417.333984 0)"/>
       <use xlink:href="#Roboto-Regular-6e" transform="translate(441.650391 0)"/>
       <use xlink:href="#Roboto-Regular-67" transform="translate(496.875 0)"/>
      </g>
     </g>
    </g>
    <g id="ytick_9">
     <g id="line2d_17">
      <path d="M 636.373844 84.423318 
L 752.486489 84.423318 
" clip-path="url(#p1fb029fa8b)" style="fill: none; stroke: #cccccc; stroke-width: 0.8; stroke-linecap: round"/>
     </g>
     <g id="text_23">
      <!-- wind noise -->
      <g style="fill: #262626" transform="translate(565.099531 89.373318) scale(0.132 -0.132)">
       <use xlink:href="#Roboto-Regular-77"/>
       <use xlink:href="#Roboto-Regular-69" transform="translate(75.146484 0)"/>
       <use xlink:href="#Roboto-Regular-6e" transform="translate(99.462891 0)"/>
       <use xlink:href="#Roboto-Regular-64" transform="translate(154.6875 0)"/>
       <use xlink:href="#Roboto-Regular-20" transform="translate(211.083984 0)"/>
       <use xlink:href="#Roboto-Regular-6e" transform="translate(235.888672 0)"/>
       <use xlink:href="#Roboto-Regular-6f" transform="translate(291.113281 0)"/>
       <use xlink:href="#Roboto-Regular-69" transform="translate(348.144531 0)"/>
       <use xlink:href="#Roboto-Regular-73" transform="translate(372.460938 0)"/>
       <use xlink:href="#Roboto-Regular-65" transform="translate(424.072266 0)"/>
      </g>
     </g>
    </g>
    <g id="ytick_10">
     <g id="line2d_18">
      <path d="M 636.373844 69.124294 
L 752.486489 69.124294 
" clip-path="url(#p1fb029fa8b)" style="fill: none; stroke: #cccccc; stroke-width: 0.8; stroke-linecap: round"/>
     </g>
     <g id="text_24">
      <!-- female speech -->
      <g style="fill: #262626" transform="translate(541.838656 74.142357) scale(0.132 -0.132)">
       <use xlink:href="#Roboto-Regular-66"/>
       <use xlink:href="#Roboto-Regular-65" transform="translate(34.765625 0)"/>
       <use xlink:href="#Roboto-Regular-6d" transform="translate(87.792969 0)"/>
       <use xlink:href="#Roboto-Regular-61" transform="translate(175.488281 0)"/>
       <use xlink:href="#Roboto-Regular-6c" transform="translate(229.882812 0)"/>
       <use xlink:href="#Roboto-Regular-65" transform="translate(254.199219 0)"/>
       <use xlink:href="#Roboto-Regular-20" transform="translate(307.226562 0)"/>
       <use xlink:href="#Roboto-Regular-73" transform="translate(332.03125 0)"/>
       <use xlink:href="#Roboto-Regular-70" transform="translate(383.642578 0)"/>
       <use xlink:href="#Roboto-Regular-65" transform="translate(439.794922 0)"/>
       <use xlink:href="#Roboto-Regular-65" transform="translate(492.822266 0)"/>
       <use xlink:href="#Roboto-Regular-63" transform="translate(545.849609 0)"/>
       <use xlink:href="#Roboto-Regular-68" transform="translate(598.193359 0)"/>
      </g>
     </g>
    </g>
    <g id="ytick_11">
     <g id="line2d_19">
      <path d="M 636.373844 53.82527 
L 752.486489 53.82527 
" clip-path="url(#p1fb029fa8b)" style="fill: none; stroke: #cccccc; stroke-width: 0.8; stroke-linecap: round"/>
     </g>
     <g id="text_25">
      <!-- male speech -->
      <g style="fill: #262626" transform="translate(553.427844 58.77527) scale(0.132 -0.132)">
       <use xlink:href="#Roboto-Regular-6d"/>
       <use xlink:href="#Roboto-Regular-61" transform="translate(87.695312 0)"/>
       <use xlink:href="#Roboto-Regular-6c" transform="translate(142.089844 0)"/>
       <use xlink:href="#Roboto-Regular-65" transform="translate(166.40625 0)"/>
       <use xlink:href="#Roboto-Regular-20" transform="translate(219.433594 0)"/>
       <use xlink:href="#Roboto-Regular-73" transform="translate(244.238281 0)"/>
       <use xlink:href="#Roboto-Regular-70" transform="translate(295.849609 0)"/>
       <use xlink:href="#Roboto-Regular-65" transform="translate(352.001953 0)"/>
       <use xlink:href="#Roboto-Regular-65" transform="translate(405.029297 0)"/>
       <use xlink:href="#Roboto-Regular-63" transform="translate(458.056641 0)"/>
       <use xlink:href="#Roboto-Regular-68" transform="translate(510.400391 0)"/>
      </g>
     </g>
    </g>
   </g>
   <g id="patch_17">
    <path d="M 636.373844 121.140976 
L 656.624669 121.140976 
L 656.624669 108.901757 
L 636.373844 108.901757 
z
" clip-path="url(#p1fb029fa8b)" style="fill: #4c72b0; stroke: #ffffff; stroke-width: 0.8; stroke-linejoin: miter"/>
   </g>
   <g id="patch_18">
    <path d="M 636.373844 105.841952 
L 664.333949 105.841952 
L 664.333949 93.602733 
L 636.373844 93.602733 
z
" clip-path="url(#p1fb029fa8b)" style="fill: #4c72b0; stroke: #ffffff; stroke-width: 0.8; stroke-linejoin: miter"/>
   </g>
   <g id="patch_19">
    <path d="M 636.373844 90.542928 
L 667.127166 90.542928 
L 667.127166 78.303709 
L 636.373844 78.303709 
z
" clip-path="url(#p1fb029fa8b)" style="fill: #4c72b0; stroke: #ffffff; stroke-width: 0.8; stroke-linejoin: miter"/>
   </g>
   <g id="patch_20">
    <path d="M 636.373844 75.243904 
L 682.3502 75.243904 
L 682.3502 63.004684 
L 636.373844 63.004684 
z
" clip-path="url(#p1fb029fa8b)" style="fill: #4c72b0; stroke: #ffffff; stroke-width: 0.8; stroke-linejoin: miter"/>
   </g>
   <g id="patch_21">
    <path d="M 636.373844 59.94488 
L 746.957316 59.94488 
L 746.957316 47.70566 
L 636.373844 47.70566 
z
" clip-path="url(#p1fb029fa8b)" style="fill: #4c72b0; stroke: #ffffff; stroke-width: 0.8; stroke-linejoin: miter"/>
   </g>
   <g id="patch_22">
    <path d="M 636.373844 124.812742 
L 636.373844 44.033894 
" style="fill: none; stroke: #cccccc; stroke-linejoin: miter; stroke-linecap: square"/>
   </g>
   <g id="patch_23">
    <path d="M 752.486489 124.812742 
L 752.486489 44.033894 
" style="fill: none; stroke: #cccccc; stroke-linejoin: miter; stroke-linecap: square"/>
   </g>
   <g id="patch_24">
    <path d="M 636.373844 124.812742 
L 752.486489 124.812742 
" style="fill: none; stroke: #cccccc; stroke-linejoin: miter; stroke-linecap: square"/>
   </g>
   <g id="patch_25">
    <path d="M 636.373844 44.033894 
L 752.486489 44.033894 
" style="fill: none; stroke: #cccccc; stroke-linejoin: miter; stroke-linecap: square"/>
   </g>
   <g id="text_26">
    <!-- Audible -->
    <g style="fill: #262626" transform="translate(670.341667 38.033894) scale(0.144 -0.144)">
     <use xlink:href="#Roboto-Regular-41"/>
     <use xlink:href="#Roboto-Regular-75" transform="translate(65.234375 0)"/>
     <use xlink:href="#Roboto-Regular-64" transform="translate(120.361328 0)"/>
     <use xlink:href="#Roboto-Regular-69" transform="translate(176.757812 0)"/>
     <use xlink:href="#Roboto-Regular-62" transform="translate(201.074219 0)"/>
     <use xlink:href="#Roboto-Regular-6c" transform="translate(257.226562 0)"/>
     <use xlink:href="#Roboto-Regular-65" transform="translate(281.542969 0)"/>
    </g>
   </g>
  </g>
  <g id="axes_4">
   <g id="patch_26">
    <path d="M 636.373844 246.39351 
L 752.486489 246.39351 
L 752.486489 165.614662 
L 636.373844 165.614662 
z
" style="fill: #ffffff"/>
   </g>
   <g id="matplotlib.axis_7">
    <g id="xtick_9">
     <g id="line2d_20">
      <path d="M 636.373844 246.39351 
L 636.373844 165.614662 
" clip-path="url(#p31cb2ff574)" style="fill: none; stroke: #cccccc; stroke-width: 0.8; stroke-linecap: round"/>
     </g>
     <g id="text_27">
      <!-- 0 -->
      <g style="fill: #262626" transform="translate(632.664438 264.59351) scale(0.132 -0.132)">
       <use xlink:href="#Roboto-Regular-30"/>
      </g>
     </g>
    </g>
    <g id="xtick_10">
     <g id="line2d_21">
      <path d="M 706.204276 246.39351 
L 706.204276 165.614662 
" clip-path="url(#p31cb2ff574)" style="fill: none; stroke: #cccccc; stroke-width: 0.8; stroke-linecap: round"/>
     </g>
     <g id="text_28">
      <!-- 2500 -->
      <g style="fill: #262626" transform="translate(691.366651 264.59351) scale(0.132 -0.132)">
       <use xlink:href="#Roboto-Regular-32"/>
       <use xlink:href="#Roboto-Regular-35" transform="translate(56.201172 0)"/>
       <use xlink:href="#Roboto-Regular-30" transform="translate(112.402344 0)"/>
       <use xlink:href="#Roboto-Regular-30" transform="translate(168.603516 0)"/>
      </g>
     </g>
    </g>
    <g id="text_29">
     <!-- Number of labels -->
     <g style="fill: #262626" transform="translate(639.531292 282.07476) scale(0.144 -0.144)">
      <use xlink:href="#Roboto-Regular-4e"/>
      <use xlink:href="#Roboto-Regular-75" transform="translate(71.337891 0)"/>
      <use xlink:href="#Roboto-Regular-6d" transform="translate(126.464844 0)"/>
      <use xlink:href="#Roboto-Regular-62" transform="translate(214.160156 0)"/>
      <use xlink:href="#Roboto-Regular-65" transform="translate(270.3125 0)"/>
      <use xlink:href="#Roboto-Regular-72" transform="translate(323.339844 0)"/>
      <use xlink:href="#Roboto-Regular-20" transform="translate(357.226562 0)"/>
      <use xlink:href="#Roboto-Regular-6f" transform="translate(382.03125 0)"/>
      <use xlink:href="#Roboto-Regular-66" transform="translate(439.0625 0)"/>
      <use xlink:href="#Roboto-Regular-20" transform="translate(473.828125 0)"/>
      <use xlink:href="#Roboto-Regular-6c" transform="translate(498.632812 0)"/>
      <use xlink:href="#Roboto-Regular-61" transform="translate(522.949219 0)"/>
      <use xlink:href="#Roboto-Regular-62" transform="translate(577.34375 0)"/>
      <use xlink:href="#Roboto-Regular-65" transform="translate(633.496094 0)"/>
      <use xlink:href="#Roboto-Regular-6c" transform="translate(686.523438 0)"/>
      <use xlink:href="#Roboto-Regular-73" transform="translate(710.839844 0)"/>
     </g>
    </g>
   </g>
   <g id="matplotlib.axis_8">
    <g id="ytick_12">
     <g id="line2d_22">
      <path d="M 636.373844 236.602135 
L 752.486489 236.602135 
" clip-path="url(#p31cb2ff574)" style="fill: none; stroke: #cccccc; stroke-width: 0.8; stroke-linecap: round"/>
     </g>
     <g id="text_30">
      <!-- splashing water -->
      <g style="fill: #262626" transform="translate(535.300531 241.552135) scale(0.132 -0.132)">
       <defs>
        <path id="Roboto-Regular-74" d="M 1872 0 
Q 1675 -63 1425 -63 
Q 1103 -63 875 134 
Q 647 331 647 841 
L 647 2938 
L 28 2938 
L 28 3381 
L 647 3381 
L 647 4203 
L 1225 4203 
L 1225 3381 
L 1856 3381 
L 1856 2938 
L 1225 2938 
L 1225 838 
Q 1225 578 1337 506 
Q 1450 434 1597 434 
Q 1706 434 1869 472 
L 1872 0 
z
" transform="scale(0.015625)"/>
       </defs>
       <use xlink:href="#Roboto-Regular-73"/>
       <use xlink:href="#Roboto-Regular-70" transform="translate(51.611328 0)"/>
       <use xlink:href="#Roboto-Regular-6c" transform="translate(107.763672 0)"/>
       <use xlink:href="#Roboto-Regular-61" transform="translate(132.080078 0)"/>
       <use xlink:href="#Roboto-Regular-73" transform="translate(186.474609 0)"/>
       <use xlink:href="#Roboto-Regular-68" transform="translate(238.085938 0)"/>
       <use xlink:href="#Roboto-Regular-69" transform="translate(293.164062 0)"/>
       <use xlink:href="#Roboto-Regular-6e" transform="translate(317.480469 0)"/>
       <use xlink:href="#Roboto-Regular-67" transform="translate(372.705078 0)"/>
       <use xlink:href="#Roboto-Regular-20" transform="translate(428.857422 0)"/>
       <use xlink:href="#Roboto-Regular-77" transform="translate(453.662109 0)"/>
       <use xlink:href="#Roboto-Regular-61" transform="translate(528.808594 0)"/>
       <use xlink:href="#Roboto-Regular-74" transform="translate(583.203125 0)"/>
       <use xlink:href="#Roboto-Regular-65" transform="translate(615.917969 0)"/>
       <use xlink:href="#Roboto-Regular-72" transform="translate(668.945312 0)"/>
      </g>
     </g>
    </g>
    <g id="ytick_13">
     <g id="line2d_23">
      <path d="M 636.373844 221.30311 
L 752.486489 221.30311 
" clip-path="url(#p31cb2ff574)" style="fill: none; stroke: #cccccc; stroke-width: 0.8; stroke-linecap: round"/>
     </g>
     <g id="text_31">
      <!-- bird chirping -->
      <g style="fill: #262626" transform="translate(555.073719 226.25311) scale(0.132 -0.132)">
       <use xlink:href="#Roboto-Regular-62"/>
       <use xlink:href="#Roboto-Regular-69" transform="translate(56.152344 0)"/>
       <use xlink:href="#Roboto-Regular-72" transform="translate(80.46875 0)"/>
       <use xlink:href="#Roboto-Regular-64" transform="translate(114.355469 0)"/>
       <use xlink:href="#Roboto-Regular-20" transform="translate(170.751953 0)"/>
       <use xlink:href="#Roboto-Regular-63" transform="translate(195.556641 0)"/>
       <use xlink:href="#Roboto-Regular-68" transform="translate(247.900391 0)"/>
       <use xlink:href="#Roboto-Regular-69" transform="translate(302.978516 0)"/>
       <use xlink:href="#Roboto-Regular-72" transform="translate(327.294922 0)"/>
       <use xlink:href="#Roboto-Regular-70" transform="translate(361.181641 0)"/>
       <use xlink:href="#Roboto-Regular-69" transform="translate(417.333984 0)"/>
       <use xlink:href="#Roboto-Regular-6e" transform="translate(441.650391 0)"/>
       <use xlink:href="#Roboto-Regular-67" transform="translate(496.875 0)"/>
      </g>
     </g>
    </g>
    <g id="ytick_14">
     <g id="line2d_24">
      <path d="M 636.373844 206.004086 
L 752.486489 206.004086 
" clip-path="url(#p31cb2ff574)" style="fill: none; stroke: #cccccc; stroke-width: 0.8; stroke-linecap: round"/>
     </g>
     <g id="text_32">
      <!-- female speech -->
      <g style="fill: #262626" transform="translate(541.838656 211.022149) scale(0.132 -0.132)">
       <use xlink:href="#Roboto-Regular-66"/>
       <use xlink:href="#Roboto-Regular-65" transform="translate(34.765625 0)"/>
       <use xlink:href="#Roboto-Regular-6d" transform="translate(87.792969 0)"/>
       <use xlink:href="#Roboto-Regular-61" transform="translate(175.488281 0)"/>
       <use xlink:href="#Roboto-Regular-6c" transform="translate(229.882812 0)"/>
       <use xlink:href="#Roboto-Regular-65" transform="translate(254.199219 0)"/>
       <use xlink:href="#Roboto-Regular-20" transform="translate(307.226562 0)"/>
       <use xlink:href="#Roboto-Regular-73" transform="translate(332.03125 0)"/>
       <use xlink:href="#Roboto-Regular-70" transform="translate(383.642578 0)"/>
       <use xlink:href="#Roboto-Regular-65" transform="translate(439.794922 0)"/>
       <use xlink:href="#Roboto-Regular-65" transform="translate(492.822266 0)"/>
       <use xlink:href="#Roboto-Regular-63" transform="translate(545.849609 0)"/>
       <use xlink:href="#Roboto-Regular-68" transform="translate(598.193359 0)"/>
      </g>
     </g>
    </g>
    <g id="ytick_15">
     <g id="line2d_25">
      <path d="M 636.373844 190.705062 
L 752.486489 190.705062 
" clip-path="url(#p31cb2ff574)" style="fill: none; stroke: #cccccc; stroke-width: 0.8; stroke-linecap: round"/>
     </g>
     <g id="text_33">
      <!-- people crowd -->
      <g style="fill: #262626" transform="translate(548.962531 195.655062) scale(0.132 -0.132)">
       <use xlink:href="#Roboto-Regular-70"/>
       <use xlink:href="#Roboto-Regular-65" transform="translate(56.152344 0)"/>
       <use xlink:href="#Roboto-Regular-6f" transform="translate(109.179688 0)"/>
       <use xlink:href="#Roboto-Regular-70" transform="translate(166.210938 0)"/>
       <use xlink:href="#Roboto-Regular-6c" transform="translate(222.363281 0)"/>
       <use xlink:href="#Roboto-Regular-65" transform="translate(246.679688 0)"/>
       <use xlink:href="#Roboto-Regular-20" transform="translate(299.707031 0)"/>
       <use xlink:href="#Roboto-Regular-63" transform="translate(324.511719 0)"/>
       <use xlink:href="#Roboto-Regular-72" transform="translate(376.855469 0)"/>
       <use xlink:href="#Roboto-Regular-6f" transform="translate(410.742188 0)"/>
       <use xlink:href="#Roboto-Regular-77" transform="translate(467.773438 0)"/>
       <use xlink:href="#Roboto-Regular-64" transform="translate(542.919922 0)"/>
      </g>
     </g>
    </g>
    <g id="ytick_16">
     <g id="line2d_26">
      <path d="M 636.373844 175.406038 
L 752.486489 175.406038 
" clip-path="url(#p31cb2ff574)" style="fill: none; stroke: #cccccc; stroke-width: 0.8; stroke-linecap: round"/>
     </g>
     <g id="text_34">
      <!-- male speech -->
      <g style="fill: #262626" transform="translate(553.427844 180.356038) scale(0.132 -0.132)">
       <use xlink:href="#Roboto-Regular-6d"/>
       <use xlink:href="#Roboto-Regular-61" transform="translate(87.695312 0)"/>
       <use xlink:href="#Roboto-Regular-6c" transform="translate(142.089844 0)"/>
       <use xlink:href="#Roboto-Regular-65" transform="translate(166.40625 0)"/>
       <use xlink:href="#Roboto-Regular-20" transform="translate(219.433594 0)"/>
       <use xlink:href="#Roboto-Regular-73" transform="translate(244.238281 0)"/>
       <use xlink:href="#Roboto-Regular-70" transform="translate(295.849609 0)"/>
       <use xlink:href="#Roboto-Regular-65" transform="translate(352.001953 0)"/>
       <use xlink:href="#Roboto-Regular-65" transform="translate(405.029297 0)"/>
       <use xlink:href="#Roboto-Regular-63" transform="translate(458.056641 0)"/>
       <use xlink:href="#Roboto-Regular-68" transform="translate(510.400391 0)"/>
      </g>
     </g>
    </g>
   </g>
   <g id="patch_27">
    <path d="M 636.373844 242.721744 
L 647.071866 242.721744 
L 647.071866 230.482525 
L 636.373844 230.482525 
z
" clip-path="url(#p31cb2ff574)" style="fill: #4c72b0; stroke: #ffffff; stroke-width: 0.8; stroke-linejoin: miter"/>
   </g>
   <g id="patch_28">
    <path d="M 636.373844 227.42272 
L 649.474033 227.42272 
L 649.474033 215.183501 
L 636.373844 215.183501 
z
" clip-path="url(#p31cb2ff574)" style="fill: #4c72b0; stroke: #ffffff; stroke-width: 0.8; stroke-linejoin: miter"/>
   </g>
   <g id="patch_29">
    <path d="M 636.373844 212.123696 
L 653.775588 212.123696 
L 653.775588 199.884476 
L 636.373844 199.884476 
z
" clip-path="url(#p31cb2ff574)" style="fill: #4c72b0; stroke: #ffffff; stroke-width: 0.8; stroke-linejoin: miter"/>
   </g>
   <g id="patch_30">
    <path d="M 636.373844 196.824672 
L 653.943181 196.824672 
L 653.943181 184.585452 
L 636.373844 184.585452 
z
" clip-path="url(#p31cb2ff574)" style="fill: #4c72b0; stroke: #ffffff; stroke-width: 0.8; stroke-linejoin: miter"/>
   </g>
   <g id="patch_31">
    <path d="M 636.373844 181.525647 
L 680.199423 181.525647 
L 680.199423 169.286428 
L 636.373844 169.286428 
z
" clip-path="url(#p31cb2ff574)" style="fill: #4c72b0; stroke: #ffffff; stroke-width: 0.8; stroke-linejoin: miter"/>
   </g>
   <g id="patch_32">
    <path d="M 636.373844 246.39351 
L 636.373844 165.614662 
" style="fill: none; stroke: #cccccc; stroke-linejoin: miter; stroke-linecap: square"/>
   </g>
   <g id="patch_33">
    <path d="M 752.486489 246.39351 
L 752.486489 165.614662 
" style="fill: none; stroke: #cccccc; stroke-linejoin: miter; stroke-linecap: square"/>
   </g>
   <g id="patch_34">
    <path d="M 636.373844 246.39351 
L 752.486489 246.39351 
" style="fill: none; stroke: #cccccc; stroke-linejoin: miter; stroke-linecap: square"/>
   </g>
   <g id="patch_35">
    <path d="M 636.373844 165.614662 
L 752.486489 165.614662 
" style="fill: none; stroke: #cccccc; stroke-linejoin: miter; stroke-linecap: square"/>
   </g>
   <g id="text_35">
    <!-- Visible -->
    <g style="fill: #262626" transform="translate(673.016917 159.614662) scale(0.144 -0.144)">
     <use xlink:href="#Roboto-Regular-56"/>
     <use xlink:href="#Roboto-Regular-69" transform="translate(63.671875 0)"/>
     <use xlink:href="#Roboto-Regular-73" transform="translate(87.988281 0)"/>
     <use xlink:href="#Roboto-Regular-69" transform="translate(139.599609 0)"/>
     <use xlink:href="#Roboto-Regular-62" transform="translate(163.916016 0)"/>
     <use xlink:href="#Roboto-Regular-6c" transform="translate(220.068359 0)"/>
     <use xlink:href="#Roboto-Regular-65" transform="translate(244.384766 0)"/>
    </g>
   </g>
  </g>
  <g id="axes_5">
   <g id="patch_36">
    <path d="M 875.439889 82.022677 
C 869.053151 75.763316 861.34366 71.01466 852.880122 68.127003 
C 844.416585 65.239347 835.412356 64.285486 826.531652 65.335782 
C 817.650948 66.386079 809.117641 69.414057 801.561207 74.196351 
C 794.004773 78.978645 787.615702 85.394699 782.865296 92.97122 
C 778.11489 100.547741 775.122902 109.093734 774.110042 117.978786 
C 773.097182 126.863837 774.088982 135.863966 777.012281 144.315259 
C 779.93558 152.766552 784.716685 160.455961 791.002908 166.816263 
C 797.28913 173.176564 804.922002 178.047422 813.338468 181.069526 
C 813.450138 175.261031 814.721685 169.533016 817.078217 164.222851 
C 819.434749 158.912686 822.829075 154.126713 827.061274 150.146816 
C 831.293474 146.166919 836.278794 143.0728 841.723608 141.046697 
C 847.168421 139.020594 852.963692 138.10308 858.768087 138.348198 
C 856.400418 128.321558 856.693142 117.848148 859.617152 107.969407 
C 862.541162 98.090667 867.996219 89.145256 875.439889 82.022677 
" clip-path="url(#p3b6df39558)" style="fill: #4c72b0; opacity: 0.4"/>
   </g>
   <g id="patch_37">
    <path d="M 875.439889 82.022677 
C 884.379549 90.784047 890.348482 102.133629 892.501441 114.464238 
C 894.6544 126.794846 892.884726 139.495611 887.443017 150.768008 
C 891.566417 154.80863 894.846477 159.628312 897.092383 164.946673 
C 899.338289 170.265033 900.505628 175.976902 900.526491 181.749996 
C 910.498068 184.514872 921.022811 184.61503 931.045201 182.040426 
C 941.067591 179.465822 950.240994 174.305501 957.645418 167.076988 
C 965.049841 159.848475 970.429194 150.801774 973.243988 140.844173 
C 976.058781 130.886571 976.211662 120.362462 973.687297 110.327301 
C 971.162932 100.292139 966.04863 91.093 958.8573 83.652459 
C 951.66597 76.211917 942.64633 70.787312 932.702955 67.922671 
C 922.759579 65.058031 912.236368 64.852432 902.188686 67.326494 
C 892.141005 69.800556 882.916361 74.868711 875.439889 82.022677 
" clip-path="url(#p3b6df39558)" style="fill: #dd8452; opacity: 0.4"/>
   </g>
   <g id="patch_38">
    <path d="M 875.439889 82.022677 
C 867.996219 89.145256 862.541162 98.090667 859.617152 107.969407 
C 856.693142 117.848148 856.400418 128.321558 858.768087 138.348198 
C 864.104837 138.573566 869.355014 139.777789 874.256517 141.90075 
C 879.158019 144.02371 883.627902 147.029481 887.443017 150.768008 
C 892.884726 139.495611 894.6544 126.794846 892.501441 114.464238 
C 890.348482 102.133629 884.379549 90.784047 875.439889 82.022677 
" clip-path="url(#p3b6df39558)" style="fill: #d0acb5; opacity: 0.4"/>
   </g>
   <g id="patch_39">
    <path d="M 813.338468 181.069526 
C 813.227614 186.835607 814.261956 192.56679 816.381443 197.930347 
C 818.50093 203.293905 821.663737 208.183994 825.686246 212.316716 
C 829.708755 216.449439 834.511586 219.743241 839.815908 222.006899 
C 845.120229 224.270557 850.821367 225.4594 856.588338 225.504409 
C 862.355308 225.549418 868.074307 224.449705 873.413315 222.269114 
C 878.752322 220.088523 883.605979 216.870087 887.692502 212.800652 
C 891.779026 208.731217 895.017774 203.89109 897.220719 198.561268 
C 899.423664 193.231445 900.547333 187.517105 900.526491 181.749996 
C 895.83871 180.450189 891.329148 178.576976 887.100088 176.172846 
C 882.871028 173.768716 878.954686 170.851983 875.439889 167.4888 
C 867.410881 175.357679 857.324412 180.806695 846.341885 183.208422 
C 835.359357 185.61015 823.919124 184.868727 813.338468 181.069526 
" clip-path="url(#p3b6df39558)" style="fill: #55a868; opacity: 0.4"/>
   </g>
   <g id="patch_40">
    <path d="M 813.338468 181.069526 
C 823.919124 184.868727 835.359357 185.61015 846.341885 183.208422 
C 857.324412 180.806695 867.410881 175.357679 875.439889 167.4888 
C 871.333674 163.559712 867.815133 159.059209 864.992922 154.126273 
C 862.170711 149.193338 860.074185 143.879277 858.768087 138.348198 
C 852.963692 138.10308 847.168421 139.020594 841.723608 141.046697 
C 836.278794 143.0728 831.293474 146.166919 827.061274 150.146816 
C 822.829075 154.126713 819.434749 158.912686 817.078217 164.222851 
C 814.721685 169.533016 813.450138 175.261031 813.338468 181.069526 
" clip-path="url(#p3b6df39558)" style="fill: #71c5c4; opacity: 0.4"/>
   </g>
   <g id="patch_41">
    <path d="M 887.443017 150.768008 
C 885.943256 153.874736 884.177618 156.845948 882.165848 159.648416 
C 880.154078 162.450884 877.903703 165.074124 875.439889 167.4888 
C 878.954686 170.851983 882.871028 173.768716 887.100088 176.172846 
C 891.329148 178.576976 895.83871 180.450189 900.526491 181.749996 
C 900.505628 175.976902 899.338289 170.265033 897.092383 164.946673 
C 894.846477 159.628312 891.566417 154.80863 887.443017 150.768008 
" clip-path="url(#p3b6df39558)" style="fill: #d6d282; opacity: 0.4"/>
   </g>
   <g id="patch_42">
    <path d="M 858.768087 138.348198 
C 860.074185 143.879277 862.170711 149.193338 864.992922 154.126273 
C 867.815133 159.059209 871.333674 163.559712 875.439889 167.4888 
C 877.903703 165.074124 880.154078 162.450884 882.165848 159.648416 
C 884.177618 156.845948 885.943256 153.874736 887.443017 150.768008 
C 883.627902 147.029481 879.158019 144.02371 874.256517 141.90075 
C 869.355014 139.777789 864.104837 138.573566 858.768087 138.348198 
" clip-path="url(#p3b6df39558)" style="fill: #99a691; opacity: 0.4"/>
   </g>
   <g id="text_36">
    <!-- 12.8% -->
    <g style="fill: #262626" transform="translate(787.759006 114.105854) scale(0.144 -0.144)">
     <use xlink:href="#Roboto-Regular-31"/>
     <use xlink:href="#Roboto-Regular-32" transform="translate(56.201172 0)"/>
     <use xlink:href="#Roboto-Regular-2e" transform="translate(112.402344 0)"/>
     <use xlink:href="#Roboto-Regular-38" transform="translate(138.769531 0)"/>
     <use xlink:href="#Roboto-Regular-25" transform="translate(194.970703 0)"/>
    </g>
   </g>
   <g id="text_37">
    <!-- 15.1% -->
    <g style="fill: #262626" transform="translate(928.338272 122.056376) scale(0.144 -0.144)">
     <use xlink:href="#Roboto-Regular-31"/>
     <use xlink:href="#Roboto-Regular-35" transform="translate(56.201172 0)"/>
     <use xlink:href="#Roboto-Regular-2e" transform="translate(112.402344 0)"/>
     <use xlink:href="#Roboto-Regular-31" transform="translate(138.769531 0)"/>
     <use xlink:href="#Roboto-Regular-25" transform="translate(194.970703 0)"/>
    </g>
   </g>
   <g id="text_38">
    <!-- 3.2% -->
    <g style="fill: #262626" transform="translate(861.476955 122.829824) scale(0.144 -0.144)">
     <use xlink:href="#Roboto-Regular-33"/>
     <use xlink:href="#Roboto-Regular-2e" transform="translate(56.201172 0)"/>
     <use xlink:href="#Roboto-Regular-32" transform="translate(82.568359 0)"/>
     <use xlink:href="#Roboto-Regular-25" transform="translate(138.769531 0)"/>
    </g>
   </g>
   <g id="text_39">
    <!-- 5.6% -->
    <g style="fill: #262626" transform="translate(842.067672 214.436064) scale(0.144 -0.144)">
     <use xlink:href="#Roboto-Regular-35"/>
     <use xlink:href="#Roboto-Regular-2e" transform="translate(56.201172 0)"/>
     <use xlink:href="#Roboto-Regular-36" transform="translate(82.568359 0)"/>
     <use xlink:href="#Roboto-Regular-25" transform="translate(138.769531 0)"/>
    </g>
   </g>
   <g id="text_40">
    <!-- 3.6% -->
    <g style="fill: #262626" transform="translate(824.997159 166.038317) scale(0.144 -0.144)">
     <use xlink:href="#Roboto-Regular-33"/>
     <use xlink:href="#Roboto-Regular-2e" transform="translate(56.201172 0)"/>
     <use xlink:href="#Roboto-Regular-36" transform="translate(82.568359 0)"/>
     <use xlink:href="#Roboto-Regular-25" transform="translate(138.769531 0)"/>
    </g>
   </g>
   <g id="text_41">
    <!-- 0.9% -->
    <g style="fill: #262626" transform="translate(875.640756 171.154252) scale(0.144 -0.144)">
     <defs>
      <path id="Roboto-Regular-39" d="M 3175 2563 
Q 3175 2119 3098 1667 
Q 3022 1216 2801 836 
Q 2581 456 2151 225 
Q 1722 -6 953 -6 
L 953 484 
Q 1644 484 1980 700 
Q 2316 916 2448 1264 
Q 2581 1613 2597 2006 
Q 2416 1791 2162 1656 
Q 1909 1522 1613 1522 
Q 1163 1522 875 1747 
Q 588 1972 450 2320 
Q 313 2669 313 3041 
Q 313 3691 670 4152 
Q 1028 4613 1725 4613 
Q 2244 4613 2564 4344 
Q 2884 4075 3029 3653 
Q 3175 3231 3175 2772 
L 3175 2563 
z
M 881 3072 
Q 881 2666 1086 2334 
Q 1291 2003 1706 2003 
Q 2003 2003 2245 2181 
Q 2488 2359 2600 2622 
L 2600 2850 
Q 2600 3472 2336 3803 
Q 2072 4134 1725 4134 
Q 1322 4134 1101 3829 
Q 881 3525 881 3072 
z
" transform="scale(0.015625)"/>
     </defs>
     <use xlink:href="#Roboto-Regular-30"/>
     <use xlink:href="#Roboto-Regular-2e" transform="translate(56.201172 0)"/>
     <use xlink:href="#Roboto-Regular-39" transform="translate(82.568359 0)"/>
     <use xlink:href="#Roboto-Regular-25" transform="translate(138.769531 0)"/>
    </g>
   </g>
   <g id="text_42">
    <!-- 0.6% -->
    <g style="fill: #262626" transform="translate(857.420304 153.800483) scale(0.144 -0.144)">
     <use xlink:href="#Roboto-Regular-30"/>
     <use xlink:href="#Roboto-Regular-2e" transform="translate(56.201172 0)"/>
     <use xlink:href="#Roboto-Regular-36" transform="translate(82.568359 0)"/>
     <use xlink:href="#Roboto-Regular-25" transform="translate(138.769531 0)"/>
    </g>
   </g>
  </g>
  <g id="text_43">
   <!-- Background -->
   <g style="fill: #4c72b0" transform="translate(775.09575 38.72025) scale(0.144 -0.144)">
    <defs>
     <path id="Roboto-Bold-42" d="M 3788 1341 
Q 3788 684 3369 345 
Q 2950 6 2175 0 
L 406 0 
L 406 4550 
L 2003 4550 
Q 2794 4550 3241 4247 
Q 3688 3944 3688 3306 
Q 3688 2997 3531 2737 
Q 3375 2478 3038 2344 
Q 3438 2244 3613 1956 
Q 3788 1669 3788 1341 
z
M 1347 3791 
L 1347 2647 
L 2003 2647 
Q 2747 2647 2747 3209 
Q 2747 3778 2034 3791 
L 1347 3791 
z
M 2850 1350 
Q 2850 1963 2231 1984 
L 1347 1984 
L 1347 756 
L 2147 756 
Q 2506 756 2678 925 
Q 2850 1094 2850 1350 
z
" transform="scale(0.015625)"/>
     <path id="Roboto-Bold-61" d="M 2306 0 
Q 2250 119 2216 303 
Q 1888 -63 1363 -63 
Q 878 -63 547 223 
Q 216 509 216 950 
Q 216 1481 609 1773 
Q 1003 2066 1775 2066 
L 2178 2066 
L 2178 2263 
Q 2178 2497 2058 2636 
Q 1938 2775 1678 2775 
Q 1194 2775 1194 2369 
L 291 2369 
Q 291 2809 681 3126 
Q 1072 3444 1728 3444 
Q 2313 3444 2698 3147 
Q 3084 2850 3084 2256 
L 3084 750 
Q 3091 300 3219 53 
L 3219 0 
L 2306 0 
z
M 1559 628 
Q 1788 628 1948 729 
Q 2109 831 2178 953 
L 2178 1541 
L 1809 1541 
Q 1450 1541 1284 1389 
Q 1119 1238 1119 1016 
Q 1119 847 1236 737 
Q 1353 628 1559 628 
z
" transform="scale(0.015625)"/>
     <path id="Roboto-Bold-63" d="M 1753 666 
Q 2000 666 2159 802 
Q 2319 938 2322 1169 
L 3172 1169 
Q 3166 631 2761 284 
Q 2356 -63 1769 -63 
Q 984 -63 595 432 
Q 206 928 206 1647 
L 206 1734 
Q 206 2450 593 2947 
Q 981 3444 1766 3444 
Q 2388 3444 2777 3087 
Q 3166 2731 3172 2122 
L 2322 2122 
Q 2319 2369 2172 2542 
Q 2025 2716 1750 2716 
Q 1356 2716 1234 2420 
Q 1113 2125 1113 1647 
Q 1113 1256 1233 961 
Q 1353 666 1753 666 
z
" transform="scale(0.015625)"/>
     <path id="Roboto-Bold-6b" d="M 2444 0 
L 1575 1356 
L 1253 1034 
L 1253 0 
L 350 0 
L 350 4803 
L 1253 4803 
L 1253 2144 
L 1428 2369 
L 2291 3381 
L 3375 3381 
L 2156 1975 
L 3484 0 
L 2444 0 
z
" transform="scale(0.015625)"/>
     <path id="Roboto-Bold-67" d="M 1681 -1331 
Q 1375 -1331 1008 -1203 
Q 641 -1075 422 -803 
L 822 -253 
Q 1156 -628 1644 -628 
Q 2003 -628 2203 -436 
Q 2403 -244 2403 113 
L 2403 294 
Q 2084 -63 1581 -63 
Q 953 -63 587 418 
Q 222 900 216 1625 
L 216 1716 
Q 216 2488 583 2966 
Q 950 3444 1588 3444 
Q 2147 3444 2456 3063 
L 2491 3381 
L 3309 3381 
L 3309 116 
Q 3309 -581 2857 -956 
Q 2406 -1331 1681 -1331 
z
M 1119 1650 
Q 1119 1244 1286 958 
Q 1453 672 1809 672 
Q 2222 672 2403 984 
L 2403 2403 
Q 2225 2713 1816 2713 
Q 1463 2713 1291 2423 
Q 1119 2134 1119 1716 
L 1119 1650 
z
" transform="scale(0.015625)"/>
     <path id="Roboto-Bold-72" d="M 1922 2563 
Q 1413 2563 1253 2216 
L 1253 0 
L 347 0 
L 347 3381 
L 1200 3381 
L 1228 2978 
Q 1494 3444 1981 3444 
Q 2153 3444 2259 3403 
L 2250 2538 
L 1922 2563 
z
" transform="scale(0.015625)"/>
     <path id="Roboto-Bold-6f" d="M 206 1722 
Q 206 2459 625 2951 
Q 1044 3444 1806 3444 
Q 2578 3444 2993 2951 
Q 3409 2459 3409 1722 
L 3409 1656 
Q 3409 919 2993 428 
Q 2578 -63 1813 -63 
Q 1053 -63 636 415 
Q 219 894 206 1616 
L 206 1722 
z
M 1113 1656 
Q 1113 1244 1270 955 
Q 1428 666 1813 666 
Q 2191 666 2348 953 
Q 2506 1241 2506 1722 
Q 2506 2125 2348 2420 
Q 2191 2716 1806 2716 
Q 1425 2716 1269 2422 
Q 1113 2128 1113 1656 
z
" transform="scale(0.015625)"/>
     <path id="Roboto-Bold-75" d="M 2400 0 
L 2375 347 
Q 2044 -63 1450 -63 
Q 953 -63 642 228 
Q 331 519 328 1181 
L 328 3381 
L 1231 3381 
L 1231 1188 
Q 1231 906 1365 789 
Q 1500 672 1709 672 
Q 2169 672 2344 994 
L 2344 3381 
L 3250 3381 
L 3250 0 
L 2400 0 
z
" transform="scale(0.015625)"/>
     <path id="Roboto-Bold-6e" d="M 1806 2713 
Q 1422 2713 1234 2388 
L 1234 0 
L 331 0 
L 331 3381 
L 1178 3381 
L 1209 2994 
Q 1572 3444 2181 3444 
Q 2659 3444 2953 3159 
Q 3247 2875 3250 2169 
L 3250 0 
L 2344 0 
L 2344 2156 
Q 2344 2481 2205 2597 
Q 2066 2713 1806 2713 
z
" transform="scale(0.015625)"/>
     <path id="Roboto-Bold-64" d="M 2438 0 
L 2394 359 
Q 2059 -63 1528 -63 
Q 900 -63 553 425 
Q 206 913 206 1650 
L 206 1716 
Q 206 2488 553 2966 
Q 900 3444 1534 3444 
Q 2028 3444 2347 3078 
L 2347 4800 
L 3253 4800 
L 3253 0 
L 2438 0 
z
M 1113 1650 
Q 1113 1244 1256 958 
Q 1400 672 1756 672 
Q 2169 672 2347 1022 
L 2347 2363 
Q 2175 2713 1763 2713 
Q 1409 2713 1261 2425 
Q 1113 2138 1113 1650 
z
" transform="scale(0.015625)"/>
    </defs>
    <use xlink:href="#Roboto-Bold-42"/>
    <use xlink:href="#Roboto-Bold-61" transform="translate(63.818359 0)"/>
    <use xlink:href="#Roboto-Bold-63" transform="translate(117.431641 0)"/>
    <use xlink:href="#Roboto-Bold-6b" transform="translate(169.628906 0)"/>
    <use xlink:href="#Roboto-Bold-67" transform="translate(223.046875 0)"/>
    <use xlink:href="#Roboto-Bold-72" transform="translate(280.175781 0)"/>
    <use xlink:href="#Roboto-Bold-6f" transform="translate(316.699219 0)"/>
    <use xlink:href="#Roboto-Bold-75" transform="translate(373.242188 0)"/>
    <use xlink:href="#Roboto-Bold-6e" transform="translate(429.248047 0)"/>
    <use xlink:href="#Roboto-Bold-64" transform="translate(485.253906 0)"/>
   </g>
   <!-- music 20.3% -->
   <g style="fill: #4c72b0" transform="translate(775.09575 54.675) scale(0.144 -0.144)">
    <defs>
     <path id="Roboto-Bold-6d" d="M 1806 2713 
Q 1431 2713 1253 2394 
L 1253 0 
L 347 0 
L 347 3381 
L 1197 3381 
L 1228 3009 
Q 1581 3444 2197 3444 
Q 2850 3444 3094 2928 
Q 3441 3444 4109 3444 
Q 4597 3444 4894 3156 
Q 5191 2869 5194 2169 
L 5194 0 
L 4288 0 
L 4288 2156 
Q 4288 2494 4152 2603 
Q 4016 2713 3781 2713 
Q 3381 2713 3222 2334 
L 3222 0 
L 2319 0 
L 2319 2150 
Q 2319 2484 2181 2598 
Q 2044 2713 1806 2713 
z
" transform="scale(0.015625)"/>
     <path id="Roboto-Bold-73" d="M 2178 938 
Q 2178 1081 2045 1179 
Q 1913 1278 1475 1372 
Q 953 1484 618 1721 
Q 284 1959 284 2394 
Q 284 2816 642 3130 
Q 1000 3444 1631 3444 
Q 2291 3444 2669 3134 
Q 3047 2825 3047 2353 
L 2144 2353 
Q 2144 2547 2019 2675 
Q 1894 2803 1628 2803 
Q 1403 2803 1276 2698 
Q 1150 2594 1150 2438 
Q 1150 2294 1284 2200 
Q 1419 2106 1781 2034 
Q 2331 1925 2693 1700 
Q 3056 1475 3056 972 
Q 3056 525 2672 231 
Q 2288 -63 1634 -63 
Q 925 -63 550 301 
Q 175 666 175 1078 
L 1034 1078 
Q 1047 813 1230 697 
Q 1413 581 1653 581 
Q 2178 581 2178 938 
z
" transform="scale(0.015625)"/>
     <path id="Roboto-Bold-69" d="M 341 4256 
Q 341 4459 478 4592 
Q 616 4725 847 4725 
Q 1078 4725 1215 4592 
Q 1353 4459 1353 4256 
Q 1353 4056 1215 3923 
Q 1078 3791 847 3791 
Q 616 3791 478 3923 
Q 341 4056 341 4256 
z
M 1303 3381 
L 1303 0 
L 397 0 
L 397 3381 
L 1303 3381 
z
" transform="scale(0.015625)"/>
     <path id="Roboto-Bold-20" transform="scale(0.015625)"/>
     <path id="Roboto-Bold-32" d="M 3428 728 
L 3428 0 
L 313 0 
L 313 619 
L 1784 2188 
Q 2116 2553 2245 2792 
Q 2375 3031 2375 3234 
Q 2375 3538 2223 3713 
Q 2072 3888 1788 3888 
Q 1466 3888 1295 3669 
Q 1125 3450 1125 3119 
L 222 3119 
Q 222 3734 645 4175 
Q 1069 4616 1803 4616 
Q 2519 4616 2900 4270 
Q 3281 3925 3281 3325 
Q 3281 2875 3014 2470 
Q 2747 2066 2284 1581 
L 1472 728 
L 3428 728 
z
" transform="scale(0.015625)"/>
     <path id="Roboto-Bold-30" d="M 3372 1884 
Q 3372 856 2950 396 
Q 2528 -63 1840 -63 
Q 1153 -63 726 396 
Q 300 856 300 1884 
L 300 2675 
Q 300 3700 723 4156 
Q 1147 4613 1834 4613 
Q 2519 4613 2944 4159 
Q 3369 3706 3372 2691 
L 3372 1884 
z
M 2469 2800 
Q 2469 3406 2303 3645 
Q 2138 3884 1834 3884 
Q 1538 3884 1372 3650 
Q 1206 3416 1203 2825 
L 1203 1763 
Q 1203 1153 1370 909 
Q 1538 666 1841 666 
Q 2138 666 2302 905 
Q 2466 1144 2469 1738 
L 2469 2800 
z
" transform="scale(0.015625)"/>
     <path id="Roboto-Bold-2e" d="M 394 447 
Q 394 653 533 792 
Q 672 931 906 931 
Q 1141 931 1278 792 
Q 1416 653 1416 447 
Q 1416 244 1278 105 
Q 1141 -34 906 -34 
Q 672 -34 533 105 
Q 394 244 394 447 
z
" transform="scale(0.015625)"/>
     <path id="Roboto-Bold-33" d="M 1231 1969 
L 1231 2678 
L 1713 2678 
Q 2053 2678 2220 2848 
Q 2388 3019 2388 3306 
Q 2388 3559 2236 3723 
Q 2084 3888 1772 3888 
Q 1525 3888 1342 3750 
Q 1159 3613 1159 3372 
L 256 3372 
Q 256 3934 690 4275 
Q 1125 4616 1747 4616 
Q 2438 4616 2864 4286 
Q 3291 3956 3291 3319 
Q 3291 3025 3109 2758 
Q 2928 2491 2597 2338 
Q 2978 2203 3168 1926 
Q 3359 1650 3359 1278 
Q 3359 638 2898 287 
Q 2438 -63 1747 -63 
Q 1363 -63 1008 78 
Q 653 219 426 508 
Q 200 797 200 1247 
L 1106 1247 
Q 1106 994 1295 830 
Q 1484 666 1772 666 
Q 2094 666 2275 837 
Q 2456 1009 2456 1291 
Q 2456 1969 1706 1969 
L 1231 1969 
z
" transform="scale(0.015625)"/>
     <path id="Roboto-Bold-25" d="M 297 3675 
Q 297 4063 550 4339 
Q 803 4616 1284 4616 
Q 1775 4616 2023 4339 
Q 2272 4063 2272 3675 
L 2272 3434 
Q 2272 3053 2023 2776 
Q 1775 2500 1290 2500 
Q 806 2500 551 2776 
Q 297 3053 297 3434 
L 297 3675 
z
M 3691 3897 
L 1469 341 
L 1028 578 
L 3250 4134 
L 3691 3897 
z
M 900 3434 
Q 900 3272 995 3147 
Q 1091 3022 1291 3022 
Q 1484 3022 1578 3147 
Q 1672 3272 1672 3434 
L 1672 3675 
Q 1672 3841 1576 3967 
Q 1481 4094 1284 4094 
Q 1091 4094 995 3967 
Q 900 3841 900 3675 
L 900 3434 
z
M 2472 1116 
Q 2472 1500 2726 1776 
Q 2981 2053 3463 2053 
Q 3950 2053 4200 1776 
Q 4450 1500 4450 1116 
L 4450 875 
Q 4450 491 4200 214 
Q 3950 -63 3469 -63 
Q 2984 -63 2728 214 
Q 2472 491 2472 875 
L 2472 1116 
z
M 3075 875 
Q 3075 713 3181 586 
Q 3288 459 3469 459 
Q 3691 459 3770 586 
Q 3850 713 3850 875 
L 3850 1116 
Q 3850 1281 3753 1406 
Q 3656 1531 3463 1531 
Q 3266 1531 3170 1406 
Q 3075 1281 3075 1116 
L 3075 875 
z
" transform="scale(0.015625)"/>
    </defs>
    <use xlink:href="#Roboto-Bold-6d"/>
    <use xlink:href="#Roboto-Bold-75" transform="translate(86.572266 0)"/>
    <use xlink:href="#Roboto-Bold-73" transform="translate(142.578125 0)"/>
    <use xlink:href="#Roboto-Bold-69" transform="translate(194.042969 0)"/>
    <use xlink:href="#Roboto-Bold-63" transform="translate(220.556641 0)"/>
    <use xlink:href="#Roboto-Bold-20" transform="translate(272.753906 0)"/>
    <use xlink:href="#Roboto-Bold-32" transform="translate(297.65625 0)"/>
    <use xlink:href="#Roboto-Bold-30" transform="translate(355.029297 0)"/>
    <use xlink:href="#Roboto-Bold-2e" transform="translate(412.402344 0)"/>
    <use xlink:href="#Roboto-Bold-33" transform="translate(441.503906 0)"/>
    <use xlink:href="#Roboto-Bold-25" transform="translate(498.876953 0)"/>
   </g>
  </g>
  <g id="text_44">
   <!-- Voice over -->
   <g style="fill: #dd8452" transform="translate(915.042375 47.43) scale(0.144 -0.144)">
    <defs>
     <path id="Roboto-Bold-56" d="M 4166 4550 
L 2578 0 
L 1603 0 
L 25 4550 
L 1063 4550 
L 2091 1131 
L 3122 4550 
L 4166 4550 
z
" transform="scale(0.015625)"/>
     <path id="Roboto-Bold-65" d="M 3225 550 
Q 3063 319 2731 128 
Q 2400 -63 1906 -63 
Q 1119 -63 675 414 
Q 231 891 228 1566 
L 228 1697 
Q 228 2463 654 2953 
Q 1081 3444 1806 3444 
Q 2534 3444 2915 2987 
Q 3297 2531 3297 1781 
L 3297 1397 
L 1144 1397 
Q 1191 1069 1403 867 
Q 1616 666 1963 666 
Q 2478 666 2778 1044 
L 3225 550 
z
M 1800 2716 
Q 1513 2716 1356 2522 
Q 1200 2328 1153 2016 
L 2409 2016 
L 2409 2084 
Q 2403 2356 2258 2536 
Q 2113 2716 1800 2716 
z
" transform="scale(0.015625)"/>
     <path id="Roboto-Bold-76" d="M 3184 3381 
L 2044 0 
L 1184 0 
L 41 3381 
L 988 3381 
L 1616 1109 
L 2241 3381 
L 3184 3381 
z
" transform="scale(0.015625)"/>
    </defs>
    <use xlink:href="#Roboto-Bold-56"/>
    <use xlink:href="#Roboto-Bold-6f" transform="translate(65.380859 0)"/>
    <use xlink:href="#Roboto-Bold-69" transform="translate(121.923828 0)"/>
    <use xlink:href="#Roboto-Bold-63" transform="translate(148.4375 0)"/>
    <use xlink:href="#Roboto-Bold-65" transform="translate(200.634766 0)"/>
    <use xlink:href="#Roboto-Bold-20" transform="translate(254.6875 0)"/>
    <use xlink:href="#Roboto-Bold-6f" transform="translate(279.589844 0)"/>
    <use xlink:href="#Roboto-Bold-76" transform="translate(336.132812 0)"/>
    <use xlink:href="#Roboto-Bold-65" transform="translate(386.71875 0)"/>
    <use xlink:href="#Roboto-Bold-72" transform="translate(440.771484 0)"/>
   </g>
   <!-- 19.8% -->
   <g style="fill: #dd8452" transform="translate(944.166375 63.315) scale(0.144 -0.144)">
    <defs>
     <path id="Roboto-Bold-31" d="M 2503 4556 
L 2503 0 
L 1600 0 
L 1600 3484 
L 525 3150 
L 525 3881 
L 2406 4556 
L 2503 4556 
z
" transform="scale(0.015625)"/>
     <path id="Roboto-Bold-39" d="M 3341 2444 
Q 3341 1334 2773 650 
Q 2206 -34 1063 -47 
L 950 -47 
L 950 709 
L 1025 709 
Q 1703 713 2039 998 
Q 2375 1284 2428 1822 
Q 2066 1472 1597 1472 
Q 956 1472 614 1911 
Q 272 2350 272 3006 
Q 272 3669 686 4142 
Q 1100 4616 1797 4616 
Q 2500 4616 2920 4105 
Q 3341 3594 3341 2756 
L 3341 2444 
z
M 1172 3016 
Q 1172 2666 1331 2416 
Q 1491 2166 1819 2166 
Q 2041 2166 2200 2280 
Q 2359 2394 2438 2556 
L 2438 2922 
Q 2438 3406 2253 3645 
Q 2069 3884 1794 3884 
Q 1497 3884 1334 3617 
Q 1172 3350 1172 3016 
z
" transform="scale(0.015625)"/>
     <path id="Roboto-Bold-38" d="M 3369 1247 
Q 3369 603 2933 270 
Q 2497 -63 1837 -63 
Q 1178 -63 736 270 
Q 294 603 294 1247 
Q 294 1625 489 1908 
Q 684 2191 1013 2347 
Q 725 2497 559 2755 
Q 394 3013 394 3341 
Q 394 3959 800 4287 
Q 1206 4616 1831 4616 
Q 2466 4616 2870 4287 
Q 3275 3959 3275 3341 
Q 3275 3009 3108 2753 
Q 2941 2497 2653 2344 
Q 2981 2188 3175 1906 
Q 3369 1625 3369 1247 
z
M 2372 3297 
Q 2372 3563 2230 3725 
Q 2088 3888 1831 3888 
Q 1581 3888 1439 3730 
Q 1297 3572 1297 3297 
Q 1297 3028 1439 2862 
Q 1581 2697 1837 2697 
Q 2094 2697 2233 2862 
Q 2372 3028 2372 3297 
z
M 2466 1313 
Q 2466 1619 2291 1794 
Q 2116 1969 1831 1969 
Q 1547 1969 1373 1794 
Q 1200 1619 1200 1313 
Q 1200 1009 1373 837 
Q 1547 666 1838 666 
Q 2125 666 2295 837 
Q 2466 1009 2466 1313 
z
" transform="scale(0.015625)"/>
    </defs>
    <use xlink:href="#Roboto-Bold-31"/>
    <use xlink:href="#Roboto-Bold-39" transform="translate(57.373047 0)"/>
    <use xlink:href="#Roboto-Bold-2e" transform="translate(114.746094 0)"/>
    <use xlink:href="#Roboto-Bold-38" transform="translate(143.847656 0)"/>
    <use xlink:href="#Roboto-Bold-25" transform="translate(201.220703 0)"/>
   </g>
  </g>
  <g id="text_45">
   <!-- Static image(s) 10.8% -->
   <g style="fill: #55a868" transform="translate(803.47725 241.76925) scale(0.144 -0.144)">
    <defs>
     <path id="Roboto-Bold-53" d="M 2769 1194 
Q 2769 1422 2612 1573 
Q 2456 1725 1854 1920 
Q 1253 2116 816 2425 
Q 356 2747 356 3341 
Q 356 3913 828 4263 
Q 1300 4613 2038 4613 
Q 2794 4613 3250 4217 
Q 3706 3822 3706 3209 
L 2769 3209 
Q 2769 3497 2584 3681 
Q 2400 3866 2022 3866 
Q 1653 3866 1473 3711 
Q 1294 3556 1294 3338 
Q 1294 3113 1525 2963 
Q 1756 2813 2197 2678 
Q 2944 2450 3326 2106 
Q 3709 1763 3709 1200 
Q 3709 603 3259 270 
Q 2809 -63 2059 -63 
Q 1606 -63 1184 96 
Q 763 256 491 587 
Q 219 919 219 1434 
L 1159 1434 
Q 1159 1019 1407 850 
Q 1656 681 2059 681 
Q 2422 681 2595 828 
Q 2769 975 2769 1194 
z
" transform="scale(0.015625)"/>
     <path id="Roboto-Bold-74" d="M 2041 22 
Q 1788 -63 1497 -63 
Q 1053 -63 790 168 
Q 528 400 528 938 
L 528 2722 
L 31 2722 
L 31 3381 
L 528 3381 
L 528 4216 
L 1431 4216 
L 1431 3381 
L 2006 3381 
L 2006 2722 
L 1431 2722 
L 1431 1031 
Q 1431 819 1518 750 
Q 1606 681 1778 681 
Q 1916 681 2041 706 
L 2041 22 
z
" transform="scale(0.015625)"/>
     <path id="Roboto-Bold-28" d="M 391 1850 
Q 391 2731 633 3392 
Q 875 4053 1234 4473 
Q 1594 4894 1947 5053 
L 2122 4566 
Q 1772 4303 1465 3661 
Q 1159 3019 1153 1906 
L 1153 1772 
Q 1153 628 1461 -23 
Q 1769 -675 2122 -944 
L 1947 -1422 
Q 1594 -1266 1234 -845 
Q 875 -425 633 237 
Q 391 900 391 1778 
L 391 1850 
z
" transform="scale(0.015625)"/>
     <path id="Roboto-Bold-29" d="M 1906 1778 
Q 1906 928 1656 264 
Q 1406 -400 1034 -833 
Q 663 -1266 300 -1422 
L 125 -944 
Q 472 -684 780 -37 
Q 1088 609 1094 1722 
L 1094 1856 
Q 1094 3000 780 3656 
Q 466 4313 125 4572 
L 300 5053 
Q 663 4894 1034 4461 
Q 1406 4028 1656 3364 
Q 1906 2700 1906 1847 
L 1906 1778 
z
" transform="scale(0.015625)"/>
    </defs>
    <use xlink:href="#Roboto-Bold-53"/>
    <use xlink:href="#Roboto-Bold-74" transform="translate(61.474609 0)"/>
    <use xlink:href="#Roboto-Bold-61" transform="translate(95.263672 0)"/>
    <use xlink:href="#Roboto-Bold-74" transform="translate(148.876953 0)"/>
    <use xlink:href="#Roboto-Bold-69" transform="translate(182.666016 0)"/>
    <use xlink:href="#Roboto-Bold-63" transform="translate(209.179688 0)"/>
    <use xlink:href="#Roboto-Bold-20" transform="translate(261.376953 0)"/>
    <use xlink:href="#Roboto-Bold-69" transform="translate(286.279297 0)"/>
    <use xlink:href="#Roboto-Bold-6d" transform="translate(312.792969 0)"/>
    <use xlink:href="#Roboto-Bold-61" transform="translate(399.365234 0)"/>
    <use xlink:href="#Roboto-Bold-67" transform="translate(452.978516 0)"/>
    <use xlink:href="#Roboto-Bold-65" transform="translate(510.107422 0)"/>
    <use xlink:href="#Roboto-Bold-28" transform="translate(564.160156 0)"/>
    <use xlink:href="#Roboto-Bold-73" transform="translate(599.267578 0)"/>
    <use xlink:href="#Roboto-Bold-29" transform="translate(650.732422 0)"/>
    <use xlink:href="#Roboto-Bold-20" transform="translate(685.986328 0)"/>
    <use xlink:href="#Roboto-Bold-31" transform="translate(710.888672 0)"/>
    <use xlink:href="#Roboto-Bold-30" transform="translate(768.261719 0)"/>
    <use xlink:href="#Roboto-Bold-2e" transform="translate(825.634766 0)"/>
    <use xlink:href="#Roboto-Bold-38" transform="translate(854.736328 0)"/>
    <use xlink:href="#Roboto-Bold-25" transform="translate(912.109375 0)"/>
   </g>
  </g>
  <g id="text_46">
   <!-- None 58.1% -->
   <g style="fill: #808080" transform="translate(840.755812 264.24) scale(0.144 -0.144)">
    <defs>
     <path id="Roboto-Bold-4e" d="M 4109 4550 
L 4109 0 
L 3172 0 
L 1347 2997 
L 1347 0 
L 406 0 
L 406 4550 
L 1347 4550 
L 3172 1550 
L 3172 4550 
L 4109 4550 
z
" transform="scale(0.015625)"/>
     <path id="Roboto-Bold-35" d="M 1166 2063 
L 447 2238 
L 706 4550 
L 3256 4550 
L 3256 3800 
L 1450 3800 
L 1338 2819 
Q 1650 2991 2019 2991 
Q 2681 2991 3043 2587 
Q 3406 2184 3406 1463 
Q 3406 856 3031 396 
Q 2656 -63 1872 -63 
Q 1281 -63 814 287 
Q 347 638 331 1269 
L 1225 1269 
Q 1284 666 1866 666 
Q 2206 666 2354 911 
Q 2503 1156 2503 1513 
Q 2503 1872 2325 2092 
Q 2147 2313 1772 2313 
Q 1525 2313 1390 2233 
Q 1256 2153 1166 2063 
z
" transform="scale(0.015625)"/>
    </defs>
    <use xlink:href="#Roboto-Bold-4e"/>
    <use xlink:href="#Roboto-Bold-6f" transform="translate(70.654297 0)"/>
    <use xlink:href="#Roboto-Bold-6e" transform="translate(127.197266 0)"/>
    <use xlink:href="#Roboto-Bold-65" transform="translate(183.203125 0)"/>
    <use xlink:href="#Roboto-Bold-20" transform="translate(237.255859 0)"/>
    <use xlink:href="#Roboto-Bold-35" transform="translate(262.158203 0)"/>
    <use xlink:href="#Roboto-Bold-38" transform="translate(319.53125 0)"/>
    <use xlink:href="#Roboto-Bold-2e" transform="translate(376.904297 0)"/>
    <use xlink:href="#Roboto-Bold-31" transform="translate(406.005859 0)"/>
    <use xlink:href="#Roboto-Bold-25" transform="translate(463.378906 0)"/>
   </g>
  </g>
  <g id="text_47">
   <!-- A  Number of labels per sample -->
   <g style="fill: #262626" transform="translate(77.124375 18.41175) scale(0.144 -0.144)">
    <defs>
     <path id="Roboto-Bold-41" d="M 25 0 
L 1719 4550 
L 2588 4550 
L 4291 0 
L 3291 0 
L 2978 938 
L 1331 938 
L 1019 0 
L 25 0 
z
M 1584 1697 
L 2725 1697 
L 2156 3406 
L 1584 1697 
z
" transform="scale(0.015625)"/>
     <path id="Roboto-Bold-62" d="M 3394 1659 
Q 3394 900 3067 418 
Q 2741 -63 2081 -63 
Q 1531 -63 1203 359 
L 1163 0 
L 347 0 
L 347 4800 
L 1253 4800 
L 1253 3081 
Q 1569 3444 2075 3444 
Q 2741 3444 3067 2959 
Q 3394 2475 3394 1725 
L 3394 1659 
z
M 1847 2713 
Q 1419 2713 1253 2359 
L 1253 1022 
Q 1419 669 1853 669 
Q 2231 669 2361 945 
Q 2491 1222 2491 1725 
Q 2491 2125 2361 2419 
Q 2231 2713 1847 2713 
z
" transform="scale(0.015625)"/>
     <path id="Roboto-Bold-66" d="M 2172 2722 
L 1500 2722 
L 1500 0 
L 594 0 
L 594 2722 
L 91 2722 
L 91 3381 
L 594 3381 
L 594 3675 
Q 594 4253 928 4559 
Q 1263 4866 1834 4866 
Q 2053 4866 2297 4803 
L 2288 4103 
Q 2169 4131 2009 4131 
Q 1509 4131 1500 3691 
L 1500 3381 
L 2172 3381 
L 2172 2722 
z
" transform="scale(0.015625)"/>
     <path id="Roboto-Bold-6c" d="M 1303 4800 
L 1303 0 
L 397 0 
L 397 4800 
L 1303 4800 
z
" transform="scale(0.015625)"/>
     <path id="Roboto-Bold-70" d="M 2081 -63 
Q 1575 -63 1253 297 
L 1253 -1300 
L 347 -1300 
L 347 3381 
L 1188 3381 
L 1222 3053 
Q 1544 3444 2072 3444 
Q 2716 3444 3055 2972 
Q 3394 2500 3394 1728 
L 3394 1663 
Q 3394 925 3055 431 
Q 2716 -63 2081 -63 
z
M 1838 2713 
Q 1416 2713 1253 2384 
L 1253 1000 
Q 1422 666 1844 666 
Q 2197 666 2344 958 
Q 2491 1250 2491 1728 
Q 2491 2147 2339 2430 
Q 2188 2713 1838 2713 
z
" transform="scale(0.015625)"/>
    </defs>
    <use xlink:href="#Roboto-Bold-41"/>
    <use xlink:href="#Roboto-Bold-20" transform="translate(67.333984 0)"/>
    <use xlink:href="#Roboto-Bold-20" transform="translate(92.236328 0)"/>
    <use xlink:href="#Roboto-Bold-4e" transform="translate(117.138672 0)"/>
    <use xlink:href="#Roboto-Bold-75" transform="translate(187.792969 0)"/>
    <use xlink:href="#Roboto-Bold-6d" transform="translate(243.798828 0)"/>
    <use xlink:href="#Roboto-Bold-62" transform="translate(330.371094 0)"/>
    <use xlink:href="#Roboto-Bold-65" transform="translate(386.669922 0)"/>
    <use xlink:href="#Roboto-Bold-72" transform="translate(440.722656 0)"/>
    <use xlink:href="#Roboto-Bold-20" transform="translate(477.246094 0)"/>
    <use xlink:href="#Roboto-Bold-6f" transform="translate(502.148438 0)"/>
    <use xlink:href="#Roboto-Bold-66" transform="translate(558.691406 0)"/>
    <use xlink:href="#Roboto-Bold-20" transform="translate(594.53125 0)"/>
    <use xlink:href="#Roboto-Bold-6c" transform="translate(619.433594 0)"/>
    <use xlink:href="#Roboto-Bold-61" transform="translate(645.947266 0)"/>
    <use xlink:href="#Roboto-Bold-62" transform="translate(699.560547 0)"/>
    <use xlink:href="#Roboto-Bold-65" transform="translate(755.859375 0)"/>
    <use xlink:href="#Roboto-Bold-6c" transform="translate(809.912109 0)"/>
    <use xlink:href="#Roboto-Bold-73" transform="translate(836.425781 0)"/>
    <use xlink:href="#Roboto-Bold-20" transform="translate(887.890625 0)"/>
    <use xlink:href="#Roboto-Bold-70" transform="translate(912.792969 0)"/>
    <use xlink:href="#Roboto-Bold-65" transform="translate(969.091797 0)"/>
    <use xlink:href="#Roboto-Bold-72" transform="translate(1023.144531 0)"/>
    <use xlink:href="#Roboto-Bold-20" transform="translate(1059.667969 0)"/>
    <use xlink:href="#Roboto-Bold-73" transform="translate(1084.570312 0)"/>
    <use xlink:href="#Roboto-Bold-61" transform="translate(1136.035156 0)"/>
    <use xlink:href="#Roboto-Bold-6d" transform="translate(1189.648438 0)"/>
    <use xlink:href="#Roboto-Bold-70" transform="translate(1276.220703 0)"/>
    <use xlink:href="#Roboto-Bold-6c" transform="translate(1332.519531 0)"/>
    <use xlink:href="#Roboto-Bold-65" transform="translate(1359.033203 0)"/>
   </g>
  </g>
  <g id="text_48">
   <!-- B  Label modality distribution -->
   <g style="fill: #262626" transform="translate(322.705125 18.26325) scale(0.144 -0.144)">
    <defs>
     <path id="Roboto-Bold-4c" d="M 3334 756 
L 3334 0 
L 406 0 
L 406 4550 
L 1347 4550 
L 1347 756 
L 3334 756 
z
" transform="scale(0.015625)"/>
     <path id="Roboto-Bold-79" d="M 769 -1366 
Q 594 -1366 369 -1306 
L 369 -622 
L 509 -625 
Q 775 -625 903 -539 
Q 1031 -453 1097 -266 
L 1197 -6 
L 13 3381 
L 984 3381 
L 1613 1275 
L 2238 3381 
L 3203 3381 
L 1850 -506 
Q 1791 -675 1675 -876 
Q 1559 -1078 1342 -1222 
Q 1125 -1366 769 -1366 
z
" transform="scale(0.015625)"/>
    </defs>
    <use xlink:href="#Roboto-Bold-42"/>
    <use xlink:href="#Roboto-Bold-20" transform="translate(63.818359 0)"/>
    <use xlink:href="#Roboto-Bold-20" transform="translate(88.720703 0)"/>
    <use xlink:href="#Roboto-Bold-4c" transform="translate(113.623047 0)"/>
    <use xlink:href="#Roboto-Bold-61" transform="translate(167.773438 0)"/>
    <use xlink:href="#Roboto-Bold-62" transform="translate(221.386719 0)"/>
    <use xlink:href="#Roboto-Bold-65" transform="translate(277.685547 0)"/>
    <use xlink:href="#Roboto-Bold-6c" transform="translate(331.738281 0)"/>
    <use xlink:href="#Roboto-Bold-20" transform="translate(358.251953 0)"/>
    <use xlink:href="#Roboto-Bold-6d" transform="translate(383.154297 0)"/>
    <use xlink:href="#Roboto-Bold-6f" transform="translate(469.726562 0)"/>
    <use xlink:href="#Roboto-Bold-64" transform="translate(526.269531 0)"/>
    <use xlink:href="#Roboto-Bold-61" transform="translate(582.666016 0)"/>
    <use xlink:href="#Roboto-Bold-6c" transform="translate(636.279297 0)"/>
    <use xlink:href="#Roboto-Bold-69" transform="translate(662.792969 0)"/>
    <use xlink:href="#Roboto-Bold-74" transform="translate(689.306641 0)"/>
    <use xlink:href="#Roboto-Bold-79" transform="translate(723.095703 0)"/>
    <use xlink:href="#Roboto-Bold-20" transform="translate(773.339844 0)"/>
    <use xlink:href="#Roboto-Bold-64" transform="translate(798.242188 0)"/>
    <use xlink:href="#Roboto-Bold-69" transform="translate(854.638672 0)"/>
    <use xlink:href="#Roboto-Bold-73" transform="translate(881.152344 0)"/>
    <use xlink:href="#Roboto-Bold-74" transform="translate(932.617188 0)"/>
    <use xlink:href="#Roboto-Bold-72" transform="translate(966.40625 0)"/>
    <use xlink:href="#Roboto-Bold-69" transform="translate(1002.929688 0)"/>
    <use xlink:href="#Roboto-Bold-62" transform="translate(1029.443359 0)"/>
    <use xlink:href="#Roboto-Bold-75" transform="translate(1085.742188 0)"/>
    <use xlink:href="#Roboto-Bold-74" transform="translate(1141.748047 0)"/>
    <use xlink:href="#Roboto-Bold-69" transform="translate(1175.537109 0)"/>
    <use xlink:href="#Roboto-Bold-6f" transform="translate(1202.050781 0)"/>
    <use xlink:href="#Roboto-Bold-6e" transform="translate(1258.59375 0)"/>
   </g>
  </g>
  <g id="text_49">
   <!-- C  Most common labels -->
   <g style="fill: #262626" transform="translate(569.77875 18.3375) scale(0.144 -0.144)">
    <defs>
     <path id="Roboto-Bold-43" d="M 3044 1516 
L 3981 1516 
Q 3934 822 3461 379 
Q 2988 -63 2150 -63 
Q 1275 -63 772 526 
Q 269 1116 269 2125 
L 269 2422 
Q 269 3431 784 4023 
Q 1300 4616 2159 4616 
Q 3013 4616 3466 4161 
Q 3919 3706 3984 3006 
L 3047 3006 
Q 3016 3413 2820 3630 
Q 2625 3847 2159 3847 
Q 1247 3847 1222 2500 
L 1222 2125 
Q 1222 1419 1436 1062 
Q 1650 706 2150 706 
Q 2594 706 2801 907 
Q 3009 1109 3044 1516 
z
" transform="scale(0.015625)"/>
     <path id="Roboto-Bold-4d" d="M 2800 1250 
L 3966 4550 
L 5194 4550 
L 5194 0 
L 4253 0 
L 4253 1244 
L 4347 3381 
L 3122 0 
L 2478 0 
L 1253 3381 
L 1347 1244 
L 1347 0 
L 406 0 
L 406 4550 
L 1634 4550 
L 2800 1250 
z
" transform="scale(0.015625)"/>
    </defs>
    <use xlink:href="#Roboto-Bold-43"/>
    <use xlink:href="#Roboto-Bold-20" transform="translate(65.478516 0)"/>
    <use xlink:href="#Roboto-Bold-20" transform="translate(90.380859 0)"/>
    <use xlink:href="#Roboto-Bold-4d" transform="translate(115.283203 0)"/>
    <use xlink:href="#Roboto-Bold-6f" transform="translate(202.880859 0)"/>
    <use xlink:href="#Roboto-Bold-73" transform="translate(259.423828 0)"/>
    <use xlink:href="#Roboto-Bold-74" transform="translate(310.888672 0)"/>
    <use xlink:href="#Roboto-Bold-20" transform="translate(344.677734 0)"/>
    <use xlink:href="#Roboto-Bold-63" transform="translate(369.580078 0)"/>
    <use xlink:href="#Roboto-Bold-6f" transform="translate(421.777344 0)"/>
    <use xlink:href="#Roboto-Bold-6d" transform="translate(478.320312 0)"/>
    <use xlink:href="#Roboto-Bold-6d" transform="translate(564.892578 0)"/>
    <use xlink:href="#Roboto-Bold-6f" transform="translate(651.464844 0)"/>
    <use xlink:href="#Roboto-Bold-6e" transform="translate(708.007812 0)"/>
    <use xlink:href="#Roboto-Bold-20" transform="translate(764.013672 0)"/>
    <use xlink:href="#Roboto-Bold-6c" transform="translate(788.916016 0)"/>
    <use xlink:href="#Roboto-Bold-61" transform="translate(815.429688 0)"/>
    <use xlink:href="#Roboto-Bold-62" transform="translate(869.042969 0)"/>
    <use xlink:href="#Roboto-Bold-65" transform="translate(925.341797 0)"/>
    <use xlink:href="#Roboto-Bold-6c" transform="translate(979.394531 0)"/>
    <use xlink:href="#Roboto-Bold-73" transform="translate(1005.908203 0)"/>
   </g>
  </g>
  <g id="text_50">
   <!-- D  Meta labels -->
   <g style="fill: #262626" transform="translate(823.615313 18.3375) scale(0.144 -0.144)">
    <defs>
     <path id="Roboto-Bold-44" d="M 406 0 
L 406 4550 
L 1809 4550 
Q 2728 4550 3308 3950 
Q 3888 3350 3888 2375 
L 3888 2172 
Q 3888 1197 3308 598 
Q 2728 0 1797 0 
L 406 0 
z
M 1347 3791 
L 1347 756 
L 1797 756 
Q 2350 756 2639 1115 
Q 2928 1475 2934 2144 
L 2934 2381 
Q 2934 3075 2661 3428 
Q 2388 3781 1838 3791 
L 1347 3791 
z
" transform="scale(0.015625)"/>
    </defs>
    <use xlink:href="#Roboto-Bold-44"/>
    <use xlink:href="#Roboto-Bold-20" transform="translate(65.039062 0)"/>
    <use xlink:href="#Roboto-Bold-20" transform="translate(89.941406 0)"/>
    <use xlink:href="#Roboto-Bold-4d" transform="translate(114.84375 0)"/>
    <use xlink:href="#Roboto-Bold-65" transform="translate(202.441406 0)"/>
    <use xlink:href="#Roboto-Bold-74" transform="translate(256.494141 0)"/>
    <use xlink:href="#Roboto-Bold-61" transform="translate(290.283203 0)"/>
    <use xlink:href="#Roboto-Bold-20" transform="translate(343.896484 0)"/>
    <use xlink:href="#Roboto-Bold-6c" transform="translate(368.798828 0)"/>
    <use xlink:href="#Roboto-Bold-61" transform="translate(395.3125 0)"/>
    <use xlink:href="#Roboto-Bold-62" transform="translate(448.925781 0)"/>
    <use xlink:href="#Roboto-Bold-65" transform="translate(505.224609 0)"/>
    <use xlink:href="#Roboto-Bold-6c" transform="translate(559.277344 0)"/>
    <use xlink:href="#Roboto-Bold-73" transform="translate(585.791016 0)"/>
   </g>
  </g>
 </g>
 <defs>
  <clipPath id="p4dabeaf83d">
   <rect x="58.84899" y="44.033894" width="232.225291" height="202.359616"/>
  </clipPath>
  <clipPath id="p1fb029fa8b">
   <rect x="636.373844" y="44.033894" width="116.112645" height="80.778848"/>
  </clipPath>
  <clipPath id="p31cb2ff574">
   <rect x="636.373844" y="165.614662" width="116.112645" height="80.778848"/>
  </clipPath>
  <clipPath id="p3b6df39558">
   <rect x="758.486969" y="49.683621" width="232.225291" height="191.060162"/>
  </clipPath>
 </defs>
</svg>
