<?xml version="1.0" encoding="utf-8" standalone="no"?>
<!DOCTYPE svg PUBLIC "-//W3C//DTD SVG 1.1//EN"
  "http://www.w3.org/Graphics/SVG/1.1/DTD/svg11.dtd">
<svg xmlns:xlink="http://www.w3.org/1999/xlink" width="482.6714pt" height="295.597807pt" viewBox="0 0 482.6714 295.597807" xmlns="http://www.w3.org/2000/svg" version="1.1">
 <metadata>
  <rdf:RDF xmlns:dc="http://purl.org/dc/elements/1.1/" xmlns:cc="http://creativecommons.org/ns#" xmlns:rdf="http://www.w3.org/1999/02/22-rdf-syntax-ns#">
   <cc:Work>
    <dc:type rdf:resource="http://purl.org/dc/dcmitype/StillImage"/>
    <dc:date>2025-09-30T15:07:22.004286</dc:date>
    <dc:format>image/svg+xml</dc:format>
    <dc:creator>
     <cc:Agent>
      <dc:title>Matplotlib v3.10.5, https://matplotlib.org/</dc:title>
     </cc:Agent>
    </dc:creator>
   </cc:Work>
  </rdf:RDF>
 </metadata>
 <defs>
  <style type="text/css">*{stroke-linejoin: round; stroke-linecap: butt}</style>
 </defs>
 <g id="figure_1">
  <g id="patch_1">
   <path d="M 0 295.597807 
L 482.6714 295.597807 
L 482.6714 0 
L 0 0 
z
" style="fill: #ffffff"/>
  </g>
  <g id="axes_1">
   <g id="patch_2">
    <path d="M 203.815792 144.817023 
C 203.815792 133.976895 201.680523 123.242174 197.532186 113.227201 
C 193.383849 103.212229 187.303117 94.111772 179.637989 86.446644 
C 171.972861 78.781516 162.872404 72.700785 152.857432 68.552447 
C 142.842459 64.40411 132.107738 62.268841 121.26761 62.268841 
C 110.427482 62.268841 99.692761 64.40411 89.677788 68.552447 
C 79.662816 72.700785 70.562359 78.781516 62.897231 86.446644 
C 55.232103 94.111772 49.151371 103.212229 45.003034 113.227201 
C 40.854697 123.242174 38.719428 133.976895 38.719428 144.817023 
C 38.719428 155.657151 40.854697 166.391872 45.003034 176.406845 
C 49.151371 186.421817 55.232103 195.522275 62.897231 203.187403 
C 70.562359 210.85253 79.662816 216.933262 89.677788 221.081599 
C 99.692761 225.229936 110.427482 227.365205 121.26761 227.365205 
C 132.107738 227.365205 142.842459 225.229936 152.857432 221.081599 
C 162.872404 216.933262 171.972861 210.85253 179.637989 203.187403 
C 187.303117 195.522275 193.383849 186.421817 197.532186 176.406845 
C 201.680523 166.391872 203.815792 155.657151 203.815792 144.817023 
M 121.26761 144.817023 
C 121.26761 144.817023 121.26761 144.817023 121.26761 144.817023 
C 121.26761 144.817023 121.26761 144.817023 121.26761 144.817023 
C 121.26761 144.817023 121.26761 144.817023 121.26761 144.817023 
C 121.26761 144.817023 121.26761 144.817023 121.26761 144.817023 
C 121.26761 144.817023 121.26761 144.817023 121.26761 144.817023 
C 121.26761 144.817023 121.26761 144.817023 121.26761 144.817023 
C 121.26761 144.817023 121.26761 144.817023 121.26761 144.817023 
C 121.26761 144.817023 121.26761 144.817023 121.26761 144.817023 
C 121.26761 144.817023 121.26761 144.817023 121.26761 144.817023 
C 121.26761 144.817023 121.26761 144.817023 121.26761 144.817023 
C 121.26761 144.817023 121.26761 144.817023 121.26761 144.817023 
C 121.26761 144.817023 121.26761 144.817023 121.26761 144.817023 
C 121.26761 144.817023 121.26761 144.817023 121.26761 144.817023 
C 121.26761 144.817023 121.26761 144.817023 121.26761 144.817023 
C 121.26761 144.817023 121.26761 144.817023 121.26761 144.817023 
C 121.26761 144.817023 121.26761 144.817023 121.26761 144.817023 
z
" style="fill: #ffffff"/>
   </g>
   <g id="matplotlib.axis_1">
    <g id="xtick_1">
     <g id="line2d_1">
      <path d="M 121.26761 144.817023 
L 121.26761 62.268841 
" clip-path="url(#p2264ee1df0)" style="fill: none; stroke: #cccccc; stroke-width: 0.8; stroke-linecap: round"/>
     </g>
     <g id="text_1">
      <!-- AV -->
      <g style="fill: #262626" transform="translate(112.762891 50.578216) scale(0.132 -0.132)">
       <defs>
        <path id="Roboto-Regular-41" d="M 3041 1188 
L 1134 1188 
L 706 0 
L 88 0 
L 1825 4550 
L 2350 4550 
L 4091 0 
L 3475 0 
L 3041 1188 
z
M 1316 1681 
L 2863 1681 
L 2088 3809 
L 1316 1681 
z
" transform="scale(0.015625)"/>
        <path id="Roboto-Regular-56" d="M 2034 797 
L 3334 4550 
L 3991 4550 
L 2303 0 
L 1772 0 
L 88 4550 
L 741 4550 
L 2034 797 
z
" transform="scale(0.015625)"/>
       </defs>
       <use xlink:href="#Roboto-Regular-41"/>
       <use xlink:href="#Roboto-Regular-56" transform="translate(65.234375 0)"/>
      </g>
     </g>
    </g>
    <g id="xtick_2">
     <g id="line2d_2">
      <path d="M 121.26761 144.817023 
L 192.756433 186.091114 
" clip-path="url(#p2264ee1df0)" style="fill: none; stroke: #cccccc; stroke-width: 0.8; stroke-linecap: round"/>
     </g>
     <g id="text_2">
      <!-- V -->
      <g style="fill: #262626" transform="translate(201.807371 197.350489) scale(0.132 -0.132)">
       <use xlink:href="#Roboto-Regular-56"/>
      </g>
     </g>
    </g>
    <g id="xtick_3">
     <g id="line2d_3">
      <path d="M 121.26761 144.817023 
L 49.778787 186.091114 
" clip-path="url(#p2264ee1df0)" style="fill: none; stroke: #cccccc; stroke-width: 0.8; stroke-linecap: round"/>
     </g>
     <g id="text_3">
      <!-- A -->
      <g style="fill: #262626" transform="translate(32.22313 197.350489) scale(0.132 -0.132)">
       <use xlink:href="#Roboto-Regular-41"/>
      </g>
     </g>
    </g>
   </g>
   <g id="matplotlib.axis_2">
    <g id="ytick_1">
     <g id="line2d_4">
      <path d="M 121.26761 144.817023 
C 121.26761 144.817023 121.26761 144.817023 121.26761 144.817023 
C 121.26761 144.817023 121.26761 144.817023 121.26761 144.817023 
C 121.26761 144.817023 121.26761 144.817023 121.26761 144.817023 
C 121.26761 144.817023 121.26761 144.817023 121.26761 144.817023 
C 121.26761 144.817023 121.26761 144.817023 121.26761 144.817023 
C 121.26761 144.817023 121.26761 144.817023 121.26761 144.817023 
C 121.26761 144.817023 121.26761 144.817023 121.26761 144.817023 
C 121.26761 144.817023 121.26761 144.817023 121.26761 144.817023 
C 121.26761 144.817023 121.26761 144.817023 121.26761 144.817023 
C 121.26761 144.817023 121.26761 144.817023 121.26761 144.817023 
C 121.26761 144.817023 121.26761 144.817023 121.26761 144.817023 
C 121.26761 144.817023 121.26761 144.817023 121.26761 144.817023 
C 121.26761 144.817023 121.26761 144.817023 121.26761 144.817023 
C 121.26761 144.817023 121.26761 144.817023 121.26761 144.817023 
C 121.26761 144.817023 121.26761 144.817023 121.26761 144.817023 
C 121.26761 144.817023 121.26761 144.817023 121.26761 144.817023 
" clip-path="url(#p2264ee1df0)" style="fill: none; stroke: #cccccc; stroke-width: 0.8; stroke-linecap: round"/>
     </g>
     <g id="text_4">
      <!-- 0 -->
      <g style="fill: #262626" transform="translate(121.26761 142.135773) scale(0.132 -0.132)">
       <defs>
        <path id="Roboto-Regular-30" d="M 3231 1941 
Q 3231 1381 3131 998 
Q 3031 616 2845 380 
Q 2659 144 2395 40 
Q 2131 -63 1800 -63 
Q 1472 -63 1206 40 
Q 941 144 753 380 
Q 566 616 462 998 
Q 359 1381 359 1941 
L 359 2634 
Q 359 3194 461 3572 
Q 563 3950 750 4181 
Q 938 4413 1202 4513 
Q 1466 4613 1794 4613 
Q 2125 4613 2390 4513 
Q 2656 4413 2843 4181 
Q 3031 3950 3131 3572 
Q 3231 3194 3231 2634 
L 3231 1941 
z
M 2653 2731 
Q 2653 3116 2598 3384 
Q 2544 3653 2434 3820 
Q 2325 3988 2164 4063 
Q 2003 4138 1794 4138 
Q 1588 4138 1427 4063 
Q 1266 3988 1158 3820 
Q 1050 3653 994 3384 
Q 938 3116 938 2731 
L 938 1850 
Q 938 1469 994 1195 
Q 1050 922 1161 747 
Q 1272 572 1433 490 
Q 1594 409 1800 409 
Q 2013 409 2172 490 
Q 2331 572 2439 747 
Q 2547 922 2600 1195 
Q 2653 1469 2653 1850 
L 2653 2731 
z
" transform="scale(0.015625)"/>
       </defs>
       <use xlink:href="#Roboto-Regular-30"/>
      </g>
     </g>
    </g>
    <g id="ytick_2">
     <g id="line2d_5">
      <path d="M 121.26761 124.179978 
C 123.977642 124.179978 126.661322 124.713795 129.165065 125.750879 
C 131.668809 126.787964 133.943923 128.308146 135.860205 130.224428 
C 137.776487 132.14071 139.29667 134.415825 140.333754 136.919568 
C 141.370838 139.423311 141.904656 142.106991 141.904656 144.817023 
C 141.904656 147.527055 141.370838 150.210735 140.333754 152.714479 
C 139.29667 155.218222 137.776487 157.493336 135.860205 159.409618 
C 133.943923 161.3259 131.668809 162.846083 129.165065 163.883167 
C 126.661322 164.920251 123.977642 165.454069 121.26761 165.454069 
C 118.557578 165.454069 115.873898 164.920251 113.370155 163.883167 
C 110.866411 162.846083 108.591297 161.3259 106.675015 159.409618 
C 104.758733 157.493336 103.23855 155.218222 102.201466 152.714479 
C 101.164382 150.210735 100.630564 147.527055 100.630564 144.817023 
C 100.630564 142.106991 101.164382 139.423311 102.201466 136.919568 
C 103.23855 134.415825 104.758733 132.14071 106.675015 130.224428 
C 108.591297 128.308146 110.866411 126.787964 113.370155 125.750879 
C 115.873898 124.713795 118.557578 124.179978 121.26761 124.179978 
" clip-path="url(#p2264ee1df0)" style="fill: none; stroke: #cccccc; stroke-width: 0.8; stroke-linecap: round"/>
     </g>
    </g>
    <g id="ytick_3">
     <g id="line2d_6">
      <path d="M 121.26761 103.542932 
C 126.687674 103.542932 132.055035 104.610567 137.062521 106.684735 
C 142.070007 108.758904 146.620236 111.799269 150.4528 115.631833 
C 154.285364 119.464397 157.325729 124.014626 159.399898 129.022112 
C 161.474067 134.029599 162.541701 139.396959 162.541701 144.817023 
C 162.541701 150.237087 161.474067 155.604448 159.399898 160.611934 
C 157.325729 165.61942 154.285364 170.169649 150.4528 174.002213 
C 146.620236 177.834777 142.070007 180.875142 137.062521 182.949311 
C 132.055035 185.02348 126.687674 186.091114 121.26761 186.091114 
C 115.847546 186.091114 110.480185 185.02348 105.472699 182.949311 
C 100.465213 180.875142 95.914984 177.834777 92.08242 174.002213 
C 88.249856 170.169649 85.209491 165.61942 83.135322 160.611934 
C 81.061153 155.604448 79.993519 150.237087 79.993519 144.817023 
C 79.993519 139.396959 81.061153 134.029599 83.135322 129.022112 
C 85.209491 124.014626 88.249856 119.464397 92.08242 115.631833 
C 95.914984 111.799269 100.465213 108.758904 105.472699 106.684735 
C 110.480185 104.610567 115.847546 103.542932 121.26761 103.542932 
" clip-path="url(#p2264ee1df0)" style="fill: none; stroke: #cccccc; stroke-width: 0.8; stroke-linecap: round"/>
     </g>
     <g id="text_5">
      <!-- 0.5 -->
      <g style="fill: #262626" transform="translate(137.062521 104.003485) scale(0.132 -0.132)">
       <defs>
        <path id="Roboto-Regular-2e" d="M 450 303 
Q 450 453 539 553 
Q 628 653 806 653 
Q 984 653 1076 553 
Q 1169 453 1169 303 
Q 1169 159 1076 62 
Q 984 -34 806 -34 
Q 628 -34 539 62 
Q 450 159 450 303 
z
" transform="scale(0.015625)"/>
        <path id="Roboto-Regular-35" d="M 644 2281 
L 875 4550 
L 3206 4550 
L 3206 4016 
L 1366 4016 
L 1228 2775 
Q 1350 2847 1542 2909 
Q 1734 2972 1988 2972 
Q 2300 2972 2551 2864 
Q 2803 2756 2978 2557 
Q 3153 2359 3247 2078 
Q 3341 1797 3341 1450 
Q 3341 1122 3252 845 
Q 3163 569 2984 367 
Q 2806 166 2536 51 
Q 2266 -63 1900 -63 
Q 1625 -63 1379 14 
Q 1134 91 943 247 
Q 753 403 631 640 
Q 509 878 481 1197 
L 1028 1197 
Q 1081 806 1306 607 
Q 1531 409 1900 409 
Q 2106 409 2265 481 
Q 2425 553 2536 687 
Q 2647 822 2705 1014 
Q 2763 1206 2763 1444 
Q 2763 1656 2703 1840 
Q 2644 2025 2528 2161 
Q 2413 2297 2242 2375 
Q 2072 2453 1853 2453 
Q 1706 2453 1600 2433 
Q 1494 2413 1409 2375 
Q 1325 2338 1254 2283 
Q 1184 2228 1106 2163 
L 644 2281 
z
" transform="scale(0.015625)"/>
       </defs>
       <use xlink:href="#Roboto-Regular-30"/>
       <use xlink:href="#Roboto-Regular-2e" transform="translate(56.152344 0)"/>
       <use xlink:href="#Roboto-Regular-35" transform="translate(82.470703 0)"/>
      </g>
     </g>
    </g>
    <g id="ytick_4">
     <g id="line2d_7">
      <path d="M 121.26761 82.905887 
C 129.397706 82.905887 137.448747 84.507338 144.959976 87.618591 
C 152.471206 90.729844 159.296549 95.290393 165.045395 101.039239 
C 170.79424 106.788085 175.354789 113.613428 178.466042 121.124657 
C 181.577295 128.635886 183.178747 136.686927 183.178747 144.817023 
C 183.178747 152.947119 181.577295 160.99816 178.466042 168.509389 
C 175.354789 176.020619 170.79424 182.845962 165.045395 188.594808 
C 159.296549 194.343654 152.471206 198.904202 144.959976 202.015455 
C 137.448747 205.126708 129.397706 206.72816 121.26761 206.72816 
C 113.137514 206.72816 105.086473 205.126708 97.575244 202.015455 
C 90.064014 198.904202 83.238671 194.343654 77.489825 188.594808 
C 71.74098 182.845962 67.180431 176.020619 64.069178 168.509389 
C 60.957925 160.99816 59.356473 152.947119 59.356473 144.817023 
C 59.356473 136.686927 60.957925 128.635886 64.069178 121.124657 
C 67.180431 113.613428 71.74098 106.788085 77.489825 101.039239 
C 83.238671 95.290393 90.064014 90.729844 97.575244 87.618591 
C 105.086473 84.507338 113.137514 82.905887 121.26761 82.905887 
" clip-path="url(#p2264ee1df0)" style="fill: none; stroke: #cccccc; stroke-width: 0.8; stroke-linecap: round"/>
     </g>
    </g>
    <g id="ytick_5">
     <g id="line2d_8">
      <path d="M 121.26761 62.268841 
C 132.107738 62.268841 142.842459 64.40411 152.857432 68.552447 
C 162.872404 72.700785 171.972861 78.781516 179.637989 86.446644 
C 187.303117 94.111772 193.383849 103.212229 197.532186 113.227201 
C 201.680523 123.242174 203.815792 133.976895 203.815792 144.817023 
C 203.815792 155.657151 201.680523 166.391872 197.532186 176.406845 
C 193.383849 186.421817 187.303117 195.522275 179.637989 203.187403 
C 171.972861 210.85253 162.872404 216.933262 152.857432 221.081599 
C 142.842459 225.229936 132.107738 227.365205 121.26761 227.365205 
C 110.427482 227.365205 99.692761 225.229936 89.677788 221.081599 
C 79.662816 216.933262 70.562359 210.85253 62.897231 203.187403 
C 55.232103 195.522275 49.151371 186.421817 45.003034 176.406845 
C 40.854697 166.391872 38.719428 155.657151 38.719428 144.817023 
C 38.719428 133.976895 40.854697 123.242174 45.003034 113.227201 
C 49.151371 103.212229 55.232103 94.111772 62.897231 86.446644 
C 70.562359 78.781516 79.662816 72.700785 89.677788 68.552447 
C 99.692761 64.40411 110.427482 62.268841 121.26761 62.268841 
" clip-path="url(#p2264ee1df0)" style="fill: none; stroke: #cccccc; stroke-width: 0.8; stroke-linecap: round"/>
     </g>
     <g id="text_6">
      <!-- 1 -->
      <g style="fill: #262626" transform="translate(152.857432 65.871197) scale(0.132 -0.132)">
       <defs>
        <path id="Roboto-Regular-31" d="M 2278 0 
L 1697 0 
L 1697 3853 
L 531 3425 
L 531 3950 
L 2188 4572 
L 2278 4572 
L 2278 0 
z
" transform="scale(0.015625)"/>
       </defs>
       <use xlink:href="#Roboto-Regular-31"/>
      </g>
     </g>
    </g>
   </g>
   <g id="patch_3">
    <path d="M 121.26761 62.268841 
L 175.253193 175.985614 
L 68.298139 175.398962 
z
" clip-path="url(#p2264ee1df0)" style="fill: #4c72b0; opacity: 0.25; stroke: #4c72b0; stroke-width: 0.8; stroke-linejoin: miter"/>
   </g>
   <g id="patch_4">
    <path d="M 121.26761 92.323585 
L 153.812718 163.60695 
L 100.637562 156.727787 
z
" clip-path="url(#p2264ee1df0)" style="fill: #dd8452; opacity: 0.25; stroke: #dd8452; stroke-width: 0.8; stroke-linejoin: miter"/>
   </g>
   <g id="line2d_9">
    <path d="M 121.26761 62.268841 
L 175.253193 175.985614 
L 68.298139 175.398962 
L 121.26761 62.268841 
" clip-path="url(#p2264ee1df0)" style="fill: none; stroke: #4c72b0; stroke-width: 1.2; stroke-linecap: round"/>
   </g>
   <g id="line2d_10">
    <path d="M 121.26761 92.323585 
L 153.812718 163.60695 
L 100.637562 156.727787 
L 121.26761 92.323585 
" clip-path="url(#p2264ee1df0)" style="fill: none; stroke: #dd8452; stroke-width: 1.2; stroke-linecap: round"/>
   </g>
   <g id="text_7">
    <!-- Foundation models -->
    <g style="fill: #262626" transform="translate(59.170985 18.06975) scale(0.144 -0.144)">
     <defs>
      <path id="Roboto-Bold-46" d="M 3144 1859 
L 1344 1859 
L 1344 0 
L 406 0 
L 406 4550 
L 3369 4550 
L 3369 3791 
L 1344 3791 
L 1344 2616 
L 3144 2616 
L 3144 1859 
z
" transform="scale(0.015625)"/>
      <path id="Roboto-Bold-6f" d="M 206 1722 
Q 206 2091 312 2406 
Q 419 2722 622 2951 
Q 825 3181 1123 3312 
Q 1422 3444 1803 3444 
Q 2188 3444 2488 3312 
Q 2788 3181 2992 2951 
Q 3197 2722 3303 2406 
Q 3409 2091 3409 1722 
L 3409 1656 
Q 3409 1284 3303 970 
Q 3197 656 2992 426 
Q 2788 197 2491 67 
Q 2194 -63 1809 -63 
Q 1425 -63 1126 67 
Q 828 197 623 426 
Q 419 656 312 970 
Q 206 1284 206 1656 
L 206 1722 
z
M 1109 1656 
Q 1109 1450 1146 1269 
Q 1184 1088 1267 955 
Q 1350 822 1483 744 
Q 1616 666 1809 666 
Q 1997 666 2130 744 
Q 2263 822 2347 955 
Q 2431 1088 2468 1269 
Q 2506 1450 2506 1656 
L 2506 1722 
Q 2506 1922 2468 2101 
Q 2431 2281 2347 2417 
Q 2263 2553 2128 2633 
Q 1994 2713 1803 2713 
Q 1616 2713 1483 2633 
Q 1350 2553 1267 2417 
Q 1184 2281 1146 2101 
Q 1109 1922 1109 1722 
L 1109 1656 
z
" transform="scale(0.015625)"/>
      <path id="Roboto-Bold-75" d="M 2372 344 
Q 2213 150 1984 43 
Q 1756 -63 1447 -63 
Q 1197 -63 990 7 
Q 784 78 636 229 
Q 488 381 406 620 
Q 325 859 325 1194 
L 325 3381 
L 1228 3381 
L 1228 1188 
Q 1228 1047 1264 947 
Q 1300 847 1364 786 
Q 1428 725 1515 697 
Q 1603 669 1709 669 
Q 1953 669 2106 753 
Q 2259 838 2341 988 
L 2341 3381 
L 3247 3381 
L 3247 0 
L 2397 0 
L 2372 344 
z
" transform="scale(0.015625)"/>
      <path id="Roboto-Bold-6e" d="M 1178 3381 
L 1206 2991 
Q 1381 3209 1628 3326 
Q 1875 3444 2178 3444 
Q 2419 3444 2616 3376 
Q 2813 3309 2953 3156 
Q 3094 3003 3170 2756 
Q 3247 2509 3247 2150 
L 3247 0 
L 2344 0 
L 2344 2156 
Q 2344 2319 2308 2425 
Q 2272 2531 2203 2593 
Q 2134 2656 2034 2682 
Q 1934 2709 1803 2709 
Q 1603 2709 1461 2621 
Q 1319 2534 1231 2384 
L 1231 0 
L 328 0 
L 328 3381 
L 1178 3381 
z
" transform="scale(0.015625)"/>
      <path id="Roboto-Bold-64" d="M 206 1716 
Q 206 2100 295 2419 
Q 384 2738 553 2966 
Q 722 3194 969 3319 
Q 1216 3444 1531 3444 
Q 1791 3444 1992 3347 
Q 2194 3250 2347 3075 
L 2347 4800 
L 3253 4800 
L 3253 0 
L 2438 0 
L 2394 359 
Q 2234 159 2021 48 
Q 1809 -63 1525 -63 
Q 1213 -63 967 67 
Q 722 197 553 425 
Q 384 653 295 967 
Q 206 1281 206 1650 
L 206 1716 
z
M 1109 1650 
Q 1109 1444 1143 1266 
Q 1178 1088 1254 955 
Q 1331 822 1454 745 
Q 1578 669 1756 669 
Q 1975 669 2120 762 
Q 2266 856 2347 1022 
L 2347 2356 
Q 2266 2525 2120 2617 
Q 1975 2709 1763 2709 
Q 1584 2709 1459 2632 
Q 1334 2556 1257 2422 
Q 1181 2288 1145 2106 
Q 1109 1925 1109 1716 
L 1109 1650 
z
" transform="scale(0.015625)"/>
      <path id="Roboto-Bold-61" d="M 2306 0 
Q 2244 122 2216 303 
Q 2078 150 1870 43 
Q 1663 -63 1363 -63 
Q 1119 -63 908 12 
Q 697 88 542 222 
Q 388 356 300 542 
Q 213 728 213 950 
Q 213 1216 311 1422 
Q 409 1628 606 1772 
Q 803 1916 1095 1991 
Q 1388 2066 1775 2066 
L 2178 2066 
L 2178 2259 
Q 2178 2494 2058 2634 
Q 1938 2775 1678 2775 
Q 1450 2775 1320 2665 
Q 1191 2556 1191 2366 
L 288 2366 
Q 288 2584 389 2781 
Q 491 2978 678 3125 
Q 866 3272 1131 3358 
Q 1397 3444 1725 3444 
Q 2019 3444 2269 3369 
Q 2519 3294 2700 3145 
Q 2881 2997 2982 2773 
Q 3084 2550 3084 2253 
L 3084 822 
Q 3084 678 3093 564 
Q 3103 450 3118 358 
Q 3134 266 3159 192 
Q 3184 119 3219 53 
L 3219 0 
L 2306 0 
z
M 1559 628 
Q 1675 628 1773 656 
Q 1872 684 1950 729 
Q 2028 775 2086 834 
Q 2144 894 2178 956 
L 2178 1538 
L 1806 1538 
Q 1628 1538 1497 1498 
Q 1366 1459 1281 1389 
Q 1197 1319 1156 1223 
Q 1116 1128 1116 1016 
Q 1116 847 1234 737 
Q 1353 628 1559 628 
z
" transform="scale(0.015625)"/>
      <path id="Roboto-Bold-74" d="M 1428 4213 
L 1428 3381 
L 2006 3381 
L 2006 2719 
L 1428 2719 
L 1428 1031 
Q 1428 925 1450 856 
Q 1472 788 1515 748 
Q 1559 709 1623 695 
Q 1688 681 1775 681 
Q 1856 681 1923 687 
Q 1991 694 2041 703 
L 2041 19 
Q 1928 -16 1795 -39 
Q 1663 -63 1494 -63 
Q 1272 -63 1094 -8 
Q 916 47 789 165 
Q 663 284 594 475 
Q 525 666 525 934 
L 525 2719 
L 31 2719 
L 31 3381 
L 525 3381 
L 525 4213 
L 1428 4213 
z
" transform="scale(0.015625)"/>
      <path id="Roboto-Bold-69" d="M 1300 0 
L 394 0 
L 394 3381 
L 1300 3381 
L 1300 0 
z
M 341 4256 
Q 341 4459 477 4590 
Q 613 4722 847 4722 
Q 963 4722 1056 4687 
Q 1150 4653 1215 4590 
Q 1281 4528 1317 4442 
Q 1353 4356 1353 4256 
Q 1353 4153 1317 4067 
Q 1281 3981 1215 3918 
Q 1150 3856 1056 3822 
Q 963 3788 847 3788 
Q 731 3788 637 3822 
Q 544 3856 478 3918 
Q 413 3981 377 4067 
Q 341 4153 341 4256 
z
" transform="scale(0.015625)"/>
      <path id="Roboto-Bold-20" transform="scale(0.015625)"/>
      <path id="Roboto-Bold-6d" d="M 1194 3381 
L 1222 3003 
Q 1391 3209 1633 3326 
Q 1875 3444 2194 3444 
Q 2497 3444 2730 3322 
Q 2963 3200 3091 2928 
Q 3256 3169 3507 3306 
Q 3759 3444 4106 3444 
Q 4353 3444 4554 3375 
Q 4756 3306 4898 3153 
Q 5041 3000 5117 2754 
Q 5194 2509 5194 2153 
L 5194 0 
L 4288 0 
L 4288 2153 
Q 4288 2322 4252 2431 
Q 4216 2541 4150 2602 
Q 4084 2663 3990 2686 
Q 3897 2709 3778 2709 
Q 3569 2709 3428 2604 
Q 3288 2500 3216 2322 
Q 3216 2306 3217 2287 
Q 3219 2269 3219 2253 
L 3219 0 
L 2316 0 
L 2316 2147 
Q 2316 2316 2281 2425 
Q 2247 2534 2181 2596 
Q 2116 2659 2020 2684 
Q 1925 2709 1806 2709 
Q 1606 2709 1468 2625 
Q 1331 2541 1250 2391 
L 1250 0 
L 347 0 
L 347 3381 
L 1194 3381 
z
" transform="scale(0.015625)"/>
      <path id="Roboto-Bold-65" d="M 1903 -63 
Q 1509 -63 1198 65 
Q 888 194 670 416 
Q 453 638 339 936 
Q 225 1234 225 1575 
L 225 1697 
Q 225 2081 336 2401 
Q 447 2722 651 2953 
Q 856 3184 1148 3314 
Q 1441 3444 1803 3444 
Q 2169 3444 2447 3323 
Q 2725 3203 2914 2986 
Q 3103 2769 3198 2462 
Q 3294 2156 3294 1781 
L 3294 1397 
L 1141 1397 
Q 1163 1231 1230 1097 
Q 1297 963 1401 867 
Q 1506 772 1647 719 
Q 1788 666 1963 666 
Q 2209 666 2418 758 
Q 2628 850 2778 1044 
L 3222 547 
Q 3141 431 3019 322 
Q 2897 213 2731 127 
Q 2566 41 2358 -11 
Q 2150 -63 1903 -63 
z
M 1800 2713 
Q 1653 2713 1542 2661 
Q 1431 2609 1351 2517 
Q 1272 2425 1222 2297 
Q 1172 2169 1150 2013 
L 2406 2013 
L 2406 2084 
Q 2403 2219 2367 2334 
Q 2331 2450 2257 2534 
Q 2184 2619 2070 2666 
Q 1956 2713 1800 2713 
z
" transform="scale(0.015625)"/>
      <path id="Roboto-Bold-6c" d="M 1300 0 
L 394 0 
L 394 4800 
L 1300 4800 
L 1300 0 
z
" transform="scale(0.015625)"/>
      <path id="Roboto-Bold-73" d="M 2178 934 
Q 2178 1006 2150 1065 
Q 2122 1125 2044 1176 
Q 1966 1228 1831 1275 
Q 1697 1322 1484 1366 
Q 1225 1422 1004 1506 
Q 784 1591 623 1716 
Q 463 1841 372 2006 
Q 281 2172 281 2391 
Q 281 2603 373 2793 
Q 466 2984 639 3129 
Q 813 3275 1064 3359 
Q 1316 3444 1631 3444 
Q 1959 3444 2221 3362 
Q 2484 3281 2667 3136 
Q 2850 2991 2948 2791 
Q 3047 2591 3047 2353 
L 2144 2353 
Q 2144 2547 2019 2673 
Q 1894 2800 1628 2800 
Q 1400 2800 1275 2697 
Q 1150 2594 1150 2434 
Q 1150 2359 1183 2301 
Q 1216 2244 1289 2195 
Q 1363 2147 1483 2106 
Q 1603 2066 1778 2031 
Q 2053 1978 2287 1900 
Q 2522 1822 2692 1698 
Q 2863 1575 2959 1398 
Q 3056 1222 3056 972 
Q 3056 747 2956 558 
Q 2856 369 2670 231 
Q 2484 94 2221 15 
Q 1959 -63 1634 -63 
Q 1278 -63 1006 37 
Q 734 138 548 300 
Q 363 463 269 666 
Q 175 869 175 1075 
L 1031 1075 
Q 1038 944 1089 848 
Q 1141 753 1225 693 
Q 1309 634 1420 606 
Q 1531 578 1653 578 
Q 1913 578 2045 676 
Q 2178 775 2178 934 
z
" transform="scale(0.015625)"/>
     </defs>
     <use xlink:href="#Roboto-Bold-46"/>
     <use xlink:href="#Roboto-Bold-6f" transform="translate(54.785156 0)"/>
     <use xlink:href="#Roboto-Bold-75" transform="translate(111.328125 0)"/>
     <use xlink:href="#Roboto-Bold-6e" transform="translate(167.285156 0)"/>
     <use xlink:href="#Roboto-Bold-64" transform="translate(223.291016 0)"/>
     <use xlink:href="#Roboto-Bold-61" transform="translate(279.638672 0)"/>
     <use xlink:href="#Roboto-Bold-74" transform="translate(333.251953 0)"/>
     <use xlink:href="#Roboto-Bold-69" transform="translate(367.041016 0)"/>
     <use xlink:href="#Roboto-Bold-6f" transform="translate(393.554688 0)"/>
     <use xlink:href="#Roboto-Bold-6e" transform="translate(450.097656 0)"/>
     <use xlink:href="#Roboto-Bold-20" transform="translate(506.103516 0)"/>
     <use xlink:href="#Roboto-Bold-6d" transform="translate(531.005859 0)"/>
     <use xlink:href="#Roboto-Bold-6f" transform="translate(617.578125 0)"/>
     <use xlink:href="#Roboto-Bold-64" transform="translate(674.121094 0)"/>
     <use xlink:href="#Roboto-Bold-65" transform="translate(730.46875 0)"/>
     <use xlink:href="#Roboto-Bold-6c" transform="translate(784.521484 0)"/>
     <use xlink:href="#Roboto-Bold-73" transform="translate(811.035156 0)"/>
    </g>
   </g>
  </g>
  <g id="axes_2">
   <g id="patch_5">
    <path d="M 443.951972 144.817023 
C 443.951972 133.976895 441.816703 123.242174 437.668366 113.227201 
C 433.520029 103.212229 427.439297 94.111772 419.774169 86.446644 
C 412.109041 78.781516 403.008584 72.700785 392.993612 68.552447 
C 382.978639 64.40411 372.243918 62.268841 361.40379 62.268841 
C 350.563662 62.268841 339.828941 64.40411 329.813968 68.552447 
C 319.798996 72.700785 310.698539 78.781516 303.033411 86.446644 
C 295.368283 94.111772 289.287551 103.212229 285.139214 113.227201 
C 280.990877 123.242174 278.855608 133.976895 278.855608 144.817023 
C 278.855608 155.657151 280.990877 166.391872 285.139214 176.406845 
C 289.287551 186.421817 295.368283 195.522275 303.033411 203.187403 
C 310.698539 210.85253 319.798996 216.933262 329.813968 221.081599 
C 339.828941 225.229936 350.563662 227.365205 361.40379 227.365205 
C 372.243918 227.365205 382.978639 225.229936 392.993612 221.081599 
C 403.008584 216.933262 412.109041 210.85253 419.774169 203.187403 
C 427.439297 195.522275 433.520029 186.421817 437.668366 176.406845 
C 441.816703 166.391872 443.951972 155.657151 443.951972 144.817023 
M 361.40379 144.817023 
C 361.40379 144.817023 361.40379 144.817023 361.40379 144.817023 
C 361.40379 144.817023 361.40379 144.817023 361.40379 144.817023 
C 361.40379 144.817023 361.40379 144.817023 361.40379 144.817023 
C 361.40379 144.817023 361.40379 144.817023 361.40379 144.817023 
C 361.40379 144.817023 361.40379 144.817023 361.40379 144.817023 
C 361.40379 144.817023 361.40379 144.817023 361.40379 144.817023 
C 361.40379 144.817023 361.40379 144.817023 361.40379 144.817023 
C 361.40379 144.817023 361.40379 144.817023 361.40379 144.817023 
C 361.40379 144.817023 361.40379 144.817023 361.40379 144.817023 
C 361.40379 144.817023 361.40379 144.817023 361.40379 144.817023 
C 361.40379 144.817023 361.40379 144.817023 361.40379 144.817023 
C 361.40379 144.817023 361.40379 144.817023 361.40379 144.817023 
C 361.40379 144.817023 361.40379 144.817023 361.40379 144.817023 
C 361.40379 144.817023 361.40379 144.817023 361.40379 144.817023 
C 361.40379 144.817023 361.40379 144.817023 361.40379 144.817023 
C 361.40379 144.817023 361.40379 144.817023 361.40379 144.817023 
z
" style="fill: #ffffff"/>
   </g>
   <g id="matplotlib.axis_3">
    <g id="xtick_4">
     <g id="line2d_11">
      <path d="M 361.40379 144.817023 
L 361.40379 62.268841 
" clip-path="url(#p00d883d9e2)" style="fill: none; stroke: #cccccc; stroke-width: 0.8; stroke-linecap: round"/>
     </g>
     <g id="text_8">
      <!-- AV -->
      <g style="fill: #262626" transform="translate(352.899071 50.578216) scale(0.132 -0.132)">
       <use xlink:href="#Roboto-Regular-41"/>
       <use xlink:href="#Roboto-Regular-56" transform="translate(65.234375 0)"/>
      </g>
     </g>
    </g>
    <g id="xtick_5">
     <g id="line2d_12">
      <path d="M 361.40379 144.817023 
L 432.892613 186.091114 
" clip-path="url(#p00d883d9e2)" style="fill: none; stroke: #cccccc; stroke-width: 0.8; stroke-linecap: round"/>
     </g>
     <g id="text_9">
      <!-- V -->
      <g style="fill: #262626" transform="translate(441.943551 197.350489) scale(0.132 -0.132)">
       <use xlink:href="#Roboto-Regular-56"/>
      </g>
     </g>
    </g>
    <g id="xtick_6">
     <g id="line2d_13">
      <path d="M 361.40379 144.817023 
L 289.914967 186.091114 
" clip-path="url(#p00d883d9e2)" style="fill: none; stroke: #cccccc; stroke-width: 0.8; stroke-linecap: round"/>
     </g>
     <g id="text_10">
      <!-- A -->
      <g style="fill: #262626" transform="translate(272.35931 197.350489) scale(0.132 -0.132)">
       <use xlink:href="#Roboto-Regular-41"/>
      </g>
     </g>
    </g>
   </g>
   <g id="matplotlib.axis_4">
    <g id="ytick_6">
     <g id="line2d_14">
      <path d="M 361.40379 144.817023 
C 361.40379 144.817023 361.40379 144.817023 361.40379 144.817023 
C 361.40379 144.817023 361.40379 144.817023 361.40379 144.817023 
C 361.40379 144.817023 361.40379 144.817023 361.40379 144.817023 
C 361.40379 144.817023 361.40379 144.817023 361.40379 144.817023 
C 361.40379 144.817023 361.40379 144.817023 361.40379 144.817023 
C 361.40379 144.817023 361.40379 144.817023 361.40379 144.817023 
C 361.40379 144.817023 361.40379 144.817023 361.40379 144.817023 
C 361.40379 144.817023 361.40379 144.817023 361.40379 144.817023 
C 361.40379 144.817023 361.40379 144.817023 361.40379 144.817023 
C 361.40379 144.817023 361.40379 144.817023 361.40379 144.817023 
C 361.40379 144.817023 361.40379 144.817023 361.40379 144.817023 
C 361.40379 144.817023 361.40379 144.817023 361.40379 144.817023 
C 361.40379 144.817023 361.40379 144.817023 361.40379 144.817023 
C 361.40379 144.817023 361.40379 144.817023 361.40379 144.817023 
C 361.40379 144.817023 361.40379 144.817023 361.40379 144.817023 
C 361.40379 144.817023 361.40379 144.817023 361.40379 144.817023 
" clip-path="url(#p00d883d9e2)" style="fill: none; stroke: #cccccc; stroke-width: 0.8; stroke-linecap: round"/>
     </g>
     <g id="text_11">
      <!-- 0 -->
      <g style="fill: #262626" transform="translate(361.40379 142.135773) scale(0.132 -0.132)">
       <use xlink:href="#Roboto-Regular-30"/>
      </g>
     </g>
    </g>
    <g id="ytick_7">
     <g id="line2d_15">
      <path d="M 361.40379 124.179978 
C 364.113822 124.179978 366.797502 124.713795 369.301245 125.750879 
C 371.804989 126.787964 374.080103 128.308146 375.996385 130.224428 
C 377.912667 132.14071 379.43285 134.415825 380.469934 136.919568 
C 381.507018 139.423311 382.040836 142.106991 382.040836 144.817023 
C 382.040836 147.527055 381.507018 150.210735 380.469934 152.714479 
C 379.43285 155.218222 377.912667 157.493336 375.996385 159.409618 
C 374.080103 161.3259 371.804989 162.846083 369.301245 163.883167 
C 366.797502 164.920251 364.113822 165.454069 361.40379 165.454069 
C 358.693758 165.454069 356.010078 164.920251 353.506335 163.883167 
C 351.002591 162.846083 348.727477 161.3259 346.811195 159.409618 
C 344.894913 157.493336 343.37473 155.218222 342.337646 152.714479 
C 341.300562 150.210735 340.766744 147.527055 340.766744 144.817023 
C 340.766744 142.106991 341.300562 139.423311 342.337646 136.919568 
C 343.37473 134.415825 344.894913 132.14071 346.811195 130.224428 
C 348.727477 128.308146 351.002591 126.787964 353.506335 125.750879 
C 356.010078 124.713795 358.693758 124.179978 361.40379 124.179978 
" clip-path="url(#p00d883d9e2)" style="fill: none; stroke: #cccccc; stroke-width: 0.8; stroke-linecap: round"/>
     </g>
    </g>
    <g id="ytick_8">
     <g id="line2d_16">
      <path d="M 361.40379 103.542932 
C 366.823854 103.542932 372.191215 104.610567 377.198701 106.684735 
C 382.206187 108.758904 386.756416 111.799269 390.58898 115.631833 
C 394.421544 119.464397 397.461909 124.014626 399.536078 129.022112 
C 401.610247 134.029599 402.677881 139.396959 402.677881 144.817023 
C 402.677881 150.237087 401.610247 155.604448 399.536078 160.611934 
C 397.461909 165.61942 394.421544 170.169649 390.58898 174.002213 
C 386.756416 177.834777 382.206187 180.875142 377.198701 182.949311 
C 372.191215 185.02348 366.823854 186.091114 361.40379 186.091114 
C 355.983726 186.091114 350.616365 185.02348 345.608879 182.949311 
C 340.601393 180.875142 336.051164 177.834777 332.2186 174.002213 
C 328.386036 170.169649 325.345671 165.61942 323.271502 160.611934 
C 321.197333 155.604448 320.129699 150.237087 320.129699 144.817023 
C 320.129699 139.396959 321.197333 134.029599 323.271502 129.022112 
C 325.345671 124.014626 328.386036 119.464397 332.2186 115.631833 
C 336.051164 111.799269 340.601393 108.758904 345.608879 106.684735 
C 350.616365 104.610567 355.983726 103.542932 361.40379 103.542932 
" clip-path="url(#p00d883d9e2)" style="fill: none; stroke: #cccccc; stroke-width: 0.8; stroke-linecap: round"/>
     </g>
     <g id="text_12">
      <!-- 0.5 -->
      <g style="fill: #262626" transform="translate(377.198701 104.003485) scale(0.132 -0.132)">
       <use xlink:href="#Roboto-Regular-30"/>
       <use xlink:href="#Roboto-Regular-2e" transform="translate(56.152344 0)"/>
       <use xlink:href="#Roboto-Regular-35" transform="translate(82.470703 0)"/>
      </g>
     </g>
    </g>
    <g id="ytick_9">
     <g id="line2d_17">
      <path d="M 361.40379 82.905887 
C 369.533886 82.905887 377.584927 84.507338 385.096156 87.618591 
C 392.607386 90.729844 399.432729 95.290393 405.181575 101.039239 
C 410.93042 106.788085 415.490969 113.613428 418.602222 121.124657 
C 421.713475 128.635886 423.314927 136.686927 423.314927 144.817023 
C 423.314927 152.947119 421.713475 160.99816 418.602222 168.509389 
C 415.490969 176.020619 410.93042 182.845962 405.181575 188.594808 
C 399.432729 194.343654 392.607386 198.904202 385.096156 202.015455 
C 377.584927 205.126708 369.533886 206.72816 361.40379 206.72816 
C 353.273694 206.72816 345.222653 205.126708 337.711424 202.015455 
C 330.200194 198.904202 323.374851 194.343654 317.626005 188.594808 
C 311.87716 182.845962 307.316611 176.020619 304.205358 168.509389 
C 301.094105 160.99816 299.492653 152.947119 299.492653 144.817023 
C 299.492653 136.686927 301.094105 128.635886 304.205358 121.124657 
C 307.316611 113.613428 311.87716 106.788085 317.626005 101.039239 
C 323.374851 95.290393 330.200194 90.729844 337.711424 87.618591 
C 345.222653 84.507338 353.273694 82.905887 361.40379 82.905887 
" clip-path="url(#p00d883d9e2)" style="fill: none; stroke: #cccccc; stroke-width: 0.8; stroke-linecap: round"/>
     </g>
    </g>
    <g id="ytick_10">
     <g id="line2d_18">
      <path d="M 361.40379 62.268841 
C 372.243918 62.268841 382.978639 64.40411 392.993612 68.552447 
C 403.008584 72.700785 412.109041 78.781516 419.774169 86.446644 
C 427.439297 94.111772 433.520029 103.212229 437.668366 113.227201 
C 441.816703 123.242174 443.951972 133.976895 443.951972 144.817023 
C 443.951972 155.657151 441.816703 166.391872 437.668366 176.406845 
C 433.520029 186.421817 427.439297 195.522275 419.774169 203.187403 
C 412.109041 210.85253 403.008584 216.933262 392.993612 221.081599 
C 382.978639 225.229936 372.243918 227.365205 361.40379 227.365205 
C 350.563662 227.365205 339.828941 225.229936 329.813968 221.081599 
C 319.798996 216.933262 310.698539 210.85253 303.033411 203.187403 
C 295.368283 195.522275 289.287551 186.421817 285.139214 176.406845 
C 280.990877 166.391872 278.855608 155.657151 278.855608 144.817023 
C 278.855608 133.976895 280.990877 123.242174 285.139214 113.227201 
C 289.287551 103.212229 295.368283 94.111772 303.033411 86.446644 
C 310.698539 78.781516 319.798996 72.700785 329.813968 68.552447 
C 339.828941 64.40411 350.563662 62.268841 361.40379 62.268841 
" clip-path="url(#p00d883d9e2)" style="fill: none; stroke: #cccccc; stroke-width: 0.8; stroke-linecap: round"/>
     </g>
     <g id="text_13">
      <!-- 1 -->
      <g style="fill: #262626" transform="translate(392.993612 65.871197) scale(0.132 -0.132)">
       <use xlink:href="#Roboto-Regular-31"/>
      </g>
     </g>
    </g>
   </g>
   <g id="patch_6">
    <path d="M 361.40379 62.268841 
L 414.24354 175.324067 
L 293.201923 184.193389 
z
" clip-path="url(#p00d883d9e2)" style="fill: #4c72b0; opacity: 0.25; stroke: #4c72b0; stroke-width: 0.8; stroke-linejoin: miter"/>
   </g>
   <g id="patch_7">
    <path d="M 361.40379 65.305889 
L 406.050779 170.593974 
L 298.720173 181.007427 
z
" clip-path="url(#p00d883d9e2)" style="fill: #dd8452; opacity: 0.25; stroke: #dd8452; stroke-width: 0.8; stroke-linejoin: miter"/>
   </g>
   <g id="line2d_19">
    <path d="M 361.40379 62.268841 
L 414.24354 175.324067 
L 293.201923 184.193389 
L 361.40379 62.268841 
" clip-path="url(#p00d883d9e2)" style="fill: none; stroke: #4c72b0; stroke-width: 1.2; stroke-linecap: round"/>
   </g>
   <g id="line2d_20">
    <path d="M 361.40379 65.305889 
L 406.050779 170.593974 
L 298.720173 181.007427 
L 361.40379 65.305889 
" clip-path="url(#p00d883d9e2)" style="fill: none; stroke: #dd8452; stroke-width: 1.2; stroke-linecap: round"/>
   </g>
   <g id="text_14">
    <!-- Embeddings models -->
    <g style="fill: #262626" transform="translate(295.650915 18) scale(0.144 -0.144)">
     <defs>
      <path id="Roboto-Bold-45" d="M 3144 1972 
L 1344 1972 
L 1344 753 
L 3456 753 
L 3456 0 
L 406 0 
L 406 4550 
L 3450 4550 
L 3450 3791 
L 1344 3791 
L 1344 2706 
L 3144 2706 
L 3144 1972 
z
" transform="scale(0.015625)"/>
      <path id="Roboto-Bold-62" d="M 3394 1659 
Q 3394 1278 3312 962 
Q 3231 647 3067 419 
Q 2903 191 2656 64 
Q 2409 -63 2078 -63 
Q 1784 -63 1570 48 
Q 1356 159 1200 359 
L 1159 0 
L 347 0 
L 347 4800 
L 1250 4800 
L 1250 3078 
Q 1400 3253 1601 3348 
Q 1803 3444 2072 3444 
Q 2403 3444 2651 3316 
Q 2900 3188 3065 2959 
Q 3231 2731 3312 2415 
Q 3394 2100 3394 1725 
L 3394 1659 
z
M 2491 1725 
Q 2491 1925 2462 2104 
Q 2434 2284 2361 2418 
Q 2288 2553 2163 2631 
Q 2038 2709 1844 2709 
Q 1616 2709 1472 2617 
Q 1328 2525 1250 2356 
L 1250 1022 
Q 1328 853 1472 759 
Q 1616 666 1850 666 
Q 2041 666 2164 741 
Q 2288 816 2361 947 
Q 2434 1078 2462 1261 
Q 2491 1444 2491 1659 
L 2491 1725 
z
" transform="scale(0.015625)"/>
      <path id="Roboto-Bold-67" d="M 216 1716 
Q 216 2100 311 2419 
Q 406 2738 582 2966 
Q 759 3194 1012 3319 
Q 1266 3444 1584 3444 
Q 1881 3444 2092 3344 
Q 2303 3244 2450 3063 
L 2488 3381 
L 3306 3381 
L 3306 116 
Q 3306 -231 3187 -500 
Q 3069 -769 2855 -955 
Q 2641 -1141 2342 -1236 
Q 2044 -1331 1681 -1331 
Q 1525 -1331 1350 -1300 
Q 1175 -1269 1004 -1203 
Q 834 -1138 681 -1038 
Q 528 -938 422 -800 
L 822 -250 
Q 981 -428 1186 -528 
Q 1391 -628 1641 -628 
Q 2000 -628 2200 -436 
Q 2400 -244 2400 109 
L 2400 291 
Q 2250 122 2047 29 
Q 1844 -63 1578 -63 
Q 1263 -63 1011 67 
Q 759 197 582 425 
Q 406 653 311 967 
Q 216 1281 216 1650 
L 216 1716 
z
M 1119 1650 
Q 1119 1444 1159 1266 
Q 1200 1088 1286 955 
Q 1372 822 1501 745 
Q 1631 669 1809 669 
Q 2025 669 2170 750 
Q 2316 831 2400 978 
L 2400 2400 
Q 2313 2550 2170 2629 
Q 2028 2709 1816 2709 
Q 1638 2709 1508 2632 
Q 1378 2556 1290 2422 
Q 1203 2288 1161 2106 
Q 1119 1925 1119 1716 
L 1119 1650 
z
" transform="scale(0.015625)"/>
     </defs>
     <use xlink:href="#Roboto-Bold-45"/>
     <use xlink:href="#Roboto-Bold-6d" transform="translate(56.25 0)"/>
     <use xlink:href="#Roboto-Bold-62" transform="translate(142.822266 0)"/>
     <use xlink:href="#Roboto-Bold-65" transform="translate(199.121094 0)"/>
     <use xlink:href="#Roboto-Bold-64" transform="translate(253.173828 0)"/>
     <use xlink:href="#Roboto-Bold-64" transform="translate(309.521484 0)"/>
     <use xlink:href="#Roboto-Bold-69" transform="translate(365.869141 0)"/>
     <use xlink:href="#Roboto-Bold-6e" transform="translate(392.382812 0)"/>
     <use xlink:href="#Roboto-Bold-67" transform="translate(448.388672 0)"/>
     <use xlink:href="#Roboto-Bold-73" transform="translate(505.46875 0)"/>
     <use xlink:href="#Roboto-Bold-20" transform="translate(556.884766 0)"/>
     <use xlink:href="#Roboto-Bold-6d" transform="translate(581.787109 0)"/>
     <use xlink:href="#Roboto-Bold-6f" transform="translate(668.359375 0)"/>
     <use xlink:href="#Roboto-Bold-64" transform="translate(724.902344 0)"/>
     <use xlink:href="#Roboto-Bold-65" transform="translate(781.25 0)"/>
     <use xlink:href="#Roboto-Bold-6c" transform="translate(835.302734 0)"/>
     <use xlink:href="#Roboto-Bold-73" transform="translate(861.816406 0)"/>
    </g>
   </g>
  </g>
  <g id="axes_3">
   <g id="legend_1">
    <g id="text_15">
     <!-- Benchmark -->
     <g style="fill: #262626" transform="translate(204.468325 255.228621) scale(0.144 -0.144)">
      <defs>
       <path id="Roboto-Bold-42" d="M 406 0 
L 406 4550 
L 2000 4550 
Q 2397 4550 2709 4475 
Q 3022 4400 3239 4245 
Q 3456 4091 3570 3856 
Q 3684 3622 3684 3303 
Q 3684 3147 3645 3003 
Q 3606 2859 3526 2734 
Q 3447 2609 3325 2507 
Q 3203 2406 3034 2341 
Q 3234 2291 3376 2189 
Q 3519 2088 3611 1953 
Q 3703 1819 3745 1661 
Q 3788 1503 3788 1338 
Q 3788 675 3361 337 
Q 2934 0 2147 0 
L 406 0 
z
M 1344 1981 
L 1344 753 
L 2147 753 
Q 2328 753 2459 798 
Q 2591 844 2678 923 
Q 2766 1003 2808 1111 
Q 2850 1219 2850 1347 
Q 2850 1494 2812 1611 
Q 2775 1728 2695 1811 
Q 2616 1894 2487 1937 
Q 2359 1981 2181 1981 
L 1344 1981 
z
M 1344 2644 
L 2038 2644 
Q 2397 2650 2572 2795 
Q 2747 2941 2747 3209 
Q 2747 3519 2567 3655 
Q 2388 3791 2000 3791 
L 1344 3791 
L 1344 2644 
z
" transform="scale(0.015625)"/>
       <path id="Roboto-Bold-63" d="M 1753 666 
Q 1878 666 1981 702 
Q 2084 738 2159 803 
Q 2234 869 2276 961 
Q 2319 1053 2322 1169 
L 3169 1169 
Q 3166 900 3056 673 
Q 2947 447 2759 283 
Q 2572 119 2317 28 
Q 2063 -63 1769 -63 
Q 1375 -63 1081 70 
Q 788 203 594 433 
Q 400 663 303 973 
Q 206 1284 206 1644 
L 206 1731 
Q 206 2091 303 2403 
Q 400 2716 594 2947 
Q 788 3178 1080 3311 
Q 1372 3444 1763 3444 
Q 2075 3444 2333 3351 
Q 2591 3259 2775 3087 
Q 2959 2916 3062 2670 
Q 3166 2425 3169 2122 
L 2322 2122 
Q 2319 2244 2280 2351 
Q 2241 2459 2169 2539 
Q 2097 2619 1990 2666 
Q 1884 2713 1747 2713 
Q 1550 2713 1425 2631 
Q 1300 2550 1229 2414 
Q 1159 2278 1134 2100 
Q 1109 1922 1109 1731 
L 1109 1644 
Q 1109 1450 1134 1272 
Q 1159 1094 1229 959 
Q 1300 825 1425 745 
Q 1550 666 1753 666 
z
" transform="scale(0.015625)"/>
       <path id="Roboto-Bold-68" d="M 1228 3013 
Q 1397 3216 1623 3330 
Q 1850 3444 2131 3444 
Q 2381 3444 2587 3373 
Q 2794 3303 2941 3145 
Q 3088 2988 3167 2738 
Q 3247 2488 3247 2131 
L 3247 0 
L 2344 0 
L 2344 2138 
Q 2344 2300 2308 2409 
Q 2272 2519 2203 2586 
Q 2134 2653 2032 2681 
Q 1931 2709 1803 2709 
Q 1591 2709 1450 2626 
Q 1309 2544 1228 2403 
L 1228 0 
L 325 0 
L 325 4800 
L 1228 4800 
L 1228 3013 
z
" transform="scale(0.015625)"/>
       <path id="Roboto-Bold-72" d="M 2247 2534 
Q 2178 2544 2086 2551 
Q 1994 2559 1922 2559 
Q 1656 2559 1492 2470 
Q 1328 2381 1250 2213 
L 1250 0 
L 347 0 
L 347 3381 
L 1200 3381 
L 1225 2978 
Q 1353 3197 1540 3320 
Q 1728 3444 1978 3444 
Q 2050 3444 2129 3431 
Q 2209 3419 2259 3403 
L 2247 2534 
z
" transform="scale(0.015625)"/>
       <path id="Roboto-Bold-6b" d="M 1575 1356 
L 1250 1031 
L 1250 0 
L 347 0 
L 347 4800 
L 1250 4800 
L 1250 2141 
L 1425 2366 
L 2291 3381 
L 3375 3381 
L 2153 1972 
L 3481 0 
L 2444 0 
L 1575 1356 
z
" transform="scale(0.015625)"/>
      </defs>
      <use xlink:href="#Roboto-Bold-42"/>
      <use xlink:href="#Roboto-Bold-65" transform="translate(63.818359 0)"/>
      <use xlink:href="#Roboto-Bold-6e" transform="translate(117.871094 0)"/>
      <use xlink:href="#Roboto-Bold-63" transform="translate(173.876953 0)"/>
      <use xlink:href="#Roboto-Bold-68" transform="translate(226.025391 0)"/>
      <use xlink:href="#Roboto-Bold-6d" transform="translate(281.982422 0)"/>
      <use xlink:href="#Roboto-Bold-61" transform="translate(368.554688 0)"/>
      <use xlink:href="#Roboto-Bold-72" transform="translate(422.167969 0)"/>
      <use xlink:href="#Roboto-Bold-6b" transform="translate(458.642578 0)"/>
     </g>
    </g>
    <g id="line2d_21">
     <path d="M 121.703481 270.033621 
L 134.903481 270.033621 
L 148.103481 270.033621 
" style="fill: none; stroke: #4c72b0; stroke-width: 1.2; stroke-linecap: round"/>
    </g>
    <g id="text_16">
     <!-- VGGSounder -->
     <g style="fill: #262626" transform="translate(158.663481 274.653621) scale(0.132 -0.132)">
      <defs>
       <path id="Roboto-Regular-47" d="M 3888 597 
Q 3822 503 3706 389 
Q 3591 275 3402 175 
Q 3213 75 2938 6 
Q 2663 -63 2278 -63 
Q 1863 -63 1514 84 
Q 1166 231 914 507 
Q 663 784 522 1186 
Q 381 1588 381 2097 
L 381 2453 
Q 381 2963 501 3363 
Q 622 3763 855 4041 
Q 1088 4319 1428 4466 
Q 1769 4613 2209 4613 
Q 2600 4613 2894 4508 
Q 3188 4403 3394 4217 
Q 3600 4031 3722 3775 
Q 3844 3519 3888 3216 
L 3288 3216 
Q 3253 3400 3179 3564 
Q 3106 3728 2978 3851 
Q 2850 3975 2662 4047 
Q 2475 4119 2213 4119 
Q 1894 4119 1662 4003 
Q 1431 3888 1281 3672 
Q 1131 3456 1057 3150 
Q 984 2844 984 2459 
L 984 2097 
Q 984 1703 1078 1393 
Q 1172 1084 1342 868 
Q 1513 653 1752 540 
Q 1991 428 2281 428 
Q 2525 428 2695 461 
Q 2866 494 2983 542 
Q 3100 591 3172 648 
Q 3244 706 3291 756 
L 3291 1778 
L 2238 1778 
L 2238 2266 
L 3888 2266 
L 3888 597 
z
" transform="scale(0.015625)"/>
       <path id="Roboto-Regular-53" d="M 2953 1150 
Q 2953 1309 2904 1431 
Q 2856 1553 2732 1654 
Q 2609 1756 2400 1845 
Q 2191 1934 1869 2028 
Q 1531 2125 1257 2248 
Q 984 2372 792 2533 
Q 600 2694 497 2900 
Q 394 3106 394 3372 
Q 394 3638 505 3864 
Q 616 4091 819 4258 
Q 1022 4425 1306 4519 
Q 1591 4613 1941 4613 
Q 2325 4613 2625 4497 
Q 2925 4381 3129 4190 
Q 3334 4000 3440 3750 
Q 3547 3500 3547 3234 
L 2944 3234 
Q 2944 3425 2883 3587 
Q 2822 3750 2697 3869 
Q 2572 3988 2384 4053 
Q 2197 4119 1941 4119 
Q 1700 4119 1522 4062 
Q 1344 4006 1228 3907 
Q 1113 3809 1056 3675 
Q 1000 3541 1000 3381 
Q 1000 3238 1061 3119 
Q 1122 3000 1250 2900 
Q 1378 2800 1579 2715 
Q 1781 2631 2063 2553 
Q 2450 2444 2731 2311 
Q 3013 2178 3195 2009 
Q 3378 1841 3467 1631 
Q 3556 1422 3556 1156 
Q 3556 878 3443 653 
Q 3331 428 3123 268 
Q 2916 109 2623 23 
Q 2331 -63 1972 -63 
Q 1763 -63 1553 -23 
Q 1344 16 1151 94 
Q 959 172 795 287 
Q 631 403 509 556 
Q 388 709 319 900 
Q 250 1091 250 1319 
L 853 1319 
Q 853 1084 945 917 
Q 1038 750 1192 640 
Q 1347 531 1548 479 
Q 1750 428 1972 428 
Q 2447 428 2700 622 
Q 2953 816 2953 1150 
z
" transform="scale(0.015625)"/>
       <path id="Roboto-Regular-6f" d="M 284 1722 
Q 284 2091 392 2405 
Q 500 2719 698 2950 
Q 897 3181 1181 3312 
Q 1466 3444 1819 3444 
Q 2178 3444 2464 3312 
Q 2750 3181 2950 2950 
Q 3150 2719 3256 2405 
Q 3363 2091 3363 1722 
L 3363 1653 
Q 3363 1284 3256 970 
Q 3150 656 2950 426 
Q 2750 197 2465 67 
Q 2181 -63 1825 -63 
Q 1469 -63 1184 67 
Q 900 197 700 426 
Q 500 656 392 970 
Q 284 1284 284 1653 
L 284 1722 
z
M 866 1653 
Q 866 1400 925 1175 
Q 984 950 1104 779 
Q 1225 609 1404 509 
Q 1584 409 1825 409 
Q 2063 409 2244 509 
Q 2425 609 2544 779 
Q 2663 950 2723 1175 
Q 2784 1400 2784 1653 
L 2784 1722 
Q 2784 1972 2723 2198 
Q 2663 2425 2542 2595 
Q 2422 2766 2240 2867 
Q 2059 2969 1819 2969 
Q 1581 2969 1403 2867 
Q 1225 2766 1104 2595 
Q 984 2425 925 2198 
Q 866 1972 866 1722 
L 866 1653 
z
" transform="scale(0.015625)"/>
       <path id="Roboto-Regular-75" d="M 2525 334 
Q 2366 147 2122 42 
Q 1878 -63 1534 -63 
Q 1284 -63 1081 7 
Q 878 78 731 229 
Q 584 381 504 620 
Q 425 859 425 1197 
L 425 3381 
L 1003 3381 
L 1003 1191 
Q 1003 963 1056 814 
Q 1109 666 1196 580 
Q 1284 494 1396 461 
Q 1509 428 1628 428 
Q 1981 428 2195 562 
Q 2409 697 2509 922 
L 2509 3381 
L 3088 3381 
L 3088 0 
L 2538 0 
L 2525 334 
z
" transform="scale(0.015625)"/>
       <path id="Roboto-Regular-6e" d="M 984 3381 
L 1003 2956 
Q 1184 3184 1440 3314 
Q 1697 3444 2016 3444 
Q 2263 3444 2463 3376 
Q 2663 3309 2803 3161 
Q 2944 3013 3020 2780 
Q 3097 2547 3097 2216 
L 3097 0 
L 2519 0 
L 2519 2222 
Q 2519 2419 2475 2558 
Q 2431 2697 2345 2784 
Q 2259 2872 2132 2912 
Q 2006 2953 1841 2953 
Q 1559 2953 1346 2803 
Q 1134 2653 1016 2409 
L 1016 0 
L 438 0 
L 438 3381 
L 984 3381 
z
" transform="scale(0.015625)"/>
       <path id="Roboto-Regular-64" d="M 297 1719 
Q 297 2106 392 2423 
Q 488 2741 663 2967 
Q 838 3194 1083 3319 
Q 1328 3444 1631 3444 
Q 1941 3444 2172 3339 
Q 2403 3234 2572 3038 
L 2572 4800 
L 3150 4800 
L 3150 0 
L 2619 0 
L 2591 363 
Q 2422 156 2184 46 
Q 1947 -63 1625 -63 
Q 1328 -63 1083 65 
Q 838 194 663 423 
Q 488 653 392 967 
Q 297 1281 297 1653 
L 297 1719 
z
M 875 1653 
Q 875 1400 926 1176 
Q 978 953 1087 787 
Q 1197 622 1365 525 
Q 1534 428 1769 428 
Q 1922 428 2044 464 
Q 2166 500 2264 565 
Q 2363 631 2439 722 
Q 2516 813 2572 922 
L 2572 2475 
Q 2516 2578 2441 2665 
Q 2366 2753 2267 2817 
Q 2169 2881 2047 2917 
Q 1925 2953 1775 2953 
Q 1538 2953 1367 2854 
Q 1197 2756 1087 2587 
Q 978 2419 926 2195 
Q 875 1972 875 1719 
L 875 1653 
z
" transform="scale(0.015625)"/>
       <path id="Roboto-Regular-65" d="M 1841 -63 
Q 1488 -63 1202 59 
Q 916 181 712 398 
Q 509 616 400 916 
Q 291 1216 291 1572 
L 291 1703 
Q 291 2116 414 2441 
Q 538 2766 744 2987 
Q 950 3209 1215 3326 
Q 1481 3444 1769 3444 
Q 2131 3444 2393 3317 
Q 2656 3191 2826 2969 
Q 2997 2747 3078 2444 
Q 3159 2141 3159 1784 
L 3159 1525 
L 869 1525 
Q 875 1291 945 1087 
Q 1016 884 1145 734 
Q 1275 584 1458 496 
Q 1641 409 1872 409 
Q 2178 409 2390 534 
Q 2603 659 2763 866 
L 3116 591 
Q 3034 466 2918 348 
Q 2803 231 2648 139 
Q 2494 47 2294 -8 
Q 2094 -63 1841 -63 
z
M 1769 2969 
Q 1594 2969 1447 2905 
Q 1300 2841 1184 2719 
Q 1069 2597 992 2415 
Q 916 2234 888 2000 
L 2581 2000 
L 2581 2044 
Q 2572 2213 2526 2378 
Q 2481 2544 2386 2675 
Q 2291 2806 2141 2887 
Q 1991 2969 1769 2969 
z
" transform="scale(0.015625)"/>
       <path id="Roboto-Regular-72" d="M 2072 2863 
Q 1997 2875 1933 2879 
Q 1869 2884 1788 2884 
Q 1488 2884 1298 2753 
Q 1109 2622 1016 2400 
L 1016 0 
L 438 0 
L 438 3381 
L 1000 3381 
L 1009 2991 
Q 1141 3200 1337 3322 
Q 1534 3444 1816 3444 
Q 1878 3444 1959 3430 
Q 2041 3416 2072 3400 
L 2072 2863 
z
" transform="scale(0.015625)"/>
      </defs>
      <use xlink:href="#Roboto-Regular-56"/>
      <use xlink:href="#Roboto-Regular-47" transform="translate(63.623047 0)"/>
      <use xlink:href="#Roboto-Regular-47" transform="translate(131.738281 0)"/>
      <use xlink:href="#Roboto-Regular-53" transform="translate(199.853516 0)"/>
      <use xlink:href="#Roboto-Regular-6f" transform="translate(259.179688 0)"/>
      <use xlink:href="#Roboto-Regular-75" transform="translate(316.210938 0)"/>
      <use xlink:href="#Roboto-Regular-6e" transform="translate(371.337891 0)"/>
      <use xlink:href="#Roboto-Regular-64" transform="translate(426.513672 0)"/>
      <use xlink:href="#Roboto-Regular-65" transform="translate(482.910156 0)"/>
      <use xlink:href="#Roboto-Regular-72" transform="translate(535.888672 0)"/>
     </g>
    </g>
    <g id="line2d_22">
     <path d="M 260.266356 270.033621 
L 273.466356 270.033621 
L 286.666356 270.033621 
" style="fill: none; stroke: #dd8452; stroke-width: 1.2; stroke-linecap: round"/>
    </g>
    <g id="text_17">
     <!-- VGGSound -->
     <g style="fill: #262626" transform="translate(297.226356 274.653621) scale(0.132 -0.132)">
      <use xlink:href="#Roboto-Regular-56"/>
      <use xlink:href="#Roboto-Regular-47" transform="translate(63.623047 0)"/>
      <use xlink:href="#Roboto-Regular-47" transform="translate(131.738281 0)"/>
      <use xlink:href="#Roboto-Regular-53" transform="translate(199.853516 0)"/>
      <use xlink:href="#Roboto-Regular-6f" transform="translate(259.179688 0)"/>
      <use xlink:href="#Roboto-Regular-75" transform="translate(316.210938 0)"/>
      <use xlink:href="#Roboto-Regular-6e" transform="translate(371.337891 0)"/>
      <use xlink:href="#Roboto-Regular-64" transform="translate(426.513672 0)"/>
     </g>
    </g>
   </g>
  </g>
 </g>
 <defs>
  <clipPath id="p2264ee1df0">
   <path d="M 203.815792 144.817023 
C 203.815792 133.976895 201.680523 123.242174 197.532186 113.227201 
C 193.383849 103.212229 187.303117 94.111772 179.637989 86.446644 
C 171.972861 78.781516 162.872404 72.700785 152.857432 68.552447 
C 142.842459 64.40411 132.107738 62.268841 121.26761 62.268841 
C 110.427482 62.268841 99.692761 64.40411 89.677788 68.552447 
C 79.662816 72.700785 70.562359 78.781516 62.897231 86.446644 
C 55.232103 94.111772 49.151371 103.212229 45.003034 113.227201 
C 40.854697 123.242174 38.719428 133.976895 38.719428 144.817023 
C 38.719428 155.657151 40.854697 166.391872 45.003034 176.406845 
C 49.151371 186.421817 55.232103 195.522275 62.897231 203.187403 
C 70.562359 210.85253 79.662816 216.933262 89.677788 221.081599 
C 99.692761 225.229936 110.427482 227.365205 121.26761 227.365205 
C 132.107738 227.365205 142.842459 225.229936 152.857432 221.081599 
C 162.872404 216.933262 171.972861 210.85253 179.637989 203.187403 
C 187.303117 195.522275 193.383849 186.421817 197.532186 176.406845 
C 201.680523 166.391872 203.815792 155.657151 203.815792 144.817023 
M 121.26761 144.817023 
C 121.26761 144.817023 121.26761 144.817023 121.26761 144.817023 
C 121.26761 144.817023 121.26761 144.817023 121.26761 144.817023 
C 121.26761 144.817023 121.26761 144.817023 121.26761 144.817023 
C 121.26761 144.817023 121.26761 144.817023 121.26761 144.817023 
C 121.26761 144.817023 121.26761 144.817023 121.26761 144.817023 
C 121.26761 144.817023 121.26761 144.817023 121.26761 144.817023 
C 121.26761 144.817023 121.26761 144.817023 121.26761 144.817023 
C 121.26761 144.817023 121.26761 144.817023 121.26761 144.817023 
C 121.26761 144.817023 121.26761 144.817023 121.26761 144.817023 
C 121.26761 144.817023 121.26761 144.817023 121.26761 144.817023 
C 121.26761 144.817023 121.26761 144.817023 121.26761 144.817023 
C 121.26761 144.817023 121.26761 144.817023 121.26761 144.817023 
C 121.26761 144.817023 121.26761 144.817023 121.26761 144.817023 
C 121.26761 144.817023 121.26761 144.817023 121.26761 144.817023 
C 121.26761 144.817023 121.26761 144.817023 121.26761 144.817023 
C 121.26761 144.817023 121.26761 144.817023 121.26761 144.817023 
z
"/>
  </clipPath>
  <clipPath id="p00d883d9e2">
   <path d="M 443.951972 144.817023 
C 443.951972 133.976895 441.816703 123.242174 437.668366 113.227201 
C 433.520029 103.212229 427.439297 94.111772 419.774169 86.446644 
C 412.109041 78.781516 403.008584 72.700785 392.993612 68.552447 
C 382.978639 64.40411 372.243918 62.268841 361.40379 62.268841 
C 350.563662 62.268841 339.828941 64.40411 329.813968 68.552447 
C 319.798996 72.700785 310.698539 78.781516 303.033411 86.446644 
C 295.368283 94.111772 289.287551 103.212229 285.139214 113.227201 
C 280.990877 123.242174 278.855608 133.976895 278.855608 144.817023 
C 278.855608 155.657151 280.990877 166.391872 285.139214 176.406845 
C 289.287551 186.421817 295.368283 195.522275 303.033411 203.187403 
C 310.698539 210.85253 319.798996 216.933262 329.813968 221.081599 
C 339.828941 225.229936 350.563662 227.365205 361.40379 227.365205 
C 372.243918 227.365205 382.978639 225.229936 392.993612 221.081599 
C 403.008584 216.933262 412.109041 210.85253 419.774169 203.187403 
C 427.439297 195.522275 433.520029 186.421817 437.668366 176.406845 
C 441.816703 166.391872 443.951972 155.657151 443.951972 144.817023 
M 361.40379 144.817023 
C 361.40379 144.817023 361.40379 144.817023 361.40379 144.817023 
C 361.40379 144.817023 361.40379 144.817023 361.40379 144.817023 
C 361.40379 144.817023 361.40379 144.817023 361.40379 144.817023 
C 361.40379 144.817023 361.40379 144.817023 361.40379 144.817023 
C 361.40379 144.817023 361.40379 144.817023 361.40379 144.817023 
C 361.40379 144.817023 361.40379 144.817023 361.40379 144.817023 
C 361.40379 144.817023 361.40379 144.817023 361.40379 144.817023 
C 361.40379 144.817023 361.40379 144.817023 361.40379 144.817023 
C 361.40379 144.817023 361.40379 144.817023 361.40379 144.817023 
C 361.40379 144.817023 361.40379 144.817023 361.40379 144.817023 
C 361.40379 144.817023 361.40379 144.817023 361.40379 144.817023 
C 361.40379 144.817023 361.40379 144.817023 361.40379 144.817023 
C 361.40379 144.817023 361.40379 144.817023 361.40379 144.817023 
C 361.40379 144.817023 361.40379 144.817023 361.40379 144.817023 
C 361.40379 144.817023 361.40379 144.817023 361.40379 144.817023 
C 361.40379 144.817023 361.40379 144.817023 361.40379 144.817023 
z
"/>
  </clipPath>
 </defs>
</svg>
