<?xml version="1.0" encoding="utf-8" standalone="no"?>
<!DOCTYPE svg PUBLIC "-//W3C//DTD SVG 1.1//EN"
  "http://www.w3.org/Graphics/SVG/1.1/DTD/svg11.dtd">
<svg xmlns:xlink="http://www.w3.org/1999/xlink" width="482.6714pt" height="295.597807pt" viewBox="0 0 482.6714 295.597807" xmlns="http://www.w3.org/2000/svg" version="1.1">
 <metadata>
  <rdf:RDF xmlns:dc="http://purl.org/dc/elements/1.1/" xmlns:cc="http://creativecommons.org/ns#" xmlns:rdf="http://www.w3.org/1999/02/22-rdf-syntax-ns#">
   <cc:Work>
    <dc:type rdf:resource="http://purl.org/dc/dcmitype/StillImage"/>
    <dc:date>2026-06-02T21:57:36.696587</dc:date>
    <dc:format>image/svg+xml</dc:format>
    <dc:creator>
     <cc:Agent>
      <dc:title>Matplotlib v3.10.9, https://matplotlib.org/</dc:title>
     </cc:Agent>
    </dc:creator>
   </cc:Work>
  </rdf:RDF>
 </metadata>
 <defs>
  <style type="text/css">*{stroke-linejoin: round; stroke-linecap: butt}</style>
 </defs>
 <g id="figure_1">
  <g id="patch_1">
   <path d="M 0 295.597807 
L 482.6714 295.597807 
L 482.6714 0 
L 0 0 
z
" style="fill: #ffffff"/>
  </g>
  <g id="axes_1">
   <g id="patch_2">
    <path d="M 203.815792 144.817023 
C 203.815792 133.976895 201.680523 123.242174 197.532186 113.227201 
C 193.383849 103.212229 187.303117 94.111772 179.637989 86.446644 
C 171.972861 78.781516 162.872404 72.700785 152.857432 68.552447 
C 142.842459 64.40411 132.107738 62.268841 121.26761 62.268841 
C 110.427482 62.268841 99.692761 64.40411 89.677788 68.552447 
C 79.662816 72.700785 70.562359 78.781516 62.897231 86.446644 
C 55.232103 94.111772 49.151371 103.212229 45.003034 113.227201 
C 40.854697 123.242174 38.719428 133.976895 38.719428 144.817023 
C 38.719428 155.657151 40.854697 166.391872 45.003034 176.406845 
C 49.151371 186.421817 55.232103 195.522275 62.897231 203.187403 
C 70.562359 210.85253 79.662816 216.933262 89.677788 221.081599 
C 99.692761 225.229936 110.427482 227.365205 121.26761 227.365205 
C 132.107738 227.365205 142.842459 225.229936 152.857432 221.081599 
C 162.872404 216.933262 171.972861 210.85253 179.637989 203.187403 
C 187.303117 195.522275 193.383849 186.421817 197.532186 176.406845 
C 201.680523 166.391872 203.815792 155.657151 203.815792 144.817023 
M 121.26761 144.817023 
C 121.26761 144.817023 121.26761 144.817023 121.26761 144.817023 
C 121.26761 144.817023 121.26761 144.817023 121.26761 144.817023 
C 121.26761 144.817023 121.26761 144.817023 121.26761 144.817023 
C 121.26761 144.817023 121.26761 144.817023 121.26761 144.817023 
C 121.26761 144.817023 121.26761 144.817023 121.26761 144.817023 
C 121.26761 144.817023 121.26761 144.817023 121.26761 144.817023 
C 121.26761 144.817023 121.26761 144.817023 121.26761 144.817023 
C 121.26761 144.817023 121.26761 144.817023 121.26761 144.817023 
C 121.26761 144.817023 121.26761 144.817023 121.26761 144.817023 
C 121.26761 144.817023 121.26761 144.817023 121.26761 144.817023 
C 121.26761 144.817023 121.26761 144.817023 121.26761 144.817023 
C 121.26761 144.817023 121.26761 144.817023 121.26761 144.817023 
C 121.26761 144.817023 121.26761 144.817023 121.26761 144.817023 
C 121.26761 144.817023 121.26761 144.817023 121.26761 144.817023 
C 121.26761 144.817023 121.26761 144.817023 121.26761 144.817023 
C 121.26761 144.817023 121.26761 144.817023 121.26761 144.817023 
z
" style="fill: #ffffff"/>
   </g>
   <g id="matplotlib.axis_1">
    <g id="xtick_1">
     <g id="line2d_1">
      <path d="M 121.26761 144.817023 
L 121.26761 62.268841 
" clip-path="url(#p458ea9b026)" style="fill: none; stroke: #cccccc; stroke-width: 0.8; stroke-linecap: round"/>
     </g>
     <g id="text_1">
      <!-- AV -->
      <g style="fill: #262626" transform="translate(112.759797 50.578216) scale(0.132 -0.132)">
       <defs>
        <path id="Roboto-Regular-41" d="M 91 0 
L 1825 4550 
L 2353 4550 
L 4094 0 
L 3475 0 
L 3041 1191 
L 1138 1191 
L 706 0 
L 91 0 
z
M 1319 1684 
L 2863 1684 
L 2091 3806 
L 1319 1684 
z
" transform="scale(0.015625)"/>
        <path id="Roboto-Regular-56" d="M 3991 4550 
L 2306 0 
L 1772 0 
L 91 4550 
L 744 4550 
L 2034 800 
L 3338 4550 
L 3991 4550 
z
" transform="scale(0.015625)"/>
       </defs>
       <use xlink:href="#Roboto-Regular-41"/>
       <use xlink:href="#Roboto-Regular-56" transform="translate(65.234375 0)"/>
      </g>
     </g>
    </g>
    <g id="xtick_2">
     <g id="line2d_2">
      <path d="M 121.26761 144.817023 
L 192.756433 186.091114 
" clip-path="url(#p458ea9b026)" style="fill: none; stroke: #cccccc; stroke-width: 0.8; stroke-linecap: round"/>
     </g>
     <g id="text_2">
      <!-- V -->
      <g style="fill: #262626" transform="translate(201.804278 197.350489) scale(0.132 -0.132)">
       <use xlink:href="#Roboto-Regular-56"/>
      </g>
     </g>
    </g>
    <g id="xtick_3">
     <g id="line2d_3">
      <path d="M 121.26761 144.817023 
L 49.778787 186.091114 
" clip-path="url(#p458ea9b026)" style="fill: none; stroke: #cccccc; stroke-width: 0.8; stroke-linecap: round"/>
     </g>
     <g id="text_3">
      <!-- A -->
      <g style="fill: #262626" transform="translate(32.22313 197.350489) scale(0.132 -0.132)">
       <use xlink:href="#Roboto-Regular-41"/>
      </g>
     </g>
    </g>
   </g>
   <g id="matplotlib.axis_2">
    <g id="ytick_1">
     <g id="line2d_4">
      <path d="M 121.26761 144.817023 
C 121.26761 144.817023 121.26761 144.817023 121.26761 144.817023 
C 121.26761 144.817023 121.26761 144.817023 121.26761 144.817023 
C 121.26761 144.817023 121.26761 144.817023 121.26761 144.817023 
C 121.26761 144.817023 121.26761 144.817023 121.26761 144.817023 
C 121.26761 144.817023 121.26761 144.817023 121.26761 144.817023 
C 121.26761 144.817023 121.26761 144.817023 121.26761 144.817023 
C 121.26761 144.817023 121.26761 144.817023 121.26761 144.817023 
C 121.26761 144.817023 121.26761 144.817023 121.26761 144.817023 
C 121.26761 144.817023 121.26761 144.817023 121.26761 144.817023 
C 121.26761 144.817023 121.26761 144.817023 121.26761 144.817023 
C 121.26761 144.817023 121.26761 144.817023 121.26761 144.817023 
C 121.26761 144.817023 121.26761 144.817023 121.26761 144.817023 
C 121.26761 144.817023 121.26761 144.817023 121.26761 144.817023 
C 121.26761 144.817023 121.26761 144.817023 121.26761 144.817023 
C 121.26761 144.817023 121.26761 144.817023 121.26761 144.817023 
C 121.26761 144.817023 121.26761 144.817023 121.26761 144.817023 
" clip-path="url(#p458ea9b026)" style="fill: none; stroke: #cccccc; stroke-width: 0.8; stroke-linecap: round"/>
     </g>
     <g id="text_4">
      <!-- 0 -->
      <g style="fill: #262626" transform="translate(121.26761 142.135773) scale(0.132 -0.132)">
       <defs>
        <path id="Roboto-Regular-30" d="M 3234 1944 
Q 3234 825 2848 381 
Q 2463 -63 1800 -63 
Q 1156 -63 764 368 
Q 372 800 359 1872 
L 359 2638 
Q 359 3753 750 4183 
Q 1141 4613 1794 4613 
Q 2447 4613 2834 4195 
Q 3222 3778 3234 2709 
L 3234 1944 
z
M 2653 2734 
Q 2653 3503 2434 3822 
Q 2216 4141 1794 4141 
Q 1388 4141 1167 3831 
Q 947 3522 941 2778 
L 941 1850 
Q 941 1088 1164 750 
Q 1388 413 1800 413 
Q 2222 413 2436 745 
Q 2650 1078 2653 1825 
L 2653 2734 
z
" transform="scale(0.015625)"/>
       </defs>
       <use xlink:href="#Roboto-Regular-30"/>
      </g>
     </g>
    </g>
    <g id="ytick_2">
     <g id="line2d_5">
      <path d="M 121.26761 124.179978 
C 123.977642 124.179978 126.661322 124.713795 129.165065 125.750879 
C 131.668809 126.787964 133.943923 128.308146 135.860205 130.224428 
C 137.776487 132.14071 139.29667 134.415825 140.333754 136.919568 
C 141.370838 139.423311 141.904656 142.106991 141.904656 144.817023 
C 141.904656 147.527055 141.370838 150.210735 140.333754 152.714479 
C 139.29667 155.218222 137.776487 157.493336 135.860205 159.409618 
C 133.943923 161.3259 131.668809 162.846083 129.165065 163.883167 
C 126.661322 164.920251 123.977642 165.454069 121.26761 165.454069 
C 118.557578 165.454069 115.873898 164.920251 113.370155 163.883167 
C 110.866411 162.846083 108.591297 161.3259 106.675015 159.409618 
C 104.758733 157.493336 103.23855 155.218222 102.201466 152.714479 
C 101.164382 150.210735 100.630564 147.527055 100.630564 144.817023 
C 100.630564 142.106991 101.164382 139.423311 102.201466 136.919568 
C 103.23855 134.415825 104.758733 132.14071 106.675015 130.224428 
C 108.591297 128.308146 110.866411 126.787964 113.370155 125.750879 
C 115.873898 124.713795 118.557578 124.179978 121.26761 124.179978 
" clip-path="url(#p458ea9b026)" style="fill: none; stroke: #cccccc; stroke-width: 0.8; stroke-linecap: round"/>
     </g>
    </g>
    <g id="ytick_3">
     <g id="line2d_6">
      <path d="M 121.26761 103.542932 
C 126.687674 103.542932 132.055035 104.610567 137.062521 106.684735 
C 142.070007 108.758904 146.620236 111.799269 150.4528 115.631833 
C 154.285364 119.464397 157.325729 124.014626 159.399898 129.022112 
C 161.474067 134.029599 162.541701 139.396959 162.541701 144.817023 
C 162.541701 150.237087 161.474067 155.604448 159.399898 160.611934 
C 157.325729 165.61942 154.285364 170.169649 150.4528 174.002213 
C 146.620236 177.834777 142.070007 180.875142 137.062521 182.949311 
C 132.055035 185.02348 126.687674 186.091114 121.26761 186.091114 
C 115.847546 186.091114 110.480185 185.02348 105.472699 182.949311 
C 100.465213 180.875142 95.914984 177.834777 92.08242 174.002213 
C 88.249856 170.169649 85.209491 165.61942 83.135322 160.611934 
C 81.061153 155.604448 79.993519 150.237087 79.993519 144.817023 
C 79.993519 139.396959 81.061153 134.029599 83.135322 129.022112 
C 85.209491 124.014626 88.249856 119.464397 92.08242 115.631833 
C 95.914984 111.799269 100.465213 108.758904 105.472699 106.684735 
C 110.480185 104.610567 115.847546 103.542932 121.26761 103.542932 
" clip-path="url(#p458ea9b026)" style="fill: none; stroke: #cccccc; stroke-width: 0.8; stroke-linecap: round"/>
     </g>
     <g id="text_5">
      <!-- 0.5 -->
      <g style="fill: #262626" transform="translate(137.062521 104.003485) scale(0.132 -0.132)">
       <defs>
        <path id="Roboto-Regular-2e" d="M 450 306 
Q 450 453 542 554 
Q 634 656 809 656 
Q 984 656 1076 554 
Q 1169 453 1169 306 
Q 1169 163 1076 62 
Q 984 -38 809 -38 
Q 634 -38 542 62 
Q 450 163 450 306 
z
" transform="scale(0.015625)"/>
        <path id="Roboto-Regular-35" d="M 1109 2166 
L 647 2284 
L 875 4550 
L 3209 4550 
L 3209 4016 
L 1366 4016 
L 1228 2778 
Q 1572 2975 1988 2975 
Q 2616 2975 2980 2561 
Q 3344 2147 3344 1450 
Q 3344 797 2987 367 
Q 2631 -63 1903 -63 
Q 1350 -63 947 248 
Q 544 559 481 1197 
L 1031 1197 
Q 1141 413 1903 413 
Q 2313 413 2538 691 
Q 2763 969 2763 1444 
Q 2763 1872 2527 2164 
Q 2291 2456 1853 2456 
Q 1563 2456 1413 2378 
Q 1263 2300 1109 2166 
z
" transform="scale(0.015625)"/>
       </defs>
       <use xlink:href="#Roboto-Regular-30"/>
       <use xlink:href="#Roboto-Regular-2e" transform="translate(56.201172 0)"/>
       <use xlink:href="#Roboto-Regular-35" transform="translate(82.568359 0)"/>
      </g>
     </g>
    </g>
    <g id="ytick_4">
     <g id="line2d_7">
      <path d="M 121.26761 82.905887 
C 129.397706 82.905887 137.448747 84.507338 144.959976 87.618591 
C 152.471206 90.729844 159.296549 95.290393 165.045395 101.039239 
C 170.79424 106.788085 175.354789 113.613428 178.466042 121.124657 
C 181.577295 128.635886 183.178747 136.686927 183.178747 144.817023 
C 183.178747 152.947119 181.577295 160.99816 178.466042 168.509389 
C 175.354789 176.020619 170.79424 182.845962 165.045395 188.594808 
C 159.296549 194.343654 152.471206 198.904202 144.959976 202.015455 
C 137.448747 205.126708 129.397706 206.72816 121.26761 206.72816 
C 113.137514 206.72816 105.086473 205.126708 97.575244 202.015455 
C 90.064014 198.904202 83.238671 194.343654 77.489825 188.594808 
C 71.74098 182.845962 67.180431 176.020619 64.069178 168.509389 
C 60.957925 160.99816 59.356473 152.947119 59.356473 144.817023 
C 59.356473 136.686927 60.957925 128.635886 64.069178 121.124657 
C 67.180431 113.613428 71.74098 106.788085 77.489825 101.039239 
C 83.238671 95.290393 90.064014 90.729844 97.575244 87.618591 
C 105.086473 84.507338 113.137514 82.905887 121.26761 82.905887 
" clip-path="url(#p458ea9b026)" style="fill: none; stroke: #cccccc; stroke-width: 0.8; stroke-linecap: round"/>
     </g>
    </g>
    <g id="ytick_5">
     <g id="line2d_8">
      <path d="M 121.26761 62.268841 
C 132.107738 62.268841 142.842459 64.40411 152.857432 68.552447 
C 162.872404 72.700785 171.972861 78.781516 179.637989 86.446644 
C 187.303117 94.111772 193.383849 103.212229 197.532186 113.227201 
C 201.680523 123.242174 203.815792 133.976895 203.815792 144.817023 
C 203.815792 155.657151 201.680523 166.391872 197.532186 176.406845 
C 193.383849 186.421817 187.303117 195.522275 179.637989 203.187403 
C 171.972861 210.85253 162.872404 216.933262 152.857432 221.081599 
C 142.842459 225.229936 132.107738 227.365205 121.26761 227.365205 
C 110.427482 227.365205 99.692761 225.229936 89.677788 221.081599 
C 79.662816 216.933262 70.562359 210.85253 62.897231 203.187403 
C 55.232103 195.522275 49.151371 186.421817 45.003034 176.406845 
C 40.854697 166.391872 38.719428 155.657151 38.719428 144.817023 
C 38.719428 133.976895 40.854697 123.242174 45.003034 113.227201 
C 49.151371 103.212229 55.232103 94.111772 62.897231 86.446644 
C 70.562359 78.781516 79.662816 72.700785 89.677788 68.552447 
C 99.692761 64.40411 110.427482 62.268841 121.26761 62.268841 
" clip-path="url(#p458ea9b026)" style="fill: none; stroke: #cccccc; stroke-width: 0.8; stroke-linecap: round"/>
     </g>
     <g id="text_6">
      <!-- 1 -->
      <g style="fill: #262626" transform="translate(152.857432 65.871197) scale(0.132 -0.132)">
       <defs>
        <path id="Roboto-Regular-31" d="M 2278 4575 
L 2278 0 
L 1700 0 
L 1700 3853 
L 534 3428 
L 534 3950 
L 2188 4575 
L 2278 4575 
z
" transform="scale(0.015625)"/>
       </defs>
       <use xlink:href="#Roboto-Regular-31"/>
      </g>
     </g>
    </g>
   </g>
   <g id="patch_3">
    <path d="M 121.26761 62.268841 
L 175.253193 175.985614 
L 68.298139 175.398962 
z
" clip-path="url(#p458ea9b026)" style="fill: #4c72b0; opacity: 0.25; stroke: #4c72b0; stroke-width: 0.8; stroke-linejoin: miter"/>
   </g>
   <g id="patch_4">
    <path d="M 121.26761 92.323585 
L 153.812718 163.60695 
L 100.637562 156.727787 
z
" clip-path="url(#p458ea9b026)" style="fill: #dd8452; opacity: 0.25; stroke: #dd8452; stroke-width: 0.8; stroke-linejoin: miter"/>
   </g>
   <g id="line2d_9">
    <path d="M 121.26761 62.268841 
L 175.253193 175.985614 
L 68.298139 175.398962 
L 121.26761 62.268841 
" clip-path="url(#p458ea9b026)" style="fill: none; stroke: #4c72b0; stroke-width: 1.2; stroke-linecap: round"/>
   </g>
   <g id="line2d_10">
    <path d="M 121.26761 92.323585 
L 153.812718 163.60695 
L 100.637562 156.727787 
L 121.26761 92.323585 
" clip-path="url(#p458ea9b026)" style="fill: none; stroke: #dd8452; stroke-width: 1.2; stroke-linecap: round"/>
   </g>
   <g id="text_7">
    <!-- Foundation models -->
    <g style="fill: #262626" transform="translate(59.15411 18.06975) scale(0.144 -0.144)">
     <defs>
      <path id="Roboto-Bold-46" d="M 406 0 
L 406 4550 
L 3372 4550 
L 3372 3791 
L 1347 3791 
L 1347 2616 
L 3147 2616 
L 3147 1859 
L 1347 1859 
L 1347 0 
L 406 0 
z
" transform="scale(0.015625)"/>
      <path id="Roboto-Bold-6f" d="M 206 1722 
Q 206 2459 625 2951 
Q 1044 3444 1806 3444 
Q 2578 3444 2993 2951 
Q 3409 2459 3409 1722 
L 3409 1656 
Q 3409 919 2993 428 
Q 2578 -63 1813 -63 
Q 1053 -63 636 415 
Q 219 894 206 1616 
L 206 1722 
z
M 1113 1656 
Q 1113 1244 1270 955 
Q 1428 666 1813 666 
Q 2191 666 2348 953 
Q 2506 1241 2506 1722 
Q 2506 2125 2348 2420 
Q 2191 2716 1806 2716 
Q 1425 2716 1269 2422 
Q 1113 2128 1113 1656 
z
" transform="scale(0.015625)"/>
      <path id="Roboto-Bold-75" d="M 2400 0 
L 2375 347 
Q 2044 -63 1450 -63 
Q 953 -63 642 228 
Q 331 519 328 1181 
L 328 3381 
L 1231 3381 
L 1231 1188 
Q 1231 906 1365 789 
Q 1500 672 1709 672 
Q 2169 672 2344 994 
L 2344 3381 
L 3250 3381 
L 3250 0 
L 2400 0 
z
" transform="scale(0.015625)"/>
      <path id="Roboto-Bold-6e" d="M 1806 2713 
Q 1422 2713 1234 2388 
L 1234 0 
L 331 0 
L 331 3381 
L 1178 3381 
L 1209 2994 
Q 1572 3444 2181 3444 
Q 2659 3444 2953 3159 
Q 3247 2875 3250 2169 
L 3250 0 
L 2344 0 
L 2344 2156 
Q 2344 2481 2205 2597 
Q 2066 2713 1806 2713 
z
" transform="scale(0.015625)"/>
      <path id="Roboto-Bold-64" d="M 2438 0 
L 2394 359 
Q 2059 -63 1528 -63 
Q 900 -63 553 425 
Q 206 913 206 1650 
L 206 1716 
Q 206 2488 553 2966 
Q 900 3444 1534 3444 
Q 2028 3444 2347 3078 
L 2347 4800 
L 3253 4800 
L 3253 0 
L 2438 0 
z
M 1113 1650 
Q 1113 1244 1256 958 
Q 1400 672 1756 672 
Q 2169 672 2347 1022 
L 2347 2363 
Q 2175 2713 1763 2713 
Q 1409 2713 1261 2425 
Q 1113 2138 1113 1650 
z
" transform="scale(0.015625)"/>
      <path id="Roboto-Bold-61" d="M 2306 0 
Q 2250 119 2216 303 
Q 1888 -63 1363 -63 
Q 878 -63 547 223 
Q 216 509 216 950 
Q 216 1481 609 1773 
Q 1003 2066 1775 2066 
L 2178 2066 
L 2178 2263 
Q 2178 2497 2058 2636 
Q 1938 2775 1678 2775 
Q 1194 2775 1194 2369 
L 291 2369 
Q 291 2809 681 3126 
Q 1072 3444 1728 3444 
Q 2313 3444 2698 3147 
Q 3084 2850 3084 2256 
L 3084 750 
Q 3091 300 3219 53 
L 3219 0 
L 2306 0 
z
M 1559 628 
Q 1788 628 1948 729 
Q 2109 831 2178 953 
L 2178 1541 
L 1809 1541 
Q 1450 1541 1284 1389 
Q 1119 1238 1119 1016 
Q 1119 847 1236 737 
Q 1353 628 1559 628 
z
" transform="scale(0.015625)"/>
      <path id="Roboto-Bold-74" d="M 2041 22 
Q 1788 -63 1497 -63 
Q 1053 -63 790 168 
Q 528 400 528 938 
L 528 2722 
L 31 2722 
L 31 3381 
L 528 3381 
L 528 4216 
L 1431 4216 
L 1431 3381 
L 2006 3381 
L 2006 2722 
L 1431 2722 
L 1431 1031 
Q 1431 819 1518 750 
Q 1606 681 1778 681 
Q 1916 681 2041 706 
L 2041 22 
z
" transform="scale(0.015625)"/>
      <path id="Roboto-Bold-69" d="M 341 4256 
Q 341 4459 478 4592 
Q 616 4725 847 4725 
Q 1078 4725 1215 4592 
Q 1353 4459 1353 4256 
Q 1353 4056 1215 3923 
Q 1078 3791 847 3791 
Q 616 3791 478 3923 
Q 341 4056 341 4256 
z
M 1303 3381 
L 1303 0 
L 397 0 
L 397 3381 
L 1303 3381 
z
" transform="scale(0.015625)"/>
      <path id="Roboto-Bold-20" transform="scale(0.015625)"/>
      <path id="Roboto-Bold-6d" d="M 1806 2713 
Q 1431 2713 1253 2394 
L 1253 0 
L 347 0 
L 347 3381 
L 1197 3381 
L 1228 3009 
Q 1581 3444 2197 3444 
Q 2850 3444 3094 2928 
Q 3441 3444 4109 3444 
Q 4597 3444 4894 3156 
Q 5191 2869 5194 2169 
L 5194 0 
L 4288 0 
L 4288 2156 
Q 4288 2494 4152 2603 
Q 4016 2713 3781 2713 
Q 3381 2713 3222 2334 
L 3222 0 
L 2319 0 
L 2319 2150 
Q 2319 2484 2181 2598 
Q 2044 2713 1806 2713 
z
" transform="scale(0.015625)"/>
      <path id="Roboto-Bold-65" d="M 3225 550 
Q 3063 319 2731 128 
Q 2400 -63 1906 -63 
Q 1119 -63 675 414 
Q 231 891 228 1566 
L 228 1697 
Q 228 2463 654 2953 
Q 1081 3444 1806 3444 
Q 2534 3444 2915 2987 
Q 3297 2531 3297 1781 
L 3297 1397 
L 1144 1397 
Q 1191 1069 1403 867 
Q 1616 666 1963 666 
Q 2478 666 2778 1044 
L 3225 550 
z
M 1800 2716 
Q 1513 2716 1356 2522 
Q 1200 2328 1153 2016 
L 2409 2016 
L 2409 2084 
Q 2403 2356 2258 2536 
Q 2113 2716 1800 2716 
z
" transform="scale(0.015625)"/>
      <path id="Roboto-Bold-6c" d="M 1303 4800 
L 1303 0 
L 397 0 
L 397 4800 
L 1303 4800 
z
" transform="scale(0.015625)"/>
      <path id="Roboto-Bold-73" d="M 2178 938 
Q 2178 1081 2045 1179 
Q 1913 1278 1475 1372 
Q 953 1484 618 1721 
Q 284 1959 284 2394 
Q 284 2816 642 3130 
Q 1000 3444 1631 3444 
Q 2291 3444 2669 3134 
Q 3047 2825 3047 2353 
L 2144 2353 
Q 2144 2547 2019 2675 
Q 1894 2803 1628 2803 
Q 1403 2803 1276 2698 
Q 1150 2594 1150 2438 
Q 1150 2294 1284 2200 
Q 1419 2106 1781 2034 
Q 2331 1925 2693 1700 
Q 3056 1475 3056 972 
Q 3056 525 2672 231 
Q 2288 -63 1634 -63 
Q 925 -63 550 301 
Q 175 666 175 1078 
L 1034 1078 
Q 1047 813 1230 697 
Q 1413 581 1653 581 
Q 2178 581 2178 938 
z
" transform="scale(0.015625)"/>
     </defs>
     <use xlink:href="#Roboto-Bold-46"/>
     <use xlink:href="#Roboto-Bold-6f" transform="translate(54.833984 0)"/>
     <use xlink:href="#Roboto-Bold-75" transform="translate(111.376953 0)"/>
     <use xlink:href="#Roboto-Bold-6e" transform="translate(167.382812 0)"/>
     <use xlink:href="#Roboto-Bold-64" transform="translate(223.388672 0)"/>
     <use xlink:href="#Roboto-Bold-61" transform="translate(279.785156 0)"/>
     <use xlink:href="#Roboto-Bold-74" transform="translate(333.398438 0)"/>
     <use xlink:href="#Roboto-Bold-69" transform="translate(367.1875 0)"/>
     <use xlink:href="#Roboto-Bold-6f" transform="translate(393.701172 0)"/>
     <use xlink:href="#Roboto-Bold-6e" transform="translate(450.244141 0)"/>
     <use xlink:href="#Roboto-Bold-20" transform="translate(506.25 0)"/>
     <use xlink:href="#Roboto-Bold-6d" transform="translate(531.152344 0)"/>
     <use xlink:href="#Roboto-Bold-6f" transform="translate(617.724609 0)"/>
     <use xlink:href="#Roboto-Bold-64" transform="translate(674.267578 0)"/>
     <use xlink:href="#Roboto-Bold-65" transform="translate(730.664062 0)"/>
     <use xlink:href="#Roboto-Bold-6c" transform="translate(784.716797 0)"/>
     <use xlink:href="#Roboto-Bold-73" transform="translate(811.230469 0)"/>
    </g>
   </g>
  </g>
  <g id="axes_2">
   <g id="patch_5">
    <path d="M 443.951972 144.817023 
C 443.951972 133.976895 441.816703 123.242174 437.668366 113.227201 
C 433.520029 103.212229 427.439297 94.111772 419.774169 86.446644 
C 412.109041 78.781516 403.008584 72.700785 392.993612 68.552447 
C 382.978639 64.40411 372.243918 62.268841 361.40379 62.268841 
C 350.563662 62.268841 339.828941 64.40411 329.813968 68.552447 
C 319.798996 72.700785 310.698539 78.781516 303.033411 86.446644 
C 295.368283 94.111772 289.287551 103.212229 285.139214 113.227201 
C 280.990877 123.242174 278.855608 133.976895 278.855608 144.817023 
C 278.855608 155.657151 280.990877 166.391872 285.139214 176.406845 
C 289.287551 186.421817 295.368283 195.522275 303.033411 203.187403 
C 310.698539 210.85253 319.798996 216.933262 329.813968 221.081599 
C 339.828941 225.229936 350.563662 227.365205 361.40379 227.365205 
C 372.243918 227.365205 382.978639 225.229936 392.993612 221.081599 
C 403.008584 216.933262 412.109041 210.85253 419.774169 203.187403 
C 427.439297 195.522275 433.520029 186.421817 437.668366 176.406845 
C 441.816703 166.391872 443.951972 155.657151 443.951972 144.817023 
M 361.40379 144.817023 
C 361.40379 144.817023 361.40379 144.817023 361.40379 144.817023 
C 361.40379 144.817023 361.40379 144.817023 361.40379 144.817023 
C 361.40379 144.817023 361.40379 144.817023 361.40379 144.817023 
C 361.40379 144.817023 361.40379 144.817023 361.40379 144.817023 
C 361.40379 144.817023 361.40379 144.817023 361.40379 144.817023 
C 361.40379 144.817023 361.40379 144.817023 361.40379 144.817023 
C 361.40379 144.817023 361.40379 144.817023 361.40379 144.817023 
C 361.40379 144.817023 361.40379 144.817023 361.40379 144.817023 
C 361.40379 144.817023 361.40379 144.817023 361.40379 144.817023 
C 361.40379 144.817023 361.40379 144.817023 361.40379 144.817023 
C 361.40379 144.817023 361.40379 144.817023 361.40379 144.817023 
C 361.40379 144.817023 361.40379 144.817023 361.40379 144.817023 
C 361.40379 144.817023 361.40379 144.817023 361.40379 144.817023 
C 361.40379 144.817023 361.40379 144.817023 361.40379 144.817023 
C 361.40379 144.817023 361.40379 144.817023 361.40379 144.817023 
C 361.40379 144.817023 361.40379 144.817023 361.40379 144.817023 
z
" style="fill: #ffffff"/>
   </g>
   <g id="matplotlib.axis_3">
    <g id="xtick_4">
     <g id="line2d_11">
      <path d="M 361.40379 144.817023 
L 361.40379 62.268841 
" clip-path="url(#p5fcdf38a14)" style="fill: none; stroke: #cccccc; stroke-width: 0.8; stroke-linecap: round"/>
     </g>
     <g id="text_8">
      <!-- AV -->
      <g style="fill: #262626" transform="translate(352.895978 50.578216) scale(0.132 -0.132)">
       <use xlink:href="#Roboto-Regular-41"/>
       <use xlink:href="#Roboto-Regular-56" transform="translate(65.234375 0)"/>
      </g>
     </g>
    </g>
    <g id="xtick_5">
     <g id="line2d_12">
      <path d="M 361.40379 144.817023 
L 432.892613 186.091114 
" clip-path="url(#p5fcdf38a14)" style="fill: none; stroke: #cccccc; stroke-width: 0.8; stroke-linecap: round"/>
     </g>
     <g id="text_9">
      <!-- V -->
      <g style="fill: #262626" transform="translate(441.940458 197.350489) scale(0.132 -0.132)">
       <use xlink:href="#Roboto-Regular-56"/>
      </g>
     </g>
    </g>
    <g id="xtick_6">
     <g id="line2d_13">
      <path d="M 361.40379 144.817023 
L 289.914967 186.091114 
" clip-path="url(#p5fcdf38a14)" style="fill: none; stroke: #cccccc; stroke-width: 0.8; stroke-linecap: round"/>
     </g>
     <g id="text_10">
      <!-- A -->
      <g style="fill: #262626" transform="translate(272.35931 197.350489) scale(0.132 -0.132)">
       <use xlink:href="#Roboto-Regular-41"/>
      </g>
     </g>
    </g>
   </g>
   <g id="matplotlib.axis_4">
    <g id="ytick_6">
     <g id="line2d_14">
      <path d="M 361.40379 144.817023 
C 361.40379 144.817023 361.40379 144.817023 361.40379 144.817023 
C 361.40379 144.817023 361.40379 144.817023 361.40379 144.817023 
C 361.40379 144.817023 361.40379 144.817023 361.40379 144.817023 
C 361.40379 144.817023 361.40379 144.817023 361.40379 144.817023 
C 361.40379 144.817023 361.40379 144.817023 361.40379 144.817023 
C 361.40379 144.817023 361.40379 144.817023 361.40379 144.817023 
C 361.40379 144.817023 361.40379 144.817023 361.40379 144.817023 
C 361.40379 144.817023 361.40379 144.817023 361.40379 144.817023 
C 361.40379 144.817023 361.40379 144.817023 361.40379 144.817023 
C 361.40379 144.817023 361.40379 144.817023 361.40379 144.817023 
C 361.40379 144.817023 361.40379 144.817023 361.40379 144.817023 
C 361.40379 144.817023 361.40379 144.817023 361.40379 144.817023 
C 361.40379 144.817023 361.40379 144.817023 361.40379 144.817023 
C 361.40379 144.817023 361.40379 144.817023 361.40379 144.817023 
C 361.40379 144.817023 361.40379 144.817023 361.40379 144.817023 
C 361.40379 144.817023 361.40379 144.817023 361.40379 144.817023 
" clip-path="url(#p5fcdf38a14)" style="fill: none; stroke: #cccccc; stroke-width: 0.8; stroke-linecap: round"/>
     </g>
     <g id="text_11">
      <!-- 0 -->
      <g style="fill: #262626" transform="translate(361.40379 142.135773) scale(0.132 -0.132)">
       <use xlink:href="#Roboto-Regular-30"/>
      </g>
     </g>
    </g>
    <g id="ytick_7">
     <g id="line2d_15">
      <path d="M 361.40379 124.179978 
C 364.113822 124.179978 366.797502 124.713795 369.301245 125.750879 
C 371.804989 126.787964 374.080103 128.308146 375.996385 130.224428 
C 377.912667 132.14071 379.43285 134.415825 380.469934 136.919568 
C 381.507018 139.423311 382.040836 142.106991 382.040836 144.817023 
C 382.040836 147.527055 381.507018 150.210735 380.469934 152.714479 
C 379.43285 155.218222 377.912667 157.493336 375.996385 159.409618 
C 374.080103 161.3259 371.804989 162.846083 369.301245 163.883167 
C 366.797502 164.920251 364.113822 165.454069 361.40379 165.454069 
C 358.693758 165.454069 356.010078 164.920251 353.506335 163.883167 
C 351.002591 162.846083 348.727477 161.3259 346.811195 159.409618 
C 344.894913 157.493336 343.37473 155.218222 342.337646 152.714479 
C 341.300562 150.210735 340.766744 147.527055 340.766744 144.817023 
C 340.766744 142.106991 341.300562 139.423311 342.337646 136.919568 
C 343.37473 134.415825 344.894913 132.14071 346.811195 130.224428 
C 348.727477 128.308146 351.002591 126.787964 353.506335 125.750879 
C 356.010078 124.713795 358.693758 124.179978 361.40379 124.179978 
" clip-path="url(#p5fcdf38a14)" style="fill: none; stroke: #cccccc; stroke-width: 0.8; stroke-linecap: round"/>
     </g>
    </g>
    <g id="ytick_8">
     <g id="line2d_16">
      <path d="M 361.40379 103.542932 
C 366.823854 103.542932 372.191215 104.610567 377.198701 106.684735 
C 382.206187 108.758904 386.756416 111.799269 390.58898 115.631833 
C 394.421544 119.464397 397.461909 124.014626 399.536078 129.022112 
C 401.610247 134.029599 402.677881 139.396959 402.677881 144.817023 
C 402.677881 150.237087 401.610247 155.604448 399.536078 160.611934 
C 397.461909 165.61942 394.421544 170.169649 390.58898 174.002213 
C 386.756416 177.834777 382.206187 180.875142 377.198701 182.949311 
C 372.191215 185.02348 366.823854 186.091114 361.40379 186.091114 
C 355.983726 186.091114 350.616365 185.02348 345.608879 182.949311 
C 340.601393 180.875142 336.051164 177.834777 332.2186 174.002213 
C 328.386036 170.169649 325.345671 165.61942 323.271502 160.611934 
C 321.197333 155.604448 320.129699 150.237087 320.129699 144.817023 
C 320.129699 139.396959 321.197333 134.029599 323.271502 129.022112 
C 325.345671 124.014626 328.386036 119.464397 332.2186 115.631833 
C 336.051164 111.799269 340.601393 108.758904 345.608879 106.684735 
C 350.616365 104.610567 355.983726 103.542932 361.40379 103.542932 
" clip-path="url(#p5fcdf38a14)" style="fill: none; stroke: #cccccc; stroke-width: 0.8; stroke-linecap: round"/>
     </g>
     <g id="text_12">
      <!-- 0.5 -->
      <g style="fill: #262626" transform="translate(377.198701 104.003485) scale(0.132 -0.132)">
       <use xlink:href="#Roboto-Regular-30"/>
       <use xlink:href="#Roboto-Regular-2e" transform="translate(56.201172 0)"/>
       <use xlink:href="#Roboto-Regular-35" transform="translate(82.568359 0)"/>
      </g>
     </g>
    </g>
    <g id="ytick_9">
     <g id="line2d_17">
      <path d="M 361.40379 82.905887 
C 369.533886 82.905887 377.584927 84.507338 385.096156 87.618591 
C 392.607386 90.729844 399.432729 95.290393 405.181575 101.039239 
C 410.93042 106.788085 415.490969 113.613428 418.602222 121.124657 
C 421.713475 128.635886 423.314927 136.686927 423.314927 144.817023 
C 423.314927 152.947119 421.713475 160.99816 418.602222 168.509389 
C 415.490969 176.020619 410.93042 182.845962 405.181575 188.594808 
C 399.432729 194.343654 392.607386 198.904202 385.096156 202.015455 
C 377.584927 205.126708 369.533886 206.72816 361.40379 206.72816 
C 353.273694 206.72816 345.222653 205.126708 337.711424 202.015455 
C 330.200194 198.904202 323.374851 194.343654 317.626005 188.594808 
C 311.87716 182.845962 307.316611 176.020619 304.205358 168.509389 
C 301.094105 160.99816 299.492653 152.947119 299.492653 144.817023 
C 299.492653 136.686927 301.094105 128.635886 304.205358 121.124657 
C 307.316611 113.613428 311.87716 106.788085 317.626005 101.039239 
C 323.374851 95.290393 330.200194 90.729844 337.711424 87.618591 
C 345.222653 84.507338 353.273694 82.905887 361.40379 82.905887 
" clip-path="url(#p5fcdf38a14)" style="fill: none; stroke: #cccccc; stroke-width: 0.8; stroke-linecap: round"/>
     </g>
    </g>
    <g id="ytick_10">
     <g id="line2d_18">
      <path d="M 361.40379 62.268841 
C 372.243918 62.268841 382.978639 64.40411 392.993612 68.552447 
C 403.008584 72.700785 412.109041 78.781516 419.774169 86.446644 
C 427.439297 94.111772 433.520029 103.212229 437.668366 113.227201 
C 441.816703 123.242174 443.951972 133.976895 443.951972 144.817023 
C 443.951972 155.657151 441.816703 166.391872 437.668366 176.406845 
C 433.520029 186.421817 427.439297 195.522275 419.774169 203.187403 
C 412.109041 210.85253 403.008584 216.933262 392.993612 221.081599 
C 382.978639 225.229936 372.243918 227.365205 361.40379 227.365205 
C 350.563662 227.365205 339.828941 225.229936 329.813968 221.081599 
C 319.798996 216.933262 310.698539 210.85253 303.033411 203.187403 
C 295.368283 195.522275 289.287551 186.421817 285.139214 176.406845 
C 280.990877 166.391872 278.855608 155.657151 278.855608 144.817023 
C 278.855608 133.976895 280.990877 123.242174 285.139214 113.227201 
C 289.287551 103.212229 295.368283 94.111772 303.033411 86.446644 
C 310.698539 78.781516 319.798996 72.700785 329.813968 68.552447 
C 339.828941 64.40411 350.563662 62.268841 361.40379 62.268841 
" clip-path="url(#p5fcdf38a14)" style="fill: none; stroke: #cccccc; stroke-width: 0.8; stroke-linecap: round"/>
     </g>
     <g id="text_13">
      <!-- 1 -->
      <g style="fill: #262626" transform="translate(392.993612 65.871197) scale(0.132 -0.132)">
       <use xlink:href="#Roboto-Regular-31"/>
      </g>
     </g>
    </g>
   </g>
   <g id="patch_6">
    <path d="M 361.40379 62.268841 
L 414.24354 175.324067 
L 293.201923 184.193389 
z
" clip-path="url(#p5fcdf38a14)" style="fill: #4c72b0; opacity: 0.25; stroke: #4c72b0; stroke-width: 0.8; stroke-linejoin: miter"/>
   </g>
   <g id="patch_7">
    <path d="M 361.40379 65.305889 
L 406.050779 170.593974 
L 298.720173 181.007427 
z
" clip-path="url(#p5fcdf38a14)" style="fill: #dd8452; opacity: 0.25; stroke: #dd8452; stroke-width: 0.8; stroke-linejoin: miter"/>
   </g>
   <g id="line2d_19">
    <path d="M 361.40379 62.268841 
L 414.24354 175.324067 
L 293.201923 184.193389 
L 361.40379 62.268841 
" clip-path="url(#p5fcdf38a14)" style="fill: none; stroke: #4c72b0; stroke-width: 1.2; stroke-linecap: round"/>
   </g>
   <g id="line2d_20">
    <path d="M 361.40379 65.305889 
L 406.050779 170.593974 
L 298.720173 181.007427 
L 361.40379 65.305889 
" clip-path="url(#p5fcdf38a14)" style="fill: none; stroke: #dd8452; stroke-width: 1.2; stroke-linecap: round"/>
   </g>
   <g id="text_14">
    <!-- Embeddings models -->
    <g style="fill: #262626" transform="translate(295.630665 18) scale(0.144 -0.144)">
     <defs>
      <path id="Roboto-Bold-45" d="M 406 0 
L 406 4550 
L 3450 4550 
L 3450 3791 
L 1347 3791 
L 1347 2706 
L 3144 2706 
L 3144 1972 
L 1347 1972 
L 1347 756 
L 3459 756 
L 3459 0 
L 406 0 
z
" transform="scale(0.015625)"/>
      <path id="Roboto-Bold-62" d="M 3394 1659 
Q 3394 900 3067 418 
Q 2741 -63 2081 -63 
Q 1531 -63 1203 359 
L 1163 0 
L 347 0 
L 347 4800 
L 1253 4800 
L 1253 3081 
Q 1569 3444 2075 3444 
Q 2741 3444 3067 2959 
Q 3394 2475 3394 1725 
L 3394 1659 
z
M 1847 2713 
Q 1419 2713 1253 2359 
L 1253 1022 
Q 1419 669 1853 669 
Q 2231 669 2361 945 
Q 2491 1222 2491 1725 
Q 2491 2125 2361 2419 
Q 2231 2713 1847 2713 
z
" transform="scale(0.015625)"/>
      <path id="Roboto-Bold-67" d="M 1681 -1331 
Q 1375 -1331 1008 -1203 
Q 641 -1075 422 -803 
L 822 -253 
Q 1156 -628 1644 -628 
Q 2003 -628 2203 -436 
Q 2403 -244 2403 113 
L 2403 294 
Q 2084 -63 1581 -63 
Q 953 -63 587 418 
Q 222 900 216 1625 
L 216 1716 
Q 216 2488 583 2966 
Q 950 3444 1588 3444 
Q 2147 3444 2456 3063 
L 2491 3381 
L 3309 3381 
L 3309 116 
Q 3309 -581 2857 -956 
Q 2406 -1331 1681 -1331 
z
M 1119 1650 
Q 1119 1244 1286 958 
Q 1453 672 1809 672 
Q 2222 672 2403 984 
L 2403 2403 
Q 2225 2713 1816 2713 
Q 1463 2713 1291 2423 
Q 1119 2134 1119 1716 
L 1119 1650 
z
" transform="scale(0.015625)"/>
     </defs>
     <use xlink:href="#Roboto-Bold-45"/>
     <use xlink:href="#Roboto-Bold-6d" transform="translate(56.25 0)"/>
     <use xlink:href="#Roboto-Bold-62" transform="translate(142.822266 0)"/>
     <use xlink:href="#Roboto-Bold-65" transform="translate(199.121094 0)"/>
     <use xlink:href="#Roboto-Bold-64" transform="translate(253.173828 0)"/>
     <use xlink:href="#Roboto-Bold-64" transform="translate(309.570312 0)"/>
     <use xlink:href="#Roboto-Bold-69" transform="translate(365.966797 0)"/>
     <use xlink:href="#Roboto-Bold-6e" transform="translate(392.480469 0)"/>
     <use xlink:href="#Roboto-Bold-67" transform="translate(448.486328 0)"/>
     <use xlink:href="#Roboto-Bold-73" transform="translate(505.615234 0)"/>
     <use xlink:href="#Roboto-Bold-20" transform="translate(557.080078 0)"/>
     <use xlink:href="#Roboto-Bold-6d" transform="translate(581.982422 0)"/>
     <use xlink:href="#Roboto-Bold-6f" transform="translate(668.554688 0)"/>
     <use xlink:href="#Roboto-Bold-64" transform="translate(725.097656 0)"/>
     <use xlink:href="#Roboto-Bold-65" transform="translate(781.494141 0)"/>
     <use xlink:href="#Roboto-Bold-6c" transform="translate(835.546875 0)"/>
     <use xlink:href="#Roboto-Bold-73" transform="translate(862.060547 0)"/>
    </g>
   </g>
  </g>
  <g id="axes_3">
   <g id="legend_1">
    <g id="text_15">
     <!-- Benchmark -->
     <g style="fill: #262626" transform="translate(204.457075 255.228621) scale(0.144 -0.144)">
      <defs>
       <path id="Roboto-Bold-42" d="M 3788 1341 
Q 3788 684 3369 345 
Q 2950 6 2175 0 
L 406 0 
L 406 4550 
L 2003 4550 
Q 2794 4550 3241 4247 
Q 3688 3944 3688 3306 
Q 3688 2997 3531 2737 
Q 3375 2478 3038 2344 
Q 3438 2244 3613 1956 
Q 3788 1669 3788 1341 
z
M 1347 3791 
L 1347 2647 
L 2003 2647 
Q 2747 2647 2747 3209 
Q 2747 3778 2034 3791 
L 1347 3791 
z
M 2850 1350 
Q 2850 1963 2231 1984 
L 1347 1984 
L 1347 756 
L 2147 756 
Q 2506 756 2678 925 
Q 2850 1094 2850 1350 
z
" transform="scale(0.015625)"/>
       <path id="Roboto-Bold-63" d="M 1753 666 
Q 2000 666 2159 802 
Q 2319 938 2322 1169 
L 3172 1169 
Q 3166 631 2761 284 
Q 2356 -63 1769 -63 
Q 984 -63 595 432 
Q 206 928 206 1647 
L 206 1734 
Q 206 2450 593 2947 
Q 981 3444 1766 3444 
Q 2388 3444 2777 3087 
Q 3166 2731 3172 2122 
L 2322 2122 
Q 2319 2369 2172 2542 
Q 2025 2716 1750 2716 
Q 1356 2716 1234 2420 
Q 1113 2125 1113 1647 
Q 1113 1256 1233 961 
Q 1353 666 1753 666 
z
" transform="scale(0.015625)"/>
       <path id="Roboto-Bold-68" d="M 1803 2713 
Q 1409 2713 1231 2409 
L 1231 0 
L 328 0 
L 328 4800 
L 1231 4800 
L 1231 3016 
Q 1584 3444 2134 3444 
Q 2631 3444 2939 3150 
Q 3247 2856 3250 2147 
L 3250 0 
L 2344 0 
L 2344 2138 
Q 2344 2466 2203 2589 
Q 2063 2713 1803 2713 
z
" transform="scale(0.015625)"/>
       <path id="Roboto-Bold-72" d="M 1922 2563 
Q 1413 2563 1253 2216 
L 1253 0 
L 347 0 
L 347 3381 
L 1200 3381 
L 1228 2978 
Q 1494 3444 1981 3444 
Q 2153 3444 2259 3403 
L 2250 2538 
L 1922 2563 
z
" transform="scale(0.015625)"/>
       <path id="Roboto-Bold-6b" d="M 2444 0 
L 1575 1356 
L 1253 1034 
L 1253 0 
L 350 0 
L 350 4803 
L 1253 4803 
L 1253 2144 
L 1428 2369 
L 2291 3381 
L 3375 3381 
L 2156 1975 
L 3484 0 
L 2444 0 
z
" transform="scale(0.015625)"/>
      </defs>
      <use xlink:href="#Roboto-Bold-42"/>
      <use xlink:href="#Roboto-Bold-65" transform="translate(63.818359 0)"/>
      <use xlink:href="#Roboto-Bold-6e" transform="translate(117.871094 0)"/>
      <use xlink:href="#Roboto-Bold-63" transform="translate(173.876953 0)"/>
      <use xlink:href="#Roboto-Bold-68" transform="translate(226.074219 0)"/>
      <use xlink:href="#Roboto-Bold-6d" transform="translate(282.080078 0)"/>
      <use xlink:href="#Roboto-Bold-61" transform="translate(368.652344 0)"/>
      <use xlink:href="#Roboto-Bold-72" transform="translate(422.265625 0)"/>
      <use xlink:href="#Roboto-Bold-6b" transform="translate(458.789062 0)"/>
     </g>
    </g>
    <g id="line2d_21">
     <path d="M 121.678731 270.033621 
L 134.878731 270.033621 
L 148.078731 270.033621 
" style="fill: none; stroke: #4c72b0; stroke-width: 1.2; stroke-linecap: round"/>
    </g>
    <g id="text_16">
     <!-- VGGSounder -->
     <g style="fill: #262626" transform="translate(158.638731 274.653621) scale(0.132 -0.132)">
      <defs>
       <path id="Roboto-Regular-47" d="M 3891 2266 
L 3891 600 
Q 3763 413 3403 175 
Q 3044 -63 2281 -63 
Q 1450 -63 915 507 
Q 381 1078 381 2100 
L 381 2453 
Q 381 3469 856 4041 
Q 1331 4613 2213 4613 
Q 2994 4613 3398 4219 
Q 3803 3825 3891 3219 
L 3288 3219 
Q 3225 3588 2979 3853 
Q 2734 4119 2213 4119 
Q 1584 4119 1287 3676 
Q 991 3234 988 2475 
L 988 2100 
Q 988 1313 1344 870 
Q 1700 428 2284 428 
Q 2769 428 2984 542 
Q 3200 656 3291 759 
L 3291 1778 
L 2238 1778 
L 2238 2266 
L 3891 2266 
z
" transform="scale(0.015625)"/>
       <path id="Roboto-Regular-53" d="M 2953 1150 
Q 2953 1463 2742 1650 
Q 2531 1838 1856 2036 
Q 1181 2234 789 2542 
Q 397 2850 397 3375 
Q 397 3906 820 4259 
Q 1244 4613 1944 4613 
Q 2713 4613 3130 4191 
Q 3547 3769 3547 3238 
L 2947 3238 
Q 2947 3619 2700 3869 
Q 2453 4119 1944 4119 
Q 1463 4119 1231 3908 
Q 1000 3697 1000 3381 
Q 1000 3097 1245 2908 
Q 1491 2719 2044 2563 
Q 2834 2341 3196 2014 
Q 3559 1688 3559 1156 
Q 3559 600 3125 268 
Q 2691 -63 1972 -63 
Q 1553 -63 1158 93 
Q 763 250 508 558 
Q 253 866 253 1319 
L 853 1319 
Q 853 853 1193 640 
Q 1534 428 1972 428 
Q 2444 428 2698 623 
Q 2953 819 2953 1150 
z
" transform="scale(0.015625)"/>
       <path id="Roboto-Regular-6f" d="M 288 1725 
Q 288 2459 700 2951 
Q 1113 3444 1822 3444 
Q 2531 3444 2943 2961 
Q 3356 2478 3366 1756 
L 3366 1653 
Q 3366 919 2952 428 
Q 2538 -63 1828 -63 
Q 1116 -63 702 428 
Q 288 919 288 1653 
L 288 1725 
z
M 866 1653 
Q 866 1150 1105 781 
Q 1344 413 1828 413 
Q 2300 413 2540 777 
Q 2781 1141 2784 1644 
L 2784 1725 
Q 2784 2222 2543 2595 
Q 2303 2969 1822 2969 
Q 1344 2969 1105 2595 
Q 866 2222 866 1725 
L 866 1653 
z
" transform="scale(0.015625)"/>
       <path id="Roboto-Regular-75" d="M 2538 0 
L 2525 334 
Q 2194 -63 1538 -63 
Q 1041 -63 734 231 
Q 428 525 428 1200 
L 428 3381 
L 1006 3381 
L 1006 1194 
Q 1006 738 1198 583 
Q 1391 428 1628 428 
Q 2281 428 2509 919 
L 2509 3381 
L 3091 3381 
L 3091 0 
L 2538 0 
z
" transform="scale(0.015625)"/>
       <path id="Roboto-Regular-6e" d="M 1844 2956 
Q 1566 2956 1353 2806 
Q 1141 2656 1019 2416 
L 1019 0 
L 441 0 
L 441 3381 
L 988 3381 
L 1006 2959 
Q 1391 3444 2016 3444 
Q 2513 3444 2805 3166 
Q 3097 2888 3100 2231 
L 3100 0 
L 2519 0 
L 2519 2222 
Q 2519 2619 2345 2787 
Q 2172 2956 1844 2956 
z
" transform="scale(0.015625)"/>
       <path id="Roboto-Regular-64" d="M 2622 0 
L 2594 363 
Q 2247 -63 1628 -63 
Q 1034 -63 668 418 
Q 303 900 297 1628 
L 297 1719 
Q 297 2494 664 2969 
Q 1031 3444 1634 3444 
Q 2231 3444 2572 3044 
L 2572 4800 
L 3153 4800 
L 3153 0 
L 2622 0 
z
M 878 1653 
Q 878 1150 1090 789 
Q 1303 428 1772 428 
Q 2309 428 2572 919 
L 2572 2475 
Q 2313 2956 1778 2956 
Q 1306 2956 1092 2589 
Q 878 2222 878 1719 
L 878 1653 
z
" transform="scale(0.015625)"/>
       <path id="Roboto-Regular-65" d="M 3116 591 
Q 2950 341 2647 139 
Q 2344 -63 1844 -63 
Q 1138 -63 714 396 
Q 291 856 291 1572 
L 291 1703 
Q 291 2256 502 2645 
Q 713 3034 1050 3239 
Q 1388 3444 1769 3444 
Q 2494 3444 2826 2970 
Q 3159 2497 3159 1788 
L 3159 1528 
L 872 1528 
Q 884 1063 1148 736 
Q 1413 409 1875 409 
Q 2181 409 2393 534 
Q 2606 659 2766 869 
L 3116 591 
z
M 1769 2969 
Q 1425 2969 1187 2719 
Q 950 2469 891 2000 
L 2581 2000 
L 2581 2044 
Q 2559 2381 2386 2675 
Q 2213 2969 1769 2969 
z
" transform="scale(0.015625)"/>
       <path id="Roboto-Regular-72" d="M 1791 2888 
Q 1225 2888 1019 2400 
L 1019 0 
L 441 0 
L 441 3381 
L 1003 3381 
L 1016 2994 
Q 1294 3444 1819 3444 
Q 1981 3444 2075 3400 
L 2072 2863 
Q 1944 2888 1791 2888 
z
" transform="scale(0.015625)"/>
      </defs>
      <use xlink:href="#Roboto-Regular-56"/>
      <use xlink:href="#Roboto-Regular-47" transform="translate(63.671875 0)"/>
      <use xlink:href="#Roboto-Regular-47" transform="translate(131.787109 0)"/>
      <use xlink:href="#Roboto-Regular-53" transform="translate(199.902344 0)"/>
      <use xlink:href="#Roboto-Regular-6f" transform="translate(259.277344 0)"/>
      <use xlink:href="#Roboto-Regular-75" transform="translate(316.308594 0)"/>
      <use xlink:href="#Roboto-Regular-6e" transform="translate(371.435547 0)"/>
      <use xlink:href="#Roboto-Regular-64" transform="translate(426.660156 0)"/>
      <use xlink:href="#Roboto-Regular-65" transform="translate(483.056641 0)"/>
      <use xlink:href="#Roboto-Regular-72" transform="translate(536.083984 0)"/>
     </g>
    </g>
    <g id="line2d_22">
     <path d="M 260.272544 270.033621 
L 273.472544 270.033621 
L 286.672544 270.033621 
" style="fill: none; stroke: #dd8452; stroke-width: 1.2; stroke-linecap: round"/>
    </g>
    <g id="text_17">
     <!-- VGGSound -->
     <g style="fill: #262626" transform="translate(297.232544 274.653621) scale(0.132 -0.132)">
      <use xlink:href="#Roboto-Regular-56"/>
      <use xlink:href="#Roboto-Regular-47" transform="translate(63.671875 0)"/>
      <use xlink:href="#Roboto-Regular-47" transform="translate(131.787109 0)"/>
      <use xlink:href="#Roboto-Regular-53" transform="translate(199.902344 0)"/>
      <use xlink:href="#Roboto-Regular-6f" transform="translate(259.277344 0)"/>
      <use xlink:href="#Roboto-Regular-75" transform="translate(316.308594 0)"/>
      <use xlink:href="#Roboto-Regular-6e" transform="translate(371.435547 0)"/>
      <use xlink:href="#Roboto-Regular-64" transform="translate(426.660156 0)"/>
     </g>
    </g>
   </g>
  </g>
 </g>
 <defs>
  <clipPath id="p458ea9b026">
   <path d="M 203.815792 144.817023 
C 203.815792 133.976895 201.680523 123.242174 197.532186 113.227201 
C 193.383849 103.212229 187.303117 94.111772 179.637989 86.446644 
C 171.972861 78.781516 162.872404 72.700785 152.857432 68.552447 
C 142.842459 64.40411 132.107738 62.268841 121.26761 62.268841 
C 110.427482 62.268841 99.692761 64.40411 89.677788 68.552447 
C 79.662816 72.700785 70.562359 78.781516 62.897231 86.446644 
C 55.232103 94.111772 49.151371 103.212229 45.003034 113.227201 
C 40.854697 123.242174 38.719428 133.976895 38.719428 144.817023 
C 38.719428 155.657151 40.854697 166.391872 45.003034 176.406845 
C 49.151371 186.421817 55.232103 195.522275 62.897231 203.187403 
C 70.562359 210.85253 79.662816 216.933262 89.677788 221.081599 
C 99.692761 225.229936 110.427482 227.365205 121.26761 227.365205 
C 132.107738 227.365205 142.842459 225.229936 152.857432 221.081599 
C 162.872404 216.933262 171.972861 210.85253 179.637989 203.187403 
C 187.303117 195.522275 193.383849 186.421817 197.532186 176.406845 
C 201.680523 166.391872 203.815792 155.657151 203.815792 144.817023 
M 121.26761 144.817023 
C 121.26761 144.817023 121.26761 144.817023 121.26761 144.817023 
C 121.26761 144.817023 121.26761 144.817023 121.26761 144.817023 
C 121.26761 144.817023 121.26761 144.817023 121.26761 144.817023 
C 121.26761 144.817023 121.26761 144.817023 121.26761 144.817023 
C 121.26761 144.817023 121.26761 144.817023 121.26761 144.817023 
C 121.26761 144.817023 121.26761 144.817023 121.26761 144.817023 
C 121.26761 144.817023 121.26761 144.817023 121.26761 144.817023 
C 121.26761 144.817023 121.26761 144.817023 121.26761 144.817023 
C 121.26761 144.817023 121.26761 144.817023 121.26761 144.817023 
C 121.26761 144.817023 121.26761 144.817023 121.26761 144.817023 
C 121.26761 144.817023 121.26761 144.817023 121.26761 144.817023 
C 121.26761 144.817023 121.26761 144.817023 121.26761 144.817023 
C 121.26761 144.817023 121.26761 144.817023 121.26761 144.817023 
C 121.26761 144.817023 121.26761 144.817023 121.26761 144.817023 
C 121.26761 144.817023 121.26761 144.817023 121.26761 144.817023 
C 121.26761 144.817023 121.26761 144.817023 121.26761 144.817023 
z
"/>
  </clipPath>
  <clipPath id="p5fcdf38a14">
   <path d="M 443.951972 144.817023 
C 443.951972 133.976895 441.816703 123.242174 437.668366 113.227201 
C 433.520029 103.212229 427.439297 94.111772 419.774169 86.446644 
C 412.109041 78.781516 403.008584 72.700785 392.993612 68.552447 
C 382.978639 64.40411 372.243918 62.268841 361.40379 62.268841 
C 350.563662 62.268841 339.828941 64.40411 329.813968 68.552447 
C 319.798996 72.700785 310.698539 78.781516 303.033411 86.446644 
C 295.368283 94.111772 289.287551 103.212229 285.139214 113.227201 
C 280.990877 123.242174 278.855608 133.976895 278.855608 144.817023 
C 278.855608 155.657151 280.990877 166.391872 285.139214 176.406845 
C 289.287551 186.421817 295.368283 195.522275 303.033411 203.187403 
C 310.698539 210.85253 319.798996 216.933262 329.813968 221.081599 
C 339.828941 225.229936 350.563662 227.365205 361.40379 227.365205 
C 372.243918 227.365205 382.978639 225.229936 392.993612 221.081599 
C 403.008584 216.933262 412.109041 210.85253 419.774169 203.187403 
C 427.439297 195.522275 433.520029 186.421817 437.668366 176.406845 
C 441.816703 166.391872 443.951972 155.657151 443.951972 144.817023 
M 361.40379 144.817023 
C 361.40379 144.817023 361.40379 144.817023 361.40379 144.817023 
C 361.40379 144.817023 361.40379 144.817023 361.40379 144.817023 
C 361.40379 144.817023 361.40379 144.817023 361.40379 144.817023 
C 361.40379 144.817023 361.40379 144.817023 361.40379 144.817023 
C 361.40379 144.817023 361.40379 144.817023 361.40379 144.817023 
C 361.40379 144.817023 361.40379 144.817023 361.40379 144.817023 
C 361.40379 144.817023 361.40379 144.817023 361.40379 144.817023 
C 361.40379 144.817023 361.40379 144.817023 361.40379 144.817023 
C 361.40379 144.817023 361.40379 144.817023 361.40379 144.817023 
C 361.40379 144.817023 361.40379 144.817023 361.40379 144.817023 
C 361.40379 144.817023 361.40379 144.817023 361.40379 144.817023 
C 361.40379 144.817023 361.40379 144.817023 361.40379 144.817023 
C 361.40379 144.817023 361.40379 144.817023 361.40379 144.817023 
C 361.40379 144.817023 361.40379 144.817023 361.40379 144.817023 
C 361.40379 144.817023 361.40379 144.817023 361.40379 144.817023 
C 361.40379 144.817023 361.40379 144.817023 361.40379 144.817023 
z
"/>
  </clipPath>
 </defs>
</svg>
