<?xml version="1.0" encoding="utf-8" standalone="no"?>
<!DOCTYPE svg PUBLIC "-//W3C//DTD SVG 1.1//EN"
  "http://www.w3.org/Graphics/SVG/1.1/DTD/svg11.dtd">
<svg xmlns:xlink="http://www.w3.org/1999/xlink" width="474.27188pt" height="474.27188pt" viewBox="0 0 474.27188 474.27188" xmlns="http://www.w3.org/2000/svg" version="1.1">
 <metadata>
  <rdf:RDF xmlns:dc="http://purl.org/dc/elements/1.1/" xmlns:cc="http://creativecommons.org/ns#" xmlns:rdf="http://www.w3.org/1999/02/22-rdf-syntax-ns#">
   <cc:Work>
    <dc:type rdf:resource="http://purl.org/dc/dcmitype/StillImage"/>
    <dc:date>2026-06-24T16:53:57.510740</dc:date>
    <dc:format>image/svg+xml</dc:format>
    <dc:creator>
     <cc:Agent>
      <dc:title>Matplotlib v3.10.9, https://matplotlib.org/</dc:title>
     </cc:Agent>
    </dc:creator>
   </cc:Work>
  </rdf:RDF>
 </metadata>
 <defs>
  <style type="text/css">*{stroke-linejoin: round; stroke-linecap: butt}</style>
 </defs>
 <g id="figure_1">
  <g id="patch_1">
   <path d="M 0 474.27188 
L 474.27188 474.27188 
L 474.27188 0 
L 0 0 
z
" style="fill: #ffffff"/>
  </g>
  <g id="axes_1">
   <g id="patch_2">
    <path d="M 444.87988 250.97594 
C 444.87988 223.695256 439.50618 196.679842 429.066314 171.475776 
C 418.626448 146.27171 403.323446 123.369148 384.033089 104.078791 
C 364.742732 84.788434 341.84017 69.485432 316.636104 59.045566 
C 291.432038 48.6057 264.416624 43.232 237.13594 43.232 
C 209.855256 43.232 182.839842 48.6057 157.635776 59.045566 
C 132.43171 69.485432 109.529148 84.788434 90.238791 104.078791 
C 70.948434 123.369148 55.645432 146.27171 45.205566 171.475776 
C 34.7657 196.679842 29.392 223.695256 29.392 250.97594 
C 29.392 278.256624 34.7657 305.272038 45.205566 330.476104 
C 55.645432 355.68017 70.948434 378.582732 90.238791 397.873089 
C 109.529148 417.163446 132.43171 432.466448 157.635776 442.906314 
C 182.839842 453.34618 209.855256 458.71988 237.13594 458.71988 
C 264.416624 458.71988 291.432038 453.34618 316.636104 442.906314 
C 341.84017 432.466448 364.742732 417.163446 384.033089 397.873089 
C 403.323446 378.582732 418.626448 355.68017 429.066314 330.476104 
C 439.50618 305.272038 444.87988 278.256624 444.87988 250.97594 
M 237.13594 250.97594 
C 237.13594 250.97594 237.13594 250.97594 237.13594 250.97594 
C 237.13594 250.97594 237.13594 250.97594 237.13594 250.97594 
C 237.13594 250.97594 237.13594 250.97594 237.13594 250.97594 
C 237.13594 250.97594 237.13594 250.97594 237.13594 250.97594 
C 237.13594 250.97594 237.13594 250.97594 237.13594 250.97594 
C 237.13594 250.97594 237.13594 250.97594 237.13594 250.97594 
C 237.13594 250.97594 237.13594 250.97594 237.13594 250.97594 
C 237.13594 250.97594 237.13594 250.97594 237.13594 250.97594 
C 237.13594 250.97594 237.13594 250.97594 237.13594 250.97594 
C 237.13594 250.97594 237.13594 250.97594 237.13594 250.97594 
C 237.13594 250.97594 237.13594 250.97594 237.13594 250.97594 
C 237.13594 250.97594 237.13594 250.97594 237.13594 250.97594 
C 237.13594 250.97594 237.13594 250.97594 237.13594 250.97594 
C 237.13594 250.97594 237.13594 250.97594 237.13594 250.97594 
C 237.13594 250.97594 237.13594 250.97594 237.13594 250.97594 
C 237.13594 250.97594 237.13594 250.97594 237.13594 250.97594 
z
" style="fill: #ffffff"/>
   </g>
   <g id="patch_3">
    <path d="M 237.13594 43.232 
L 405.367157 348.104279 
L 160.378921 295.291626 
z
" clip-path="url(#pe7113bf42e)" style="fill: #4c72b0; opacity: 0.25; stroke: #4c72b0; stroke-width: 0.8; stroke-linejoin: miter"/>
   </g>
   <g id="patch_4">
    <path d="M 237.13594 116.930295 
L 345.060829 313.286404 
L 193.825252 275.981377 
z
" clip-path="url(#pe7113bf42e)" style="fill: #dd8452; opacity: 0.25; stroke: #dd8452; stroke-width: 0.8; stroke-linejoin: miter"/>
   </g>
   <g id="patch_5">
    <path d="M 237.13594 92.131851 
L 359.326116 321.522471 
L 103.620341 328.061207 
z
" clip-path="url(#pe7113bf42e)" style="fill: #55a868; opacity: 0.25; stroke: #55a868; stroke-width: 0.8; stroke-linejoin: miter"/>
   </g>
   <g id="patch_6">
    <path d="M 237.13594 82.989938 
L 311.008938 293.626535 
L 112.174588 323.12241 
z
" clip-path="url(#pe7113bf42e)" style="fill: #c44e52; opacity: 0.25; stroke: #c44e52; stroke-width: 0.8; stroke-linejoin: miter"/>
   </g>
   <g id="matplotlib.axis_1">
    <g id="xtick_1">
     <g id="line2d_1">
      <path d="M 237.13594 250.97594 
L 237.13594 43.232 
" clip-path="url(#pe7113bf42e)" style="fill: none; stroke: #b0b0b0; stroke-width: 0.8; stroke-linecap: square"/>
     </g>
     <g id="text_1">
      <!-- AV -->
      <g transform="translate(218.231253 36.987469) scale(0.3 -0.3)">
       <defs>
        <path id="ArialMT-41" d="M -9 0 
L 1750 4581 
L 2403 4581 
L 4278 0 
L 3588 0 
L 3053 1388 
L 1138 1388 
L 634 0 
L -9 0 
z
M 1313 1881 
L 2866 1881 
L 2388 3150 
Q 2169 3728 2063 4100 
Q 1975 3659 1816 3225 
L 1313 1881 
z
" transform="scale(0.015625)"/>
        <path id="ArialMT-56" d="M 1803 0 
L 28 4581 
L 684 4581 
L 1875 1253 
Q 2019 853 2116 503 
Q 2222 878 2363 1253 
L 3600 4581 
L 4219 4581 
L 2425 0 
L 1803 0 
z
" transform="scale(0.015625)"/>
       </defs>
       <use xlink:href="#ArialMT-41"/>
       <use xlink:href="#ArialMT-56" transform="translate(59.324219 0)"/>
      </g>
     </g>
    </g>
    <g id="xtick_2">
     <g id="line2d_2">
      <path d="M 237.13594 250.97594 
L 417.04747 354.84791 
" clip-path="url(#pe7113bf42e)" style="fill: none; stroke: #b0b0b0; stroke-width: 0.8; stroke-linecap: square"/>
     </g>
     <g id="text_2">
      <!-- V -->
      <g transform="translate(419.166356 369.603379) scale(0.3 -0.3)">
       <use xlink:href="#ArialMT-56"/>
      </g>
     </g>
    </g>
    <g id="xtick_3">
     <g id="line2d_3">
      <path d="M 237.13594 250.97594 
L 57.22441 354.84791 
" clip-path="url(#pe7113bf42e)" style="fill: none; stroke: #b0b0b0; stroke-width: 0.8; stroke-linecap: square"/>
     </g>
     <g id="text_3">
      <!-- A -->
      <g transform="translate(35.094586 369.603379) scale(0.3 -0.3)">
       <use xlink:href="#ArialMT-41"/>
      </g>
     </g>
    </g>
   </g>
   <g id="matplotlib.axis_2">
    <g id="ytick_1">
     <g id="line2d_4">
      <path d="M 237.13594 250.97594 
C 237.13594 250.97594 237.13594 250.97594 237.13594 250.97594 
C 237.13594 250.97594 237.13594 250.97594 237.13594 250.97594 
C 237.13594 250.97594 237.13594 250.97594 237.13594 250.97594 
C 237.13594 250.97594 237.13594 250.97594 237.13594 250.97594 
C 237.13594 250.97594 237.13594 250.97594 237.13594 250.97594 
C 237.13594 250.97594 237.13594 250.97594 237.13594 250.97594 
C 237.13594 250.97594 237.13594 250.97594 237.13594 250.97594 
C 237.13594 250.97594 237.13594 250.97594 237.13594 250.97594 
C 237.13594 250.97594 237.13594 250.97594 237.13594 250.97594 
C 237.13594 250.97594 237.13594 250.97594 237.13594 250.97594 
C 237.13594 250.97594 237.13594 250.97594 237.13594 250.97594 
C 237.13594 250.97594 237.13594 250.97594 237.13594 250.97594 
C 237.13594 250.97594 237.13594 250.97594 237.13594 250.97594 
C 237.13594 250.97594 237.13594 250.97594 237.13594 250.97594 
C 237.13594 250.97594 237.13594 250.97594 237.13594 250.97594 
C 237.13594 250.97594 237.13594 250.97594 237.13594 250.97594 
" clip-path="url(#pe7113bf42e)" style="fill: none; stroke: #b0b0b0; stroke-width: 0.8; stroke-linecap: square"/>
     </g>
     <g id="text_4">
      <!-- 0 -->
      <g transform="translate(237.13594 245.01344) scale(0.3 -0.3)">
       <defs>
        <path id="ArialMT-30" d="M 266 2259 
Q 266 3072 433 3567 
Q 600 4063 929 4331 
Q 1259 4600 1759 4600 
Q 2128 4600 2406 4451 
Q 2684 4303 2865 4023 
Q 3047 3744 3150 3342 
Q 3253 2941 3253 2259 
Q 3253 1453 3087 958 
Q 2922 463 2592 192 
Q 2263 -78 1759 -78 
Q 1097 -78 719 397 
Q 266 969 266 2259 
z
M 844 2259 
Q 844 1131 1108 757 
Q 1372 384 1759 384 
Q 2147 384 2411 759 
Q 2675 1134 2675 2259 
Q 2675 3391 2411 3762 
Q 2147 4134 1753 4134 
Q 1366 4134 1134 3806 
Q 844 3388 844 2259 
z
" transform="scale(0.015625)"/>
       </defs>
       <use xlink:href="#ArialMT-30"/>
      </g>
     </g>
    </g>
    <g id="ytick_2">
     <g id="line2d_5">
      <path d="M 237.13594 199.039955 
C 243.956111 199.039955 250.709965 200.38338 257.010981 202.993346 
C 263.311997 205.603313 269.037638 209.429064 273.860227 214.251653 
C 278.682816 219.074242 282.508567 224.799883 285.118534 231.100899 
C 287.7285 237.401915 289.071925 244.155769 289.071925 250.97594 
C 289.071925 257.796111 287.7285 264.549965 285.118534 270.850981 
C 282.508567 277.151997 278.682816 282.877638 273.860227 287.700227 
C 269.037638 292.522816 263.311997 296.348567 257.010981 298.958534 
C 250.709965 301.5685 243.956111 302.911925 237.13594 302.911925 
C 230.315769 302.911925 223.561915 301.5685 217.260899 298.958534 
C 210.959883 296.348567 205.234242 292.522816 200.411653 287.700227 
C 195.589064 282.877638 191.763313 277.151997 189.153346 270.850981 
C 186.54338 264.549965 185.199955 257.796111 185.199955 250.97594 
C 185.199955 244.155769 186.54338 237.401915 189.153346 231.100899 
C 191.763313 224.799883 195.589064 219.074242 200.411653 214.251653 
C 205.234242 209.429064 210.959883 205.603313 217.260899 202.993346 
C 223.561915 200.38338 230.315769 199.039955 237.13594 199.039955 
" clip-path="url(#pe7113bf42e)" style="fill: none; stroke: #b0b0b0; stroke-width: 0.8; stroke-linecap: square"/>
     </g>
    </g>
    <g id="ytick_3">
     <g id="line2d_6">
      <path d="M 237.13594 147.10397 
C 250.776282 147.10397 264.283989 149.79082 276.886022 155.010753 
C 289.488055 160.230686 300.939336 167.882187 310.584514 177.527366 
C 320.229693 187.172544 327.881194 198.623825 333.101127 211.225858 
C 338.32106 223.827891 341.00791 237.335598 341.00791 250.97594 
C 341.00791 264.616282 338.32106 278.123989 333.101127 290.726022 
C 327.881194 303.328055 320.229693 314.779336 310.584514 324.424514 
C 300.939336 334.069693 289.488055 341.721194 276.886022 346.941127 
C 264.283989 352.16106 250.776282 354.84791 237.13594 354.84791 
C 223.495598 354.84791 209.987891 352.16106 197.385858 346.941127 
C 184.783825 341.721194 173.332544 334.069693 163.687366 324.424514 
C 154.042187 314.779336 146.390686 303.328055 141.170753 290.726022 
C 135.95082 278.123989 133.26397 264.616282 133.26397 250.97594 
C 133.26397 237.335598 135.95082 223.827891 141.170753 211.225858 
C 146.390686 198.623825 154.042187 187.172544 163.687366 177.527366 
C 173.332544 167.882187 184.783825 160.230686 197.385858 155.010753 
C 209.987891 149.79082 223.495598 147.10397 237.13594 147.10397 
" clip-path="url(#pe7113bf42e)" style="fill: none; stroke: #b0b0b0; stroke-width: 0.8; stroke-linecap: square"/>
     </g>
     <g id="text_5">
      <!-- 0.5 -->
      <g transform="translate(276.886022 149.048253) scale(0.3 -0.3)">
       <defs>
        <path id="ArialMT-2e" d="M 581 0 
L 581 641 
L 1222 641 
L 1222 0 
L 581 0 
z
" transform="scale(0.015625)"/>
        <path id="ArialMT-35" d="M 266 1200 
L 856 1250 
Q 922 819 1161 601 
Q 1400 384 1738 384 
Q 2144 384 2425 690 
Q 2706 997 2706 1503 
Q 2706 1984 2436 2262 
Q 2166 2541 1728 2541 
Q 1456 2541 1237 2417 
Q 1019 2294 894 2097 
L 366 2166 
L 809 4519 
L 3088 4519 
L 3088 3981 
L 1259 3981 
L 1013 2750 
Q 1425 3038 1878 3038 
Q 2478 3038 2890 2622 
Q 3303 2206 3303 1553 
Q 3303 931 2941 478 
Q 2500 -78 1738 -78 
Q 1113 -78 717 272 
Q 322 622 266 1200 
z
" transform="scale(0.015625)"/>
       </defs>
       <use xlink:href="#ArialMT-30"/>
       <use xlink:href="#ArialMT-2e" transform="translate(55.615234 0)"/>
       <use xlink:href="#ArialMT-35" transform="translate(83.398438 0)"/>
      </g>
     </g>
    </g>
    <g id="ytick_4">
     <g id="line2d_7">
      <path d="M 237.13594 95.167985 
C 257.596453 95.167985 277.858014 99.19826 296.761063 107.028159 
C 315.664112 114.858059 332.841034 126.335311 347.308802 140.803078 
C 361.776569 155.270846 373.253821 172.447768 381.083721 191.350817 
C 388.91362 210.253866 392.943895 230.515427 392.943895 250.97594 
C 392.943895 271.436453 388.91362 291.698014 381.083721 310.601063 
C 373.253821 329.504112 361.776569 346.681034 347.308802 361.148802 
C 332.841034 375.616569 315.664112 387.093821 296.761063 394.923721 
C 277.858014 402.75362 257.596453 406.783895 237.13594 406.783895 
C 216.675427 406.783895 196.413866 402.75362 177.510817 394.923721 
C 158.607768 387.093821 141.430846 375.616569 126.963078 361.148802 
C 112.495311 346.681034 101.018059 329.504112 93.188159 310.601063 
C 85.35826 291.698014 81.327985 271.436453 81.327985 250.97594 
C 81.327985 230.515427 85.35826 210.253866 93.188159 191.350817 
C 101.018059 172.447768 112.495311 155.270846 126.963078 140.803078 
C 141.430846 126.335311 158.607768 114.858059 177.510817 107.028159 
C 196.413866 99.19826 216.675427 95.167985 237.13594 95.167985 
" clip-path="url(#pe7113bf42e)" style="fill: none; stroke: #b0b0b0; stroke-width: 0.8; stroke-linecap: square"/>
     </g>
    </g>
    <g id="ytick_5">
     <g id="line2d_8">
      <path d="M 237.13594 43.232 
C 264.416624 43.232 291.432038 48.6057 316.636104 59.045566 
C 341.84017 69.485432 364.742732 84.788434 384.033089 104.078791 
C 403.323446 123.369148 418.626448 146.27171 429.066314 171.475776 
C 439.50618 196.679842 444.87988 223.695256 444.87988 250.97594 
C 444.87988 278.256624 439.50618 305.272038 429.066314 330.476104 
C 418.626448 355.68017 403.323446 378.582732 384.033089 397.873089 
C 364.742732 417.163446 341.84017 432.466448 316.636104 442.906314 
C 291.432038 453.34618 264.416624 458.71988 237.13594 458.71988 
C 209.855256 458.71988 182.839842 453.34618 157.635776 442.906314 
C 132.43171 432.466448 109.529148 417.163446 90.238791 397.873089 
C 70.948434 378.582732 55.645432 355.68017 45.205566 330.476104 
C 34.7657 305.272038 29.392 278.256624 29.392 250.97594 
C 29.392 223.695256 34.7657 196.679842 45.205566 171.475776 
C 55.645432 146.27171 70.948434 123.369148 90.238791 104.078791 
C 109.529148 84.788434 132.43171 69.485432 157.635776 59.045566 
C 182.839842 48.6057 209.855256 43.232 237.13594 43.232 
" clip-path="url(#pe7113bf42e)" style="fill: none; stroke: #b0b0b0; stroke-width: 0.8; stroke-linecap: square"/>
     </g>
     <g id="text_6">
      <!-- 1 -->
      <g transform="translate(316.636104 53.083066) scale(0.3 -0.3)">
       <defs>
        <path id="ArialMT-31" d="M 2384 0 
L 1822 0 
L 1822 3584 
Q 1619 3391 1289 3197 
Q 959 3003 697 2906 
L 697 3450 
Q 1169 3672 1522 3987 
Q 1875 4303 2022 4600 
L 2384 4600 
L 2384 0 
z
" transform="scale(0.015625)"/>
       </defs>
       <use xlink:href="#ArialMT-31"/>
      </g>
     </g>
    </g>
   </g>
   <g id="line2d_9">
    <path d="M 237.13594 43.232 
L 405.367157 348.104279 
L 160.378921 295.291626 
L 237.13594 43.232 
" clip-path="url(#pe7113bf42e)" style="fill: none; stroke: #4c72b0; stroke-width: 1.2; stroke-linecap: round"/>
   </g>
   <g id="line2d_10">
    <path d="M 237.13594 116.930295 
L 345.060829 313.286404 
L 193.825252 275.981377 
L 237.13594 116.930295 
" clip-path="url(#pe7113bf42e)" style="fill: none; stroke: #dd8452; stroke-width: 1.2; stroke-linecap: round"/>
   </g>
   <g id="line2d_11">
    <path d="M 237.13594 92.131851 
L 359.326116 321.522471 
L 103.620341 328.061207 
L 237.13594 92.131851 
" clip-path="url(#pe7113bf42e)" style="fill: none; stroke: #55a868; stroke-width: 1.2; stroke-linecap: round"/>
   </g>
   <g id="line2d_12">
    <path d="M 237.13594 82.989938 
L 311.008938 293.626535 
L 112.174588 323.12241 
L 237.13594 82.989938 
" clip-path="url(#pe7113bf42e)" style="fill: none; stroke: #c44e52; stroke-width: 1.2; stroke-linecap: round"/>
   </g>
  </g>
 </g>
 <defs>
  <clipPath id="pe7113bf42e">
   <path d="M 444.87988 250.97594 
C 444.87988 223.695256 439.50618 196.679842 429.066314 171.475776 
C 418.626448 146.27171 403.323446 123.369148 384.033089 104.078791 
C 364.742732 84.788434 341.84017 69.485432 316.636104 59.045566 
C 291.432038 48.6057 264.416624 43.232 237.13594 43.232 
C 209.855256 43.232 182.839842 48.6057 157.635776 59.045566 
C 132.43171 69.485432 109.529148 84.788434 90.238791 104.078791 
C 70.948434 123.369148 55.645432 146.27171 45.205566 171.475776 
C 34.7657 196.679842 29.392 223.695256 29.392 250.97594 
C 29.392 278.256624 34.7657 305.272038 45.205566 330.476104 
C 55.645432 355.68017 70.948434 378.582732 90.238791 397.873089 
C 109.529148 417.163446 132.43171 432.466448 157.635776 442.906314 
C 182.839842 453.34618 209.855256 458.71988 237.13594 458.71988 
C 264.416624 458.71988 291.432038 453.34618 316.636104 442.906314 
C 341.84017 432.466448 364.742732 417.163446 384.033089 397.873089 
C 403.323446 378.582732 418.626448 355.68017 429.066314 330.476104 
C 439.50618 305.272038 444.87988 278.256624 444.87988 250.97594 
M 237.13594 250.97594 
C 237.13594 250.97594 237.13594 250.97594 237.13594 250.97594 
C 237.13594 250.97594 237.13594 250.97594 237.13594 250.97594 
C 237.13594 250.97594 237.13594 250.97594 237.13594 250.97594 
C 237.13594 250.97594 237.13594 250.97594 237.13594 250.97594 
C 237.13594 250.97594 237.13594 250.97594 237.13594 250.97594 
C 237.13594 250.97594 237.13594 250.97594 237.13594 250.97594 
C 237.13594 250.97594 237.13594 250.97594 237.13594 250.97594 
C 237.13594 250.97594 237.13594 250.97594 237.13594 250.97594 
C 237.13594 250.97594 237.13594 250.97594 237.13594 250.97594 
C 237.13594 250.97594 237.13594 250.97594 237.13594 250.97594 
C 237.13594 250.97594 237.13594 250.97594 237.13594 250.97594 
C 237.13594 250.97594 237.13594 250.97594 237.13594 250.97594 
C 237.13594 250.97594 237.13594 250.97594 237.13594 250.97594 
C 237.13594 250.97594 237.13594 250.97594 237.13594 250.97594 
C 237.13594 250.97594 237.13594 250.97594 237.13594 250.97594 
C 237.13594 250.97594 237.13594 250.97594 237.13594 250.97594 
z
"/>
  </clipPath>
 </defs>
</svg>
