<?xml version="1.0" encoding="utf-8" standalone="no"?>
<!DOCTYPE svg PUBLIC "-//W3C//DTD SVG 1.1//EN"
  "http://www.w3.org/Graphics/SVG/1.1/DTD/svg11.dtd">
<svg xmlns:xlink="http://www.w3.org/1999/xlink" width="474.27188pt" height="474.27188pt" viewBox="0 0 474.27188 474.27188" xmlns="http://www.w3.org/2000/svg" version="1.1">
 <metadata>
  <rdf:RDF xmlns:dc="http://purl.org/dc/elements/1.1/" xmlns:cc="http://creativecommons.org/ns#" xmlns:rdf="http://www.w3.org/1999/02/22-rdf-syntax-ns#">
   <cc:Work>
    <dc:type rdf:resource="http://purl.org/dc/dcmitype/StillImage"/>
    <dc:date>2025-09-30T14:22:45.826019</dc:date>
    <dc:format>image/svg+xml</dc:format>
    <dc:creator>
     <cc:Agent>
      <dc:title>Matplotlib v3.10.5, https://matplotlib.org/</dc:title>
     </cc:Agent>
    </dc:creator>
   </cc:Work>
  </rdf:RDF>
 </metadata>
 <defs>
  <style type="text/css">*{stroke-linejoin: round; stroke-linecap: butt}</style>
 </defs>
 <g id="figure_1">
  <g id="patch_1">
   <path d="M 0 474.27188 
L 474.27188 474.27188 
L 474.27188 0 
L 0 0 
z
" style="fill: #ffffff"/>
  </g>
  <g id="axes_1">
   <g id="patch_2">
    <path d="M 443.98988 251.86594 
C 443.98988 224.702129 438.639202 197.802453 428.244061 172.706364 
C 417.848921 147.610276 402.611478 124.805831 383.403764 105.598116 
C 364.196049 86.390402 341.391604 71.152959 316.295516 60.757819 
C 291.199427 50.362678 264.299751 45.012 237.13594 45.012 
C 209.972129 45.012 183.072453 50.362678 157.976364 60.757819 
C 132.880276 71.152959 110.075831 86.390402 90.868116 105.598116 
C 71.660402 124.805831 56.422959 147.610276 46.027819 172.706364 
C 35.632678 197.802453 30.282 224.702129 30.282 251.86594 
C 30.282 279.029751 35.632678 305.929427 46.027819 331.025516 
C 56.422959 356.121604 71.660402 378.926049 90.868116 398.133764 
C 110.075831 417.341478 132.880276 432.578921 157.976364 442.974061 
C 183.072453 453.369202 209.972129 458.71988 237.13594 458.71988 
C 264.299751 458.71988 291.199427 453.369202 316.295516 442.974061 
C 341.391604 432.578921 364.196049 417.341478 383.403764 398.133764 
C 402.611478 378.926049 417.848921 356.121604 428.244061 331.025516 
C 438.639202 305.929427 443.98988 279.029751 443.98988 251.86594 
M 237.13594 251.86594 
C 237.13594 251.86594 237.13594 251.86594 237.13594 251.86594 
C 237.13594 251.86594 237.13594 251.86594 237.13594 251.86594 
C 237.13594 251.86594 237.13594 251.86594 237.13594 251.86594 
C 237.13594 251.86594 237.13594 251.86594 237.13594 251.86594 
C 237.13594 251.86594 237.13594 251.86594 237.13594 251.86594 
C 237.13594 251.86594 237.13594 251.86594 237.13594 251.86594 
C 237.13594 251.86594 237.13594 251.86594 237.13594 251.86594 
C 237.13594 251.86594 237.13594 251.86594 237.13594 251.86594 
C 237.13594 251.86594 237.13594 251.86594 237.13594 251.86594 
C 237.13594 251.86594 237.13594 251.86594 237.13594 251.86594 
C 237.13594 251.86594 237.13594 251.86594 237.13594 251.86594 
C 237.13594 251.86594 237.13594 251.86594 237.13594 251.86594 
C 237.13594 251.86594 237.13594 251.86594 237.13594 251.86594 
C 237.13594 251.86594 237.13594 251.86594 237.13594 251.86594 
C 237.13594 251.86594 237.13594 251.86594 237.13594 251.86594 
C 237.13594 251.86594 237.13594 251.86594 237.13594 251.86594 
z
" style="fill: #ffffff"/>
   </g>
   <g id="matplotlib.axis_1">
    <g id="xtick_1">
     <g id="line2d_1">
      <path d="M 237.13594 251.86594 
L 237.13594 45.012 
" clip-path="url(#p540a9f0912)" style="fill: none; stroke: #cccccc; stroke-width: 0.8; stroke-linecap: round"/>
     </g>
     <g id="text_1">
      <!-- AV -->
      <g style="fill: #262626" transform="translate(217.807034 37.915125) scale(0.3 -0.3)">
       <defs>
        <path id="Roboto-Regular-41" d="M 3041 1188 
L 1134 1188 
L 706 0 
L 88 0 
L 1825 4550 
L 2350 4550 
L 4091 0 
L 3475 0 
L 3041 1188 
z
M 1316 1681 
L 2863 1681 
L 2088 3809 
L 1316 1681 
z
" transform="scale(0.015625)"/>
        <path id="Roboto-Regular-56" d="M 2034 797 
L 3334 4550 
L 3991 4550 
L 2303 0 
L 1772 0 
L 88 4550 
L 741 4550 
L 2034 797 
z
" transform="scale(0.015625)"/>
       </defs>
       <use xlink:href="#Roboto-Regular-41"/>
       <use xlink:href="#Roboto-Regular-56" transform="translate(65.234375 0)"/>
      </g>
     </g>
    </g>
    <g id="xtick_2">
     <g id="line2d_2">
      <path d="M 237.13594 251.86594 
L 416.276707 355.29291 
" clip-path="url(#p540a9f0912)" style="fill: none; stroke: #cccccc; stroke-width: 0.8; stroke-linecap: round"/>
     </g>
     <g id="text_2">
      <!-- V -->
      <g style="fill: #262626" transform="translate(419.983146 371.146035) scale(0.3 -0.3)">
       <use xlink:href="#Roboto-Regular-56"/>
      </g>
     </g>
    </g>
    <g id="xtick_3">
     <g id="line2d_3">
      <path d="M 237.13594 251.86594 
L 57.995173 355.29291 
" clip-path="url(#p540a9f0912)" style="fill: none; stroke: #cccccc; stroke-width: 0.8; stroke-linecap: round"/>
     </g>
     <g id="text_3">
      <!-- A -->
      <g style="fill: #262626" transform="translate(34.959828 371.146035) scale(0.3 -0.3)">
       <use xlink:href="#Roboto-Regular-41"/>
      </g>
     </g>
    </g>
   </g>
   <g id="matplotlib.axis_2">
    <g id="ytick_1">
     <g id="line2d_4">
      <path d="M 237.13594 251.86594 
C 237.13594 251.86594 237.13594 251.86594 237.13594 251.86594 
C 237.13594 251.86594 237.13594 251.86594 237.13594 251.86594 
C 237.13594 251.86594 237.13594 251.86594 237.13594 251.86594 
C 237.13594 251.86594 237.13594 251.86594 237.13594 251.86594 
C 237.13594 251.86594 237.13594 251.86594 237.13594 251.86594 
C 237.13594 251.86594 237.13594 251.86594 237.13594 251.86594 
C 237.13594 251.86594 237.13594 251.86594 237.13594 251.86594 
C 237.13594 251.86594 237.13594 251.86594 237.13594 251.86594 
C 237.13594 251.86594 237.13594 251.86594 237.13594 251.86594 
C 237.13594 251.86594 237.13594 251.86594 237.13594 251.86594 
C 237.13594 251.86594 237.13594 251.86594 237.13594 251.86594 
C 237.13594 251.86594 237.13594 251.86594 237.13594 251.86594 
C 237.13594 251.86594 237.13594 251.86594 237.13594 251.86594 
C 237.13594 251.86594 237.13594 251.86594 237.13594 251.86594 
C 237.13594 251.86594 237.13594 251.86594 237.13594 251.86594 
C 237.13594 251.86594 237.13594 251.86594 237.13594 251.86594 
" clip-path="url(#p540a9f0912)" style="fill: none; stroke: #cccccc; stroke-width: 0.8; stroke-linecap: round"/>
     </g>
     <g id="text_4">
      <!-- 0 -->
      <g style="fill: #262626" transform="translate(237.13594 245.77219) scale(0.3 -0.3)">
       <defs>
        <path id="Roboto-Regular-30" d="M 3231 1941 
Q 3231 1381 3131 998 
Q 3031 616 2845 380 
Q 2659 144 2395 40 
Q 2131 -63 1800 -63 
Q 1472 -63 1206 40 
Q 941 144 753 380 
Q 566 616 462 998 
Q 359 1381 359 1941 
L 359 2634 
Q 359 3194 461 3572 
Q 563 3950 750 4181 
Q 938 4413 1202 4513 
Q 1466 4613 1794 4613 
Q 2125 4613 2390 4513 
Q 2656 4413 2843 4181 
Q 3031 3950 3131 3572 
Q 3231 3194 3231 2634 
L 3231 1941 
z
M 2653 2731 
Q 2653 3116 2598 3384 
Q 2544 3653 2434 3820 
Q 2325 3988 2164 4063 
Q 2003 4138 1794 4138 
Q 1588 4138 1427 4063 
Q 1266 3988 1158 3820 
Q 1050 3653 994 3384 
Q 938 3116 938 2731 
L 938 1850 
Q 938 1469 994 1195 
Q 1050 922 1161 747 
Q 1272 572 1433 490 
Q 1594 409 1800 409 
Q 2013 409 2172 490 
Q 2331 572 2439 747 
Q 2547 922 2600 1195 
Q 2653 1469 2653 1850 
L 2653 2731 
z
" transform="scale(0.015625)"/>
       </defs>
       <use xlink:href="#Roboto-Regular-30"/>
      </g>
     </g>
    </g>
    <g id="ytick_2">
     <g id="line2d_5">
      <path d="M 237.13594 200.152455 
C 243.926893 200.152455 250.651812 201.490125 256.925834 204.08891 
C 263.199856 206.687695 268.900967 210.497055 273.702896 215.298984 
C 278.504825 220.100913 282.314185 225.802024 284.91297 232.076046 
C 287.511755 238.350068 288.849425 245.074987 288.849425 251.86594 
C 288.849425 258.656893 287.511755 265.381812 284.91297 271.655834 
C 282.314185 277.929856 278.504825 283.630967 273.702896 288.432896 
C 268.900967 293.234825 263.199856 297.044185 256.925834 299.64297 
C 250.651812 302.241755 243.926893 303.579425 237.13594 303.579425 
C 230.344987 303.579425 223.620068 302.241755 217.346046 299.64297 
C 211.072024 297.044185 205.370913 293.234825 200.568984 288.432896 
C 195.767055 283.630967 191.957695 277.929856 189.35891 271.655834 
C 186.760125 265.381812 185.422455 258.656893 185.422455 251.86594 
C 185.422455 245.074987 186.760125 238.350068 189.35891 232.076046 
C 191.957695 225.802024 195.767055 220.100913 200.568984 215.298984 
C 205.370913 210.497055 211.072024 206.687695 217.346046 204.08891 
C 223.620068 201.490125 230.344987 200.152455 237.13594 200.152455 
" clip-path="url(#p540a9f0912)" style="fill: none; stroke: #cccccc; stroke-width: 0.8; stroke-linecap: round"/>
     </g>
    </g>
    <g id="ytick_3">
     <g id="line2d_6">
      <path d="M 237.13594 148.43897 
C 250.717845 148.43897 264.167684 151.114309 276.715728 156.311879 
C 289.263772 161.509449 300.665995 169.128171 310.269852 178.732028 
C 319.873709 188.335885 327.492431 199.738108 332.690001 212.286152 
C 337.887571 224.834196 340.56291 238.284035 340.56291 251.86594 
C 340.56291 265.447845 337.887571 278.897684 332.690001 291.445728 
C 327.492431 303.993772 319.873709 315.395995 310.269852 324.999852 
C 300.665995 334.603709 289.263772 342.222431 276.715728 347.420001 
C 264.167684 352.617571 250.717845 355.29291 237.13594 355.29291 
C 223.554035 355.29291 210.104196 352.617571 197.556152 347.420001 
C 185.008108 342.222431 173.605885 334.603709 164.002028 324.999852 
C 154.398171 315.395995 146.779449 303.993772 141.581879 291.445728 
C 136.384309 278.897684 133.70897 265.447845 133.70897 251.86594 
C 133.70897 238.284035 136.384309 224.834196 141.581879 212.286152 
C 146.779449 199.738108 154.398171 188.335885 164.002028 178.732028 
C 173.605885 169.128171 185.008108 161.509449 197.556152 156.311879 
C 210.104196 151.114309 223.554035 148.43897 237.13594 148.43897 
" clip-path="url(#p540a9f0912)" style="fill: none; stroke: #cccccc; stroke-width: 0.8; stroke-linecap: round"/>
     </g>
     <g id="text_5">
      <!-- 0.5 -->
      <g style="fill: #262626" transform="translate(276.715728 150.218129) scale(0.3 -0.3)">
       <defs>
        <path id="Roboto-Regular-2e" d="M 450 303 
Q 450 453 539 553 
Q 628 653 806 653 
Q 984 653 1076 553 
Q 1169 453 1169 303 
Q 1169 159 1076 62 
Q 984 -34 806 -34 
Q 628 -34 539 62 
Q 450 159 450 303 
z
" transform="scale(0.015625)"/>
        <path id="Roboto-Regular-35" d="M 644 2281 
L 875 4550 
L 3206 4550 
L 3206 4016 
L 1366 4016 
L 1228 2775 
Q 1350 2847 1542 2909 
Q 1734 2972 1988 2972 
Q 2300 2972 2551 2864 
Q 2803 2756 2978 2557 
Q 3153 2359 3247 2078 
Q 3341 1797 3341 1450 
Q 3341 1122 3252 845 
Q 3163 569 2984 367 
Q 2806 166 2536 51 
Q 2266 -63 1900 -63 
Q 1625 -63 1379 14 
Q 1134 91 943 247 
Q 753 403 631 640 
Q 509 878 481 1197 
L 1028 1197 
Q 1081 806 1306 607 
Q 1531 409 1900 409 
Q 2106 409 2265 481 
Q 2425 553 2536 687 
Q 2647 822 2705 1014 
Q 2763 1206 2763 1444 
Q 2763 1656 2703 1840 
Q 2644 2025 2528 2161 
Q 2413 2297 2242 2375 
Q 2072 2453 1853 2453 
Q 1706 2453 1600 2433 
Q 1494 2413 1409 2375 
Q 1325 2338 1254 2283 
Q 1184 2228 1106 2163 
L 644 2281 
z
" transform="scale(0.015625)"/>
       </defs>
       <use xlink:href="#Roboto-Regular-30"/>
       <use xlink:href="#Roboto-Regular-2e" transform="translate(56.152344 0)"/>
       <use xlink:href="#Roboto-Regular-35" transform="translate(82.470703 0)"/>
      </g>
     </g>
    </g>
    <g id="ytick_4">
     <g id="line2d_7">
      <path d="M 237.13594 96.725485 
C 257.508798 96.725485 277.683555 100.738494 296.505622 108.534849 
C 315.327688 116.331204 332.431022 127.759286 346.836808 142.165072 
C 361.242594 156.570858 372.670676 173.674192 380.467031 192.496258 
C 388.263386 211.318325 392.276395 231.493082 392.276395 251.86594 
C 392.276395 272.238798 388.263386 292.413555 380.467031 311.235622 
C 372.670676 330.057688 361.242594 347.161022 346.836808 361.566808 
C 332.431022 375.972594 315.327688 387.400676 296.505622 395.197031 
C 277.683555 402.993386 257.508798 407.006395 237.13594 407.006395 
C 216.763082 407.006395 196.588325 402.993386 177.766258 395.197031 
C 158.944192 387.400676 141.840858 375.972594 127.435072 361.566808 
C 113.029286 347.161022 101.601204 330.057688 93.804849 311.235622 
C 86.008494 292.413555 81.995485 272.238798 81.995485 251.86594 
C 81.995485 231.493082 86.008494 211.318325 93.804849 192.496258 
C 101.601204 173.674192 113.029286 156.570858 127.435072 142.165072 
C 141.840858 127.759286 158.944192 116.331204 177.766258 108.534849 
C 196.588325 100.738494 216.763082 96.725485 237.13594 96.725485 
" clip-path="url(#p540a9f0912)" style="fill: none; stroke: #cccccc; stroke-width: 0.8; stroke-linecap: round"/>
     </g>
    </g>
    <g id="ytick_5">
     <g id="line2d_8">
      <path d="M 237.13594 45.012 
C 264.299751 45.012 291.199427 50.362678 316.295516 60.757819 
C 341.391604 71.152959 364.196049 86.390402 383.403764 105.598116 
C 402.611478 124.805831 417.848921 147.610276 428.244061 172.706364 
C 438.639202 197.802453 443.98988 224.702129 443.98988 251.86594 
C 443.98988 279.029751 438.639202 305.929427 428.244061 331.025516 
C 417.848921 356.121604 402.611478 378.926049 383.403764 398.133764 
C 364.196049 417.341478 341.391604 432.578921 316.295516 442.974061 
C 291.199427 453.369202 264.299751 458.71988 237.13594 458.71988 
C 209.972129 458.71988 183.072453 453.369202 157.976364 442.974061 
C 132.880276 432.578921 110.075831 417.341478 90.868116 398.133764 
C 71.660402 378.926049 56.422959 356.121604 46.027819 331.025516 
C 35.632678 305.929427 30.282 279.029751 30.282 251.86594 
C 30.282 224.702129 35.632678 197.802453 46.027819 172.706364 
C 56.422959 147.610276 71.660402 124.805831 90.868116 105.598116 
C 110.075831 86.390402 132.880276 71.152959 157.976364 60.757819 
C 183.072453 50.362678 209.972129 45.012 237.13594 45.012 
" clip-path="url(#p540a9f0912)" style="fill: none; stroke: #cccccc; stroke-width: 0.8; stroke-linecap: round"/>
     </g>
     <g id="text_6">
      <!-- 1 -->
      <g style="fill: #262626" transform="translate(316.295516 54.664069) scale(0.3 -0.3)">
       <defs>
        <path id="Roboto-Regular-31" d="M 2278 0 
L 1697 0 
L 1697 3853 
L 531 3425 
L 531 3950 
L 2188 4572 
L 2278 4572 
L 2278 0 
z
" transform="scale(0.015625)"/>
       </defs>
       <use xlink:href="#Roboto-Regular-31"/>
      </g>
     </g>
    </g>
   </g>
   <g id="patch_3">
    <path d="M 237.13594 45.012 
L 401.573567 346.804048 
L 153.934265 299.90245 
z
" clip-path="url(#p540a9f0912)" style="fill: #4c72b0; opacity: 0.25; stroke: #4c72b0; stroke-width: 0.8; stroke-linejoin: miter"/>
   </g>
   <g id="patch_4">
    <path d="M 237.13594 121.00117 
L 341.226999 311.962941 
L 193.174497 277.247091 
z
" clip-path="url(#p540a9f0912)" style="fill: #dd8452; opacity: 0.25; stroke: #dd8452; stroke-width: 0.8; stroke-linejoin: miter"/>
   </g>
   <g id="patch_5">
    <path d="M 237.13594 87.85434 
L 360.682883 323.195801 
L 97.221681 332.645475 
z
" clip-path="url(#p540a9f0912)" style="fill: #55a868; opacity: 0.25; stroke: #55a868; stroke-width: 0.8; stroke-linejoin: miter"/>
   </g>
   <g id="patch_6">
    <path d="M 237.13594 73.311076 
L 310.876655 294.440161 
L 107.960502 326.445414 
z
" clip-path="url(#p540a9f0912)" style="fill: #c44e52; opacity: 0.25; stroke: #c44e52; stroke-width: 0.8; stroke-linejoin: miter"/>
   </g>
   <g id="line2d_9">
    <path d="M 237.13594 45.012 
L 401.573567 346.804048 
L 153.934265 299.90245 
L 237.13594 45.012 
" clip-path="url(#p540a9f0912)" style="fill: none; stroke: #4c72b0; stroke-width: 1.2; stroke-linecap: round"/>
   </g>
   <g id="line2d_10">
    <path d="M 237.13594 121.00117 
L 341.226999 311.962941 
L 193.174497 277.247091 
L 237.13594 121.00117 
" clip-path="url(#p540a9f0912)" style="fill: none; stroke: #dd8452; stroke-width: 1.2; stroke-linecap: round"/>
   </g>
   <g id="line2d_11">
    <path d="M 237.13594 87.85434 
L 360.682883 323.195801 
L 97.221681 332.645475 
L 237.13594 87.85434 
" clip-path="url(#p540a9f0912)" style="fill: none; stroke: #55a868; stroke-width: 1.2; stroke-linecap: round"/>
   </g>
   <g id="line2d_12">
    <path d="M 237.13594 73.311076 
L 310.876655 294.440161 
L 107.960502 326.445414 
L 237.13594 73.311076 
" clip-path="url(#p540a9f0912)" style="fill: none; stroke: #c44e52; stroke-width: 1.2; stroke-linecap: round"/>
   </g>
  </g>
 </g>
 <defs>
  <clipPath id="p540a9f0912">
   <path d="M 443.98988 251.86594 
C 443.98988 224.702129 438.639202 197.802453 428.244061 172.706364 
C 417.848921 147.610276 402.611478 124.805831 383.403764 105.598116 
C 364.196049 86.390402 341.391604 71.152959 316.295516 60.757819 
C 291.199427 50.362678 264.299751 45.012 237.13594 45.012 
C 209.972129 45.012 183.072453 50.362678 157.976364 60.757819 
C 132.880276 71.152959 110.075831 86.390402 90.868116 105.598116 
C 71.660402 124.805831 56.422959 147.610276 46.027819 172.706364 
C 35.632678 197.802453 30.282 224.702129 30.282 251.86594 
C 30.282 279.029751 35.632678 305.929427 46.027819 331.025516 
C 56.422959 356.121604 71.660402 378.926049 90.868116 398.133764 
C 110.075831 417.341478 132.880276 432.578921 157.976364 442.974061 
C 183.072453 453.369202 209.972129 458.71988 237.13594 458.71988 
C 264.299751 458.71988 291.199427 453.369202 316.295516 442.974061 
C 341.391604 432.578921 364.196049 417.341478 383.403764 398.133764 
C 402.611478 378.926049 417.848921 356.121604 428.244061 331.025516 
C 438.639202 305.929427 443.98988 279.029751 443.98988 251.86594 
M 237.13594 251.86594 
C 237.13594 251.86594 237.13594 251.86594 237.13594 251.86594 
C 237.13594 251.86594 237.13594 251.86594 237.13594 251.86594 
C 237.13594 251.86594 237.13594 251.86594 237.13594 251.86594 
C 237.13594 251.86594 237.13594 251.86594 237.13594 251.86594 
C 237.13594 251.86594 237.13594 251.86594 237.13594 251.86594 
C 237.13594 251.86594 237.13594 251.86594 237.13594 251.86594 
C 237.13594 251.86594 237.13594 251.86594 237.13594 251.86594 
C 237.13594 251.86594 237.13594 251.86594 237.13594 251.86594 
C 237.13594 251.86594 237.13594 251.86594 237.13594 251.86594 
C 237.13594 251.86594 237.13594 251.86594 237.13594 251.86594 
C 237.13594 251.86594 237.13594 251.86594 237.13594 251.86594 
C 237.13594 251.86594 237.13594 251.86594 237.13594 251.86594 
C 237.13594 251.86594 237.13594 251.86594 237.13594 251.86594 
C 237.13594 251.86594 237.13594 251.86594 237.13594 251.86594 
C 237.13594 251.86594 237.13594 251.86594 237.13594 251.86594 
C 237.13594 251.86594 237.13594 251.86594 237.13594 251.86594 
z
"/>
  </clipPath>
 </defs>
</svg>
